<?xml version="1.0" encoding="utf-8"?>
<!-- Generator: Adobe Illustrator 16.0.0, SVG Export Plug-In . SVG Version: 6.00 Build 0)  -->
<!DOCTYPE svg PUBLIC "-//W3C//DTD SVG 1.1//EN" "http://www.w3.org/Graphics/SVG/1.1/DTD/svg11.dtd">
<svg version="1.1" id="Layer_1" xmlns="http://www.w3.org/2000/svg" xmlns:xlink="http://www.w3.org/1999/xlink" x="0px" y="0px"
	 width="32px" height="32px" viewBox="0 0 32 32" enable-background="new 0 0 32 32" xml:space="preserve">
<path fill="#F16254" d="M23.899,0H7.965C3.566,0,0,3.566,0,7.967V23.9c0,4.4,3.566,7.967,7.965,7.967h15.934
	c4.401,0,7.968-3.567,7.968-7.967V7.967C31.867,3.566,28.3,0,23.899,0z M20.218,15.934h-2.957c0,4.46,0,9.958,0,9.958h-3.983
	c0,0,0-5.445,0-9.958h-1.992V11.95h1.976v-1.8c0-1.629,0.776-4.175,4.191-4.175l3.077,0.012V9.4c0,0-1.871,0-2.235,0
	c-0.363,0-0.88,0.181-0.88,0.957v1.593h3.166L20.218,15.934z"/>
</svg>
