<?xml version="1.0" encoding="utf-8"?>
<!-- Generator: Adobe Illustrator 16.0.0, SVG Export Plug-In . SVG Version: 6.00 Build 0)  -->
<!DOCTYPE svg PUBLIC "-//W3C//DTD SVG 1.1//EN" "http://www.w3.org/Graphics/SVG/1.1/DTD/svg11.dtd">
<svg version="1.1" id="Layer_1" xmlns="http://www.w3.org/2000/svg" xmlns:xlink="http://www.w3.org/1999/xlink" x="0px" y="0px"
	 width="32px" height="32px" viewBox="0 0 32 32" enable-background="new 0 0 32 32" xml:space="preserve">
<g>
	<path fill="#F16254" d="M21.354,15.913c0,3-2.439,5.439-5.439,5.439c-2.999,0-5.439-2.439-5.439-5.439
		c0-0.721,0.145-1.41,0.4-2.041h-2.97v8.144c0,1.052,0.855,1.906,1.906,1.906h12.204c1.052,0,1.907-0.854,1.907-1.906v-8.144h-2.971
		C21.209,14.503,21.354,15.192,21.354,15.913z"/>
	<path fill="#F16254" d="M15.914,19.414c1.93,0,3.502-1.571,3.502-3.501c0-0.761-0.248-1.466-0.663-2.041
		c-0.637-0.882-1.671-1.459-2.839-1.459s-2.201,0.577-2.839,1.459c-0.414,0.575-0.663,1.28-0.663,2.041
		C12.412,17.843,13.983,19.414,15.914,19.414z"/>
	<polygon fill="#F16254" points="23.558,11.63 23.558,8.698 23.558,8.259 23.119,8.262 20.187,8.271 20.198,11.641 	"/>
	<path fill="#F16254" d="M23.871,0H7.957C3.562,0,0,3.562,0,7.957v15.912c0,4.396,3.562,7.958,7.957,7.958h15.914
		c4.395,0,7.957-3.562,7.957-7.958V7.957C31.828,3.562,28.266,0,23.871,0z M25.86,13.872v8.144c0,2.12-1.725,3.844-3.845,3.844
		H9.812c-2.119,0-3.844-1.724-3.844-3.844v-8.144V9.812c0-2.12,1.725-3.844,3.844-3.844h12.204c2.12,0,3.845,1.724,3.845,3.844
		V13.872z"/>
</g>
</svg>
