<?xml version="1.0" encoding="utf-8"?>
<!-- Generator: Adobe Illustrator 16.0.0, SVG Export Plug-In . SVG Version: 6.00 Build 0)  -->
<!DOCTYPE svg PUBLIC "-//W3C//DTD SVG 1.1//EN" "http://www.w3.org/Graphics/SVG/1.1/DTD/svg11.dtd">
<svg version="1.1" id="Layer_1" xmlns="http://www.w3.org/2000/svg" xmlns:xlink="http://www.w3.org/1999/xlink" x="0px" y="0px"
	 width="32px" height="32px" viewBox="0 0 32 32" enable-background="new 0 0 32 32" xml:space="preserve">
<path fill="#F16254" d="M23.902-0.062H8.03c-4.384,0-7.936,3.554-7.936,7.936v15.872c0,4.384,3.552,7.936,7.936,7.936h15.872
	c4.383,0,7.936-3.552,7.936-7.936V7.874C31.837,3.492,28.285-0.062,23.902-0.062z M10.675,25.729H6.046V12.503h4.629V25.729z
	 M8.361,10.52c-1.279,0-2.314-1.037-2.314-2.314S7.082,5.89,8.361,5.89c1.277,0,2.314,1.038,2.314,2.315S9.638,10.52,8.361,10.52z
	 M25.886,25.729h-3.968v-6.443c0-1.537-0.17-3.515-2.277-3.515c-2.139,0-2.465,1.674-2.465,3.403v6.555h-3.854V12.503h3.688v1.785
	h0.057c0.549-1.042,1.891-1.785,3.89-1.785c4.161,0,4.93,2.39,4.93,5.959V25.729z"/>
</svg>
