<?xml version="1.0" encoding="utf-8"?>
<!-- Generator: Adobe Illustrator 16.0.0, SVG Export Plug-In . SVG Version: 6.00 Build 0)  -->
<!DOCTYPE svg PUBLIC "-//W3C//DTD SVG 1.1//EN" "http://www.w3.org/Graphics/SVG/1.1/DTD/svg11.dtd">
<svg version="1.1" id="Layer_1" xmlns="http://www.w3.org/2000/svg" xmlns:xlink="http://www.w3.org/1999/xlink" x="0px" y="0px"
	 width="32px" height="32px" viewBox="0 0 32 32" enable-background="new 0 0 32 32" xml:space="preserve">
<path fill="#F16254" d="M23.821,0H8.179C3.662,0,0,3.595,0,8.03V23.97C0,28.405,3.662,32,8.179,32h15.643
	C28.338,32,32,28.405,32,23.97V8.03C32,3.595,28.338,0,23.821,0z M23.775,11.888c0.008,0.173,0.01,0.347,0.01,0.521
	c0,5.32-4.112,11.453-11.635,11.453c-2.309,0-4.459-0.666-6.27-1.808c0.32,0.037,0.645,0.056,0.976,0.056
	c1.917,0,3.68-0.644,5.08-1.723c-1.79-0.033-3.299-1.197-3.82-2.796c0.25,0.046,0.506,0.073,0.77,0.073
	c0.373,0,0.734-0.049,1.078-0.142c-1.871-0.371-3.281-1.998-3.281-3.948c0-0.017,0-0.034,0-0.05
	c0.552,0.302,1.183,0.482,1.853,0.502c-1.097-0.721-1.82-1.954-1.82-3.349c0-0.738,0.203-1.431,0.555-2.024
	c2.017,2.435,5.03,4.038,8.429,4.206c-0.068-0.295-0.104-0.602-0.104-0.917c0-2.224,1.83-4.026,4.089-4.026
	c1.177,0,2.239,0.489,2.984,1.272c0.932-0.181,1.808-0.516,2.598-0.978c-0.306,0.941-0.953,1.729-1.798,2.227
	c0.827-0.097,1.615-0.312,2.349-0.633C25.268,10.611,24.573,11.321,23.775,11.888z"/>
</svg>
