<?xml version="1.0" encoding="utf-8"?>
<!-- Generator: Adobe Illustrator 16.0.0, SVG Export Plug-In . SVG Version: 6.00 Build 0)  -->
<!DOCTYPE svg PUBLIC "-//W3C//DTD SVG 1.0//EN" "http://www.w3.org/TR/2001/REC-SVG-20010904/DTD/svg10.dtd">
<svg version="1.0" id="Calque_1" xmlns="http://www.w3.org/2000/svg" xmlns:xlink="http://www.w3.org/1999/xlink" x="0px" y="0px"
	 width="637.5px" height="120.5px" viewBox="0 0 637.5 120.5" enable-background="new 0 0 637.5 120.5" xml:space="preserve">
<g>
	<g>
		<path fill="#404041" d="M186.816,42.182c-14.719,0-26.693,12.623-26.693,28.134c0,15.521,11.974,28.146,26.693,28.146
			c14.716,0,26.69-12.625,26.69-28.146C213.506,54.804,201.533,42.182,186.816,42.182z M186.816,91.427
			c-10.837,0-19.656-9.474-19.656-21.11c0-11.496,9.002-21.212,19.656-21.212c10.836,0,19.653,9.517,19.653,21.212
			C206.47,81.953,197.652,91.427,186.816,91.427z"/>
		<path fill="#404041" d="M247.42,42.292c-6.067,0-11.817,2.379-16.087,6.593v-3.077c0-1.942-1.53-3.517-3.408-3.517
			c-1.973,0-3.519,1.542-3.519,3.517v50.158l0.128,0.125c0.025,0.159,0.084,0.359,0.237,0.554c0.46,0.849,1.294,1.512,2.254,1.782
			l0.898,0.033c1.09,0,2.079-0.489,2.662-1.313c0.452-0.485,0.601-1.078,0.72-1.558l0.026-0.099V65.328
			c0.211-8.824,7.428-16.001,16.087-16.001c8.812,0,15.979,7.169,15.979,15.979v29.641c0,1.972,1.545,3.517,3.517,3.517
			c1.973,0,3.52-1.545,3.52-3.517V65.307C270.437,52.617,260.111,42.292,247.42,42.292z"/>
		<path fill="#404041" d="M345.48,42.292c-7.889,0-15.271,4.097-19.596,10.785c-4.225-6.688-11.583-10.785-19.525-10.785
			c-6.048,0-11.758,2.338-15.979,6.485v-3.079c0-1.942-1.512-3.406-3.515-3.406c-1.848,0-3.407,1.561-3.407,3.406v49.913
			l0.044,0.268c0.458,1.374,1.663,2.436,2.933,2.576l0.764,0.008c0.208,0,0.494,0,0.775-0.156c0.352-0.092,0.664-0.304,0.839-0.449
			c0.984-0.602,1.57-1.641,1.57-2.803V65.307c0-8.872,7.169-16.09,15.979-16.09c8.822,0,15.999,7.218,15.999,16.09v0.016V93.24
			v1.826c0,1.851,1.608,3.41,3.512,3.41c2.002,0,3.632-1.531,3.632-3.41V91.93V65.318v-0.012c0-8.875,7.168-16.092,15.979-16.092
			c8.805,0,15.873,7.076,16.093,16.092v29.745c0,1.851,1.559,3.408,3.403,3.408c1.94,0,3.521-1.53,3.521-3.408V65.307
			C368.498,52.617,358.174,42.292,345.48,42.292z"/>
		<path fill="#404041" d="M406.188,42.182c-14.717,0-26.693,12.623-26.693,28.134c0,15.521,11.979,28.146,26.693,28.146
			s26.686-12.625,26.686-28.146C432.872,54.804,420.901,42.182,406.188,42.182z M406.188,91.427c-10.84,0-19.66-9.474-19.66-21.11
			c0-11.496,9.005-21.212,19.66-21.212c10.654,0,19.651,9.717,19.651,21.212C425.839,81.953,417.022,91.427,406.188,91.427z"/>
		<path fill="#404041" d="M471.556,42.182c-7.747,0-14.949,3.307-20.102,9.152V22.303c0-1.938-1.627-3.52-3.626-3.52
			c-1.908,0-3.518,1.612-3.518,3.52v72.645c0,1.908,1.608,3.518,3.518,3.518c1.999,0,3.626-1.58,3.626-3.518v-5.528
			c5.114,5.776,12.313,9.046,20.102,9.046c15.024,0,27.248-12.574,27.248-28.031C498.804,54.854,486.582,42.182,471.556,42.182z
			 M471.556,91.313c-11.085,0-20.102-9.371-20.102-20.881V69.57c0.433-11.353,9.265-20.243,20.102-20.243
			c11.082,0,20.103,9.47,20.103,21.104C491.659,81.941,482.64,91.313,471.556,91.313z"/>
		<path fill="#404041" d="M514.626,42.182c-1.976,0-3.52,1.545-3.52,3.517v49.246c0,1.908,1.609,3.519,3.52,3.519
			c1.999,0,3.627-1.58,3.627-3.519V45.699C518.253,43.692,516.696,42.182,514.626,42.182z"/>
		<path fill="#404041" d="M537.146,18.783c-1.906,0-3.518,1.612-3.518,3.52v72.645c0,1.908,1.61,3.518,3.518,3.518
			c2,0,3.625-1.58,3.625-3.518V22.303C540.771,20.363,539.146,18.783,537.146,18.783z"/>
		<path fill="#404041" d="M608.023,68.361c-1.17-14.928-12.834-26.18-27.133-26.18c-15.089,0-27.361,12.672-27.361,28.25
			c0,15.457,12.274,28.031,27.361,28.031c9.246,0,17.762-4.771,22.786-12.789c0.965-1.665,0.492-3.723-1.188-4.939
			c-0.529-0.317-1.145-0.487-1.781-0.487c-1.236,0-2.338,0.627-2.943,1.669c-3.516,5.869-9.982,9.511-16.876,9.511
			c-10.589,0-19.332-8.395-20.271-19.263h43.887c1.972,0,3.518-1.443,3.518-3.293L608.023,68.361z M580.892,49.216
			c9.351,0,17.389,6.679,19.47,16.026H561.1C563.384,55.754,571.386,49.216,580.892,49.216z"/>
		<path fill="#404041" d="M514.681,25.109c-2.349,0-4.257,1.913-4.257,4.258c0,2.348,1.908,4.258,4.257,4.258
			c2.347,0,4.257-1.911,4.257-4.258C518.938,27.022,517.026,25.109,514.681,25.109z"/>
	</g>
</g>
<radialGradient id="SVGID_1_" cx="286.4775" cy="-341.7124" r="107.4619" gradientTransform="matrix(1.087 0 0 -1.087 -254.9318 -377.1472)" gradientUnits="userSpaceOnUse">
	<stop  offset="0.3" style="stop-color:#FFD400"/>
	<stop  offset="0.5106" style="stop-color:#F99F1B"/>
	<stop  offset="0.7471" style="stop-color:#F26822"/>
	<stop  offset="0.9162" style="stop-color:#EF3924"/>
	<stop  offset="1" style="stop-color:#ED1C24"/>
</radialGradient>
<path fill="url(#SVGID_1_)" d="M106.929,38.817C100.91,27.961,90.622,20.893,87.71,19.231c-1.556-0.944-4.166-2.306-4.166-2.306
	s-25.285-14.52-54.461,1.776c-29.17,16.293-36.584,56.076-13.32,81.857c23.26,25.78,59.954,21.258,77.202,6.728
	C113.029,90.396,121.713,65.482,106.929,38.817z M58.173,96.693c-18.114,0-32.798-14.187-32.798-31.688
	c0-17.494,14.684-31.679,32.798-31.679c18.114,0,32.798,14.186,32.798,31.679C90.972,82.508,76.287,96.693,58.173,96.693z"/>
<g>
	
		<linearGradient id="SVGID_2_" gradientUnits="userSpaceOnUse" x1="331.6943" y1="-469.4238" x2="310.1734" y2="-430.5989" gradientTransform="matrix(1 0 0 -1 -228 -403.5)">
		<stop  offset="0" style="stop-color:#FFFFFF;stop-opacity:0"/>
		<stop  offset="0.0848" style="stop-color:#F3F3F4;stop-opacity:0"/>
		<stop  offset="0.2318" style="stop-color:#DBDCDE;stop-opacity:0"/>
		<stop  offset="0.4235" style="stop-color:#B5B7B9;stop-opacity:0.1"/>
		<stop  offset="0.6525" style="stop-color:#848588;stop-opacity:0.4"/>
		<stop  offset="0.9124" style="stop-color:#414042"/>
	</linearGradient>
	<path fill="url(#SVGID_2_)" d="M91.562,21.895L72.973,36.721c18.062,9.66,19.872,26.735,16.759,36.943l23.865-16.471
		C110.006,38.379,99.607,27.61,91.562,21.895z"/>
</g>
<linearGradient id="SVGID_3_" gradientUnits="userSpaceOnUse" x1="344.2861" y1="-419.1445" x2="260.382" y2="-433.9391" gradientTransform="matrix(1 0 0 -1 -228 -403.5)">
	<stop  offset="0" style="stop-color:#F15A22"/>
	<stop  offset="0.8" style="stop-color:#FFDD00"/>
</linearGradient>
<polygon fill="url(#SVGID_3_)" points="116.219,2.229 72.907,36.721 72.907,12.876 "/>
<g>
	<path fill="#404041" d="M616.3,44.717h-3.576v-1.291h8.701v1.291h-3.593v10.466h-1.534L616.3,44.717L616.3,44.717z"/>
	<path fill="#404041" d="M632.605,50.02c-0.089-1.639-0.19-3.629-0.19-5.076h-0.037c-0.418,1.362-0.89,2.844-1.479,4.466
		l-2.077,5.704h-1.154l-1.916-5.6c-0.561-1.673-1.013-3.174-1.343-4.57h-0.036c-0.037,1.466-0.122,3.42-0.228,5.198l-0.314,5.042
		h-1.444l0.816-11.757h1.936l2.011,5.688c0.485,1.448,0.87,2.738,1.185,3.959h0.036c0.313-1.185,0.729-2.476,1.256-3.959
		l2.092-5.688h1.937l0.734,11.757h-1.501L632.605,50.02z"/>
</g>
</svg>
