<?xml version="1.0" encoding="iso-8859-1"?>
<!-- Generator: Adobe Illustrator 18.1.1, SVG Export Plug-In . SVG Version: 6.00 Build 0)  -->
<svg version="1.1" id="Capa_1" xmlns="http://www.w3.org/2000/svg" xmlns:xlink="http://www.w3.org/1999/xlink" x="0px" y="0px"
	 viewBox="0 0 301.587 301.587" style="enable-background:new 0 0 301.587 301.587;" xml:space="preserve">
<g>
	<g id="Layer_5_26_">
		<g>
			<g>
				<path d="M237.118,273.621c-2.208,0-4.016-1.808-4.016-4.017V157.842c0-2.209,1.808-4.015,4.016-4.015h37.02
					c0,0,10.354,0.749,10.354-9.918c0-33.132,0-130.524,0-130.524C284.492,6.024,278.468,0,271.107,0H99.106
					c-7.362,0-13.385,6.023-13.385,13.385v274.816c0,7.362,6.023,13.386,13.385,13.386h172.001c7.361,0,13.385-6.023,13.385-13.386
					c0,0,0-4.217,0-5.623c0-9.667-8.354-8.957-8.354-8.957H237.118L237.118,273.621z"/>
			</g>
			<path d="M53.903,0H30.481C23.12,0,17.096,6.023,17.096,13.385v274.816c0,7.362,6.024,13.386,13.385,13.386h23.421
				c7.362,0,13.385-6.023,13.385-13.386V13.385C67.287,6.023,61.264,0,53.903,0z"/>
			<path d="M284.492,198.991c0,2.75-2.25,5-5,5h-24.521c-2.75,0-5-2.25-5-5v-23.703c0-2.75,2.25-5,5-5h24.521c2.75,0,5,2.25,5,5
				V198.991z"/>
			<path d="M284.492,251.992c0,2.75-2.25,5-5,5h-24.521c-2.75,0-5-2.25-5-5v-23.703c0-2.75,2.25-5,5-5h24.521c2.75,0,5,2.25,5,5
				V251.992z"/>
		</g>
	</g>
</g>
<g>
</g>
<g>
</g>
<g>
</g>
<g>
</g>
<g>
</g>
<g>
</g>
<g>
</g>
<g>
</g>
<g>
</g>
<g>
</g>
<g>
</g>
<g>
</g>
<g>
</g>
<g>
</g>
<g>
</g>
</svg>
