<?xml version="1.0" encoding="iso-8859-1"?>
<!-- Generator: Adobe Illustrator 18.1.1, SVG Export Plug-In . SVG Version: 6.00 Build 0)  -->
<svg version="1.1" id="Capa_1" xmlns="http://www.w3.org/2000/svg" xmlns:xlink="http://www.w3.org/1999/xlink" x="0px" y="0px"
	 viewBox="0 0 330 330" style="enable-background:new 0 0 330 330;" xml:space="preserve">
<g>
	<g id="Layer_5_93_">
		<g>
			<path d="M70.519,110.277c0,5.447-4.457,9.906-9.905,9.906H23.515c-5.448,0-9.905-4.459-9.905-9.906V87
				c0-5.449,4.457-9.906,9.905-9.906h37.099c5.448,0,9.905,4.457,9.905,9.906V110.277z"/>
			<path d="M69.347,242.643c0,5.279-4.32,9.6-9.601,9.6H24.384c-5.281,0-9.601-4.32-9.601-9.6V220.08
				c0-5.281,4.32-9.602,9.601-9.602h35.362c5.281,0,9.601,4.32,9.601,9.602V242.643z"/>
			<path d="M298.39,0H48.384c-9.9,0-18,8.1-18,18v32.31c0,0,0,8.192,7.5,8.192c6.859,0,27.437,0,27.437,0
				c14.644,0,26.557,11.914,26.557,26.557v27.16c0,14.643-11.914,26.557-26.557,26.557c0,0-20.578,0-27.437,0
				c-7.5,0-7.5,7.536-7.5,7.536v33.245c0,0-1,11.668,10.25,11.668c6.172,0,24.687,0,24.687,0c14.644,0,26.557,11.912,26.557,26.557
				v27.158c0,14.645-11.914,26.557-26.557,26.557c0,0-18.515,0-24.687,0c-10.273,0-10.25,9.313-10.25,9.313V312c0,9.9,8.1,18,18,18
				H298.39c9.9,0,18-8.1,18-18V18C316.39,8.1,308.29,0,298.39,0z M248.897,236.627l-8.161,4.603l-0.104-0.163
				c-3.287,1.41-6.909,2.352-10.621,2.768c-3.458,0.377-6.746,0.325-10.057-0.154c-1.523-0.228-36.595-6.168-67.721-59.947
				c-22.504-38.917-27.784-64.57-18.178-88.535c1.165-2.992,2.759-5.869,4.848-8.776c2.231-3.032,4.854-5.706,7.717-7.866
				l-0.118-0.217l8.08-4.71c5.924-3.426,13.429-1.572,16.712,4.13l16.59,28.671c3.299,5.696,1.17,13.114-4.741,16.544l-4.772,2.762
				l-7.608,4.396c-1.711,1.067-1.735,2.552-1.554,3.259c0.04,0.153,0.08,0.307,0.12,0.462c2.07,8.269,4.905,19.599,12.527,32.78
				c7.219,12.478,15.14,20.39,21.175,26.227c0.323,0.313,0.641,0.619,0.952,0.92c0.667,0.646,2.401,1.836,4.808,0.174l11.55-6.683
				c5.908-3.418,13.4-1.566,16.714,4.123l16.58,28.671C256.925,225.774,254.795,233.193,248.897,236.627z"/>
		</g>
	</g>
</g>
<g>
</g>
<g>
</g>
<g>
</g>
<g>
</g>
<g>
</g>
<g>
</g>
<g>
</g>
<g>
</g>
<g>
</g>
<g>
</g>
<g>
</g>
<g>
</g>
<g>
</g>
<g>
</g>
<g>
</g>
</svg>
