<?xml version="1.0" encoding="iso-8859-1"?>
<!-- Generator: Adobe Illustrator 18.1.1, SVG Export Plug-In . SVG Version: 6.00 Build 0)  -->
<svg version="1.1" id="Capa_1" xmlns="http://www.w3.org/2000/svg" xmlns:xlink="http://www.w3.org/1999/xlink" x="0px" y="0px"
	 viewBox="0 0 357.864 357.864" style="enable-background:new 0 0 357.864 357.864;" xml:space="preserve">
<g>
	<g id="Layer_5_35_">
		<g>
			<path d="M112.72,204.945H86.7c-5.5,0-10,4.5-10,10v32.901c0,5.5,4.5,10,10,10h26.02c5.5,0,10-4.5,10-10v-32.901
				C122.72,209.445,118.22,204.945,112.72,204.945z"/>
			<g>
				<g>
					<g>
						<path d="M329.839,285.97c0,1.52-1.242,2.764-2.764,2.764h-93.27c-1.521,0-2.764-1.244-2.764-2.764v-1.842
							c0-1.52,1.242-2.763,2.764-2.763h93.27c1.522,0,2.764,1.243,2.764,2.763V285.97z"/>
					</g>
					<g>
						<path d="M272.812,209.411c0,1.519-1.242,2.764-2.764,2.764h-36.242c-1.521,0-2.764-1.245-2.764-2.764v-1.843
							c0-1.521,1.242-2.765,2.764-2.765h36.242c1.521,0,2.764,1.244,2.764,2.765V209.411z"/>
					</g>
					<g>
						<path d="M328.441,311.491c0,1.52-1.242,2.763-2.765,2.763h-36.24c-1.523,0-2.765-1.243-2.765-2.763v-1.843
							c0-1.52,1.242-2.765,2.765-2.765h36.24c1.522,0,2.765,1.244,2.765,2.765V311.491z"/>
					</g>
					<g>
						<path d="M292.026,234.93c0,1.521-1.243,2.765-2.763,2.765h-55.457c-1.521,0-2.764-1.244-2.764-2.765v-1.842
							c0-1.521,1.242-2.764,2.764-2.764h55.457c1.52,0,2.763,1.243,2.763,2.764V234.93z"/>
					</g>
					<g>
						<path d="M329.839,260.45c0,1.52-1.242,2.764-2.764,2.764h-93.27c-1.521,0-2.764-1.244-2.764-2.764v-1.842
							c0-1.521,1.242-2.765,2.764-2.765h93.27c1.522,0,2.764,1.244,2.764,2.765V260.45z"/>
					</g>
				</g>
				<path d="M350.686,208.962l-46.835-38.515c-3.876-3.191-10.588-5.596-15.608-5.596H214.57c-6.368,0-11.552,5.182-11.552,11.551
					c0,0,0,124.317,0,158.538c0,11.897,11.253,11.897,11.52,11.897c28.613,0,131.774,0,131.774,0c6.37,0,11.552-5.182,11.552-11.553
					V224.16C357.865,218.862,354.778,212.328,350.686,208.962z M300.65,182.299c0-2.83,2.344-0.659,2.344-0.659l37.123,31.719
					c0,0,2.375,2.337-1.696,2.337c-8.694,0-34.772,0-34.772,0c-1.654,0-2.998-1.344-2.998-2.998
					C300.65,212.697,300.65,189.898,300.65,182.299z M346.313,338.282c0,0-105.985,0-132.584,0c-0.474,0-2.156-0.136-2.156-2.475
					c0-32.205,0-159.405,0-159.405c0-1.624,1.374-2.996,2.997-2.996h73.673c1.248,0,3.853,0.662,3.853,4.226v35.065
					c0,6.37,5.183,11.553,11.553,11.553h43.52c0.793,0,2.139,0.546,2.139,2.468c0,0.03,0.005,108.567,0.005,108.567
					C349.311,336.94,347.965,338.282,346.313,338.282z"/>
			</g>
			<path d="M185.687,318.544c0-2.25-2.361-1.892-2.361-1.892H39.529c-4.246,0-7.699-3.454-7.699-7.7v-75.745
				c0,0-0.15-1.811,1.641-1.811c6.875,0,17.498,0,17.498,0s3.926,0,3.926-3.272c0-4.638,0-17.277,0-17.277
				c0-9.735-1.089-27.706,17.701-27.706h54.232c16.978,0,17.699,17.971,17.699,27.706c0,0,0,12.807,0,17.444
				c0,3.105,3.533,3.105,3.533,3.105s23.891,0,34.745,0c3.167,0,2.882-3.866,2.882-3.866v-58.701
				c0-12.651,10.293-22.943,22.944-22.943h82.554c7.926,0,17.731,3.516,23.847,8.551c0,0,27.136,22.156,36.076,29.667
				c0.714,0.6,2.897,2.484,2.897-2.35c0-27.709,0-110.835,0-110.835c0-9.735-7.967-17.7-17.701-17.7h-72.875
				c0,0-1.496,0.176-1.496-1c0-5.299,0-21.192,0-21.192c0-11.028-8.973-20-20-20H112.07c-11.027,0-20,8.972-20,20
				c0,0,0,15.261,0,20.349c0,1.832-1.434,1.844-1.434,1.844H17.699C7.965,53.22,0,61.185,0,70.92v142.778
				c0,6.387,3.434,12,8.545,15.109c1.031,0.627,3.285,1.275,3.285,4.025v76.121c0,15.273,12.426,27.7,27.699,27.7
				c0,0,108.27,0,144.359,0c1.938,0,1.799-1.774,1.799-1.774S185.687,323.071,185.687,318.544z M112.07,32.394
				c0-1.416,1.359-1.368,1.359-1.368h127.25c0,0,1.254,0.056,1.254,1.723c0,4.259,0,15.24,0,19.47c0,1.113-1.629,1.002-1.629,1.002
				l-126.793,0.153c0,0-1.441,0.208-1.441-2.167C112.07,47,112.07,36.009,112.07,32.394z"/>
		</g>
	</g>
</g>
<g>
</g>
<g>
</g>
<g>
</g>
<g>
</g>
<g>
</g>
<g>
</g>
<g>
</g>
<g>
</g>
<g>
</g>
<g>
</g>
<g>
</g>
<g>
</g>
<g>
</g>
<g>
</g>
<g>
</g>
</svg>
