<?xml version="1.0" encoding="iso-8859-1"?>
<!-- Generator: Adobe Illustrator 18.1.1, SVG Export Plug-In . SVG Version: 6.00 Build 0)  -->
<svg version="1.1" id="Capa_1" xmlns="http://www.w3.org/2000/svg" xmlns:xlink="http://www.w3.org/1999/xlink" x="0px" y="0px"
	 viewBox="0 0 412.886 412.886" style="enable-background:new 0 0 412.886 412.886;" xml:space="preserve">
<g>
	<g id="Layer_5_37_">
		<g>
			<g>
				<path d="M73.172,133.367c0-2.691,2.201-4.895,4.893-4.895h252.824c2.693,0,4.893,2.203,4.893,4.895v3.261
					c0,2.691-2.2,4.894-4.893,4.894H78.065c-2.691,0-4.893-2.202-4.893-4.894V133.367z"/>
			</g>
			<g>
				<path d="M73.316,231.856c0-2.691,2.201-4.895,4.893-4.895h98.188c2.693,0,4.894,2.203,4.894,4.895v3.261
					c0,2.691-2.2,4.894-4.894,4.894H78.209c-2.691,0-4.893-2.202-4.893-4.894V231.856z"/>
			</g>
			<g>
				<path d="M73.172,182.612c0-2.691,2.201-4.895,4.893-4.895h252.824c2.693,0,4.893,2.203,4.893,4.895v3.262
					c0,2.691-2.2,4.893-4.893,4.893H78.065c-2.691,0-4.893-2.201-4.893-4.893V182.612z"/>
			</g>
			<path d="M406.909,325.395c-2.585-4.297-5.516-9.163-7.157-15.339c-1.418-5.338-0.261-7.245,2.535-11.855
				c2.893-4.77,6.853-11.301,6.853-21.899c0-11.024-3.153-16.988-5.687-21.782c-2.058-3.895-3.545-6.708-3.545-13.153
				c0-6.444,1.487-9.259,3.545-13.153c2.534-4.793,5.687-10.759,5.687-21.781c0-11.023-3.153-16.989-5.687-21.782
				c-2.058-3.895-3.545-6.709-3.545-13.153c0-6.443,1.487-9.258,3.545-13.153c2.534-4.792,5.687-10.756,5.687-21.78
				c0-11.021-3.153-16.987-5.687-21.78c-2.058-3.893-3.545-6.706-3.545-13.147c0-4.732,2.796-9.293,5.754-14.121
				c4.481-7.307,12.818-20.905-2.147-31.951c-5.871-4.332-11.597-6.438-17.51-6.438c-7.513,0-13.437,3.348-19.167,6.586
				c-5.801,3.28-11.28,6.377-18.868,6.377c-10.094,0-14.826-1.846-20.305-3.984c-6.305-2.46-13.45-5.248-27.019-5.248
				c-13.565,0-20.71,2.788-27.014,5.25c-5.477,2.137-10.208,3.982-20.299,3.982c-10.092,0-14.824-1.846-20.303-3.984
				c-6.303-2.46-13.447-5.248-27.014-5.248c-13.567,0-20.711,2.788-27.014,5.25c-5.479,2.137-10.21,3.982-20.301,3.982
				c-10.091,0-14.823-1.846-20.302-3.984c-6.304-2.46-13.447-5.248-27.013-5.248c-13.565,0-20.707,2.788-27.011,5.25
				c-5.477,2.137-10.207,3.982-20.297,3.982c-7.587,0-13.066-3.097-18.866-6.377c-5.73-3.238-11.653-6.588-19.166-6.588
				c-5.912,0-11.64,2.107-17.509,6.44C-6.426,66.619,1.911,80.217,6.391,87.522c2.96,4.83,5.757,9.391,5.757,14.124
				c0,6.446-1.488,9.261-3.547,13.155c-2.534,4.795-5.686,10.76-5.686,21.786c0,11.022,3.153,16.988,5.686,21.78
				c2.059,3.896,3.547,6.711,3.547,13.154c0,6.444-1.488,9.258-3.546,13.152c-2.533,4.795-5.687,10.759-5.687,21.783
				c0,11.023,3.153,16.988,5.686,21.78c2.059,3.895,3.547,6.71,3.547,13.153s-1.488,9.258-3.547,13.153
				c-2.532,4.793-5.686,10.758-5.686,21.78c0,11.023,3.153,16.988,5.687,21.78c2.058,3.894,3.546,6.707,3.546,13.148
				c0,4.732-2.796,9.292-5.756,14.12c-4.48,7.308-12.817,20.906,2.148,31.951c5.871,4.333,11.599,6.439,17.512,6.438
				c7.511,0,13.436-3.35,19.164-6.588c5.802-3.279,11.281-6.376,18.869-6.376c10.092,0,14.826,1.846,20.305,3.984
				c6.305,2.459,13.45,5.248,27.018,5.248c13.567,0,20.711-2.789,27.013-5.248c5.48-2.139,10.211-3.984,20.302-3.984
				c10.092,0,14.824,1.846,20.302,3.984c6.305,2.459,13.449,5.248,27.016,5.248s20.711-2.789,27.013-5.248
				c5.48-2.139,10.211-3.984,20.302-3.984c10.091,0,14.822,1.846,20.302,3.984c6.302,2.459,13.447,5.248,27.013,5.248
				c13.565,0,20.707-2.789,27.01-5.248c5.478-2.139,10.209-3.984,20.298-3.984c7.587,0,13.064,3.097,18.864,6.376
				c5.729,3.239,11.654,6.589,19.168,6.589c5.912,0,11.64-2.107,17.508-6.439C419.172,345.762,411.497,333.01,406.909,325.395z
				 M382.45,316.873c0,5.713-4.675,10.387-10.387,10.387H39.991c-5.713,0-10.387-4.674-10.387-10.387V96.013
				c0-5.713,4.674-10.387,10.387-10.387h332.072c5.712,0,10.387,4.674,10.387,10.387V316.873z"/>
			<path d="M329.782,254.915c0,2.911-4.73,5.252-5.348,7.975c-0.64,2.813,2.591,6.969,1.367,9.506
				c-1.246,2.579-6.521,2.637-8.291,4.853c-1.777,2.225-0.667,7.381-2.892,9.158c-2.216,1.768-6.993-0.454-9.571,0.791
				c-2.538,1.224-3.769,6.355-6.581,6.995c-2.723,0.618-6.052-3.457-8.963-3.457s-6.24,4.076-8.963,3.457
				c-2.813-0.64-4.043-5.772-6.581-6.995c-2.579-1.245-7.356,0.977-9.571-0.791c-2.227-1.777-1.116-6.933-2.893-9.159
				c-1.769-2.215-7.045-2.272-8.29-4.852c-1.224-2.537,2.007-6.693,1.367-9.506c-0.619-2.723-5.348-5.064-5.348-7.975
				c0-2.911,4.729-5.252,5.348-7.976c0.64-2.813-2.591-6.969-1.367-9.507c1.245-2.578,6.521-2.637,8.29-4.852
				c1.778-2.227,0.667-7.381,2.893-9.158c2.215-1.77,6.992,0.453,9.572-0.791c2.537-1.225,3.768-6.355,6.58-6.996
				c2.723-0.617,6.052,3.458,8.963,3.458s6.24-4.075,8.963-3.458c2.812,0.641,4.043,5.771,6.581,6.997
				c2.58,1.244,7.357-0.979,9.571,0.79c2.226,1.777,1.116,6.933,2.892,9.159c1.77,2.216,7.046,2.273,8.291,4.851
				c1.224,2.538-2.007,6.694-1.367,9.507C325.052,249.663,329.782,252.004,329.782,254.915z"/>
		</g>
	</g>
</g>
<g>
</g>
<g>
</g>
<g>
</g>
<g>
</g>
<g>
</g>
<g>
</g>
<g>
</g>
<g>
</g>
<g>
</g>
<g>
</g>
<g>
</g>
<g>
</g>
<g>
</g>
<g>
</g>
<g>
</g>
</svg>
