<?xml version="1.0" encoding="iso-8859-1"?>
<!-- Generator: Adobe Illustrator 18.1.1, SVG Export Plug-In . SVG Version: 6.00 Build 0)  -->
<svg version="1.1" id="Capa_1" xmlns="http://www.w3.org/2000/svg" xmlns:xlink="http://www.w3.org/1999/xlink" x="0px" y="0px"
	 viewBox="0 0 372.287 372.287" style="enable-background:new 0 0 372.287 372.287;" xml:space="preserve">
<g>
	<g id="Layer_5_60_">
		<g>
			<path d="M296.532,165.095h-16.586c-5.154,0-9.333,4.178-9.333,9.333s4.179,9.333,9.333,9.333c0,0,1.564,0.229,1.37,1.395
				c-0.993,5.973-2.985,24.033-2.985,24.033c-0.775,6.241-3.603,11.538-6.645,14.36c-1.53,1.42-1.667-0.122-1.667-0.122
				c0-9.35-7.649-17-17-17H119.266c-9.35,0-17,7.65-17,17c0,0-0.194,1.5-1.919-0.119c-3.002-2.817-5.638-8.051-6.392-14.12
				c0,0-1.993-18.061-2.986-24.033c-0.193-1.166,1.37-1.395,1.37-1.395c5.154,0,9.333-4.179,9.333-9.333
				c0-5.155-4.179-9.333-9.333-9.333H75.753c-5.154,0-9.333,4.178-9.333,9.333s4.179,9.333,9.333,9.333c0,0,2.96,0.084,3.154,1.642
				c0.791,6.316,3.14,25.265,3.14,25.265c1.511,12.164,8.289,22.213,16.583,25.736c0.512,0.217,1.02,0.442,1.551,0.576
				c2.1,0.53,2.085,3.114,2.085,3.114c0,9.35,7.65,17,17,17h53.104c0,0,3.773,0,3.773,3.083c0,17.375,0,69.5,0,69.5
				c0,1.417-1.021,1.459-1.528,1.494c-36.959,2.574-64.311,17.435-67.625,37.073c-0.224,1.327-0.62,4.044,1.88,4.044h12.666
				c1.667,0,2.244-2.585,2.94-3.935c4.4-8.541,22.397-18.166,49.898-20.354c0.585-0.046,1.769-0.322,1.769,1.24v20.271
				c0,0-0.086,2.778,2,2.778c4,0,12,0,16,0c2.102,0,2-2.861,2-2.861v-20.188c0-1.438,0.862-1.31,1.291-1.277
				c28.668,2.183,47.115,12.436,50.762,21.221c0.44,1.062,1.174,3.105,3.674,3.105h10.833c3.167,0,2.817-2.717,2.594-4.044
				c-3.311-19.613-30.597-34.461-67.485-37.063c-0.554-0.039-1.668-0.17-1.668-1.504c0,0,0-52.125,0-69.5
				c0-2.916,3.727-3.083,3.727-3.083h53.149c9.351,0,17-7.65,17-17c0,0-0.134-2.417,1.588-2.963
				c9.127-2.895,16.998-13.311,18.632-26.463c0,0,2.349-18.949,3.139-25.265c0.195-1.559,3.154-1.642,3.154-1.642
				c5.154,0,9.334-4.179,9.334-9.333C305.866,169.273,301.686,165.095,296.532,165.095z"/>
			<path d="M272.907,27.64C267.194,12.037,230.514,0,186.111,0c-44.859,0-81.835,12.286-86.961,28.122
				c-0.965,2.274-1.364,4.868-1.04,7.619l15.354,130.516c1.047,8.896,9.231,16.175,18.189,16.175h108.98
				c8.957,0,17.143-7.279,18.189-16.175l15.355-130.516C274.524,32.792,274.03,30.028,272.907,27.64z"/>
		</g>
	</g>
</g>
<g>
</g>
<g>
</g>
<g>
</g>
<g>
</g>
<g>
</g>
<g>
</g>
<g>
</g>
<g>
</g>
<g>
</g>
<g>
</g>
<g>
</g>
<g>
</g>
<g>
</g>
<g>
</g>
<g>
</g>
</svg>
