<?xml version="1.0" encoding="iso-8859-1"?>
<!-- Generator: Adobe Illustrator 18.1.1, SVG Export Plug-In . SVG Version: 6.00 Build 0)  -->
<svg version="1.1" id="Capa_1" xmlns="http://www.w3.org/2000/svg" xmlns:xlink="http://www.w3.org/1999/xlink" x="0px" y="0px"
	 viewBox="0 0 346.967 346.967" style="enable-background:new 0 0 346.967 346.967;" xml:space="preserve">
<g>
	<g id="Layer_5_79_">
		<g>
			<path d="M197.124,265.561c-4.484,4.834-12.49,5.582-17.791,1.662l-84.321-62.351c-5.301-3.92-6.393-11.435-2.428-16.703
				l10.817-14.363c3.966-5.267,11.56-6.385,16.876-2.484L174.348,211c5.315,3.9,13.332,3.136,17.814-1.699l120.907-129.74
				c4.482-4.835,12.099-5.116,16.925-0.624l13.162,12.25c4.826,4.492,5.106,12.122,0.623,16.956L197.124,265.561z"/>
			<path d="M285.271,213.226c0,17.635,0,70.537,0,70.537c0,10.137-8.293,18.43-18.43,18.43H37.945
				c-10.137,0-18.43-8.293-18.43-18.43V63.203c0-10.137,8.293-18.431,18.43-18.431h228.896c10.137,0,18.43,8.294,18.43,18.431
				c0,0,0,8.249,0,10.999c0,6.505,4.795,1.46,4.795,1.46s9.188-8.642,11.624-10.945c0.991-0.938,3.095-2.892,3.095-6.686V43.688
				c0-10.136-8.293-18.43-18.43-18.43H18.431C8.294,25.258,0,33.552,0,43.688v259.59c0,10.136,8.294,18.43,18.431,18.43h267.924
				c10.137,0,18.43-8.294,18.43-18.43c0,0,0-83.316,0-111.089c0-5.149-4.21-0.593-4.21-0.593s-8.275,9.258-12.352,13.162
				C286.604,206.309,285.271,208.179,285.271,213.226z"/>
		</g>
	</g>
</g>
<g>
</g>
<g>
</g>
<g>
</g>
<g>
</g>
<g>
</g>
<g>
</g>
<g>
</g>
<g>
</g>
<g>
</g>
<g>
</g>
<g>
</g>
<g>
</g>
<g>
</g>
<g>
</g>
<g>
</g>
</svg>
