<?xml version="1.0" encoding="iso-8859-1"?>
<!-- Generator: Adobe Illustrator 18.1.1, SVG Export Plug-In . SVG Version: 6.00 Build 0)  -->
<svg version="1.1" id="Capa_1" xmlns="http://www.w3.org/2000/svg" xmlns:xlink="http://www.w3.org/1999/xlink" x="0px" y="0px"
	 viewBox="0 0 342.635 342.635" style="enable-background:new 0 0 342.635 342.635;" xml:space="preserve">
<g>
	<g id="Layer_5_23_">
		<g>
			<path d="M171.317,0C76.702,0,0,76.702,0,171.317s76.703,171.318,171.317,171.318c94.617,0,171.318-76.701,171.318-171.317
				S265.934,0,171.317,0z M189.817,305.658v-6.732c0-10.217-8.283-18.5-18.5-18.5c-10.216,0-18.499,8.283-18.499,18.5v6.732
				c0,2.375-2.013,2.207-3.014,2.049C90.574,298.4,43.726,251.306,34.793,191.954c-0.106-0.71-0.475-2.135,2.192-2.135h6.76
				c10.218,0,18.5-8.283,18.5-18.5c0-10.217-8.282-18.5-18.5-18.5h-6.76c-2.917,0-2.238-1.857-2.095-2.78
				C44.18,89.995,91.024,42.809,151.457,34.68c0,0,1.359-0.396,1.359,1.604c0,1.874,0,7.498,0,7.498
				c0,10.217,8.283,18.5,18.499,18.5c10.217,0,18.5-8.283,18.5-18.5c0,0,0-5.499,0-7.332c0-1.75,1-1.822,1-1.822
				c60.811,8.18,108.215,55.955,117.096,116.535c0.082,0.551,0.406,1.655-1.719,1.655h-7.305c-10.217,0-18.5,8.283-18.5,18.5
				c0,10.217,8.283,18.5,18.5,18.5l7.055,0.073c2.125,0,2.068,0.905,1.996,1.393c-8.707,59.855-55.951,107.38-115.67,116.511
				C191.454,307.918,189.817,308.158,189.817,305.658z"/>
			<path d="M263.522,91.399c-3.525-3.885-9.533-4.179-13.42-0.653l-69.346,62.911c-1.272,1.083-1.822,0.622-2.209,0.467
				c-2.236-0.9-4.672-1.407-7.23-1.407c-4.367,0-8.388,1.448-11.636,3.877c-0.464,0.347-1.55,1.251-2.783,0.521L107.97,137.43
				c-6.488-2.795-14.014,0.201-16.807,6.688c-2.795,6.488,0.2,14.013,6.689,16.807l57.305,23.055
				c0.995,0.261,1.567,1.161,1.919,1.538c3.558,3.81,8.617,6.199,14.242,6.199c10.77,0,19.5-8.73,19.5-19.5
				c0-0.657,0.065-2.122,0.994-2.936l71.057-64.463C266.755,101.293,267.048,95.285,263.522,91.399z"/>
		</g>
	</g>
</g>
<g>
</g>
<g>
</g>
<g>
</g>
<g>
</g>
<g>
</g>
<g>
</g>
<g>
</g>
<g>
</g>
<g>
</g>
<g>
</g>
<g>
</g>
<g>
</g>
<g>
</g>
<g>
</g>
<g>
</g>
</svg>
