<?xml version="1.0" encoding="iso-8859-1"?>
<!-- Generator: Adobe Illustrator 18.1.1, SVG Export Plug-In . SVG Version: 6.00 Build 0)  -->
<svg version="1.1" id="Capa_1" xmlns="http://www.w3.org/2000/svg" xmlns:xlink="http://www.w3.org/1999/xlink" x="0px" y="0px"
	 viewBox="0 0 348.176 348.176" style="enable-background:new 0 0 348.176 348.176;" xml:space="preserve">
<g>
	<g id="Layer_5_50_">
		<g>
			<path d="M336.545,265.178H11.631c-5.615,0-10.209,4.594-10.209,10.209v62.58c0,5.615,4.594,10.209,10.209,10.209h324.914
				c5.615,0,10.209-4.594,10.209-10.209v-62.58C346.754,269.772,342.16,265.178,336.545,265.178z M315.082,302.329
				c0,3.85-3.15,7-7,7h-70c-3.85,0-7-3.15-7-7v-9c0-3.85,3.15-7,7-7h70c3.85,0,7,3.15,7,7V302.329z"/>
			<g>
				<path d="M315.227,0H32.949c-6.953,0-12.645,5.689-12.645,12.644v90.584v43.536v83.391c0,6.954,5.691,12.645,12.645,12.645
					h282.277c6.953,0,12.643-5.69,12.643-12.645V12.644C327.869,5.69,322.18,0,315.227,0z M309.258,180.807
					c0,6.954-5.689,12.644-12.645,12.644H51.561c-6.955,0-12.645-5.69-12.645-12.644V33.544c0-6.954,5.689-12.644,12.645-12.644
					h245.053c6.955,0,12.645,5.69,12.645,12.644L309.258,180.807L309.258,180.807z"/>
				<g>
					<path d="M66.608,89.201c-2.33,0-4.631-1.066-6.123-3.083c-2.502-3.379-1.791-8.146,1.588-10.648l41.982-31.084
						c3.381-2.501,8.146-1.791,10.65,1.588c2.5,3.379,1.789,8.146-1.59,10.648L71.131,87.707
						C69.77,88.715,68.182,89.201,66.608,89.201z"/>
				</g>
				<g>
					<path d="M70.756,129.152c-2.387,0-4.734-1.118-6.219-3.213c-2.43-3.43-1.617-8.182,1.813-10.611l89.959-63.714
						c3.432-2.429,8.18-1.619,10.611,1.813c2.43,3.431,1.617,8.182-1.813,10.612l-89.959,63.714
						C73.813,128.698,72.277,129.152,70.756,129.152z"/>
				</g>
			</g>
		</g>
	</g>
</g>
<g>
</g>
<g>
</g>
<g>
</g>
<g>
</g>
<g>
</g>
<g>
</g>
<g>
</g>
<g>
</g>
<g>
</g>
<g>
</g>
<g>
</g>
<g>
</g>
<g>
</g>
<g>
</g>
<g>
</g>
</svg>
