<?xml version="1.0" encoding="iso-8859-1"?>
<!-- Generator: Adobe Illustrator 18.1.1, SVG Export Plug-In . SVG Version: 6.00 Build 0)  -->
<svg version="1.1" id="Capa_1" xmlns="http://www.w3.org/2000/svg" xmlns:xlink="http://www.w3.org/1999/xlink" x="0px" y="0px"
	 viewBox="0 0 346.164 346.164" style="enable-background:new 0 0 346.164 346.164;" xml:space="preserve">
<g>
	<g id="Layer_5_98_">
		<g>
			<circle cx="173.082" cy="248.413" r="14.003"/>
			<g>
				<path d="M210.979,193.111c32.374,0,58.62-25.975,58.62-58.02c0-32.039-26.246-58.016-58.62-58.016
					c-32.379,0-58.622,25.977-58.622,58.016C152.356,167.137,178.6,193.111,210.979,193.111z"/>
			</g>
			<path d="M323.395,335.404L284.31,232.093c-0.993-2.621-9.402-19.928-25.013-19.928c-4.938,0-90.583,0.129-93.386,0.129
				c0,0-0.456,0-3.236,0c-17.474,0-24.017,17.178-25.007,19.799L98.579,335.404c-0.993,2.623-0.417,5.877,5.083,5.877
				c0,0,21.099,0,28.845,0c5.255,0,6.892-4.6,6.892-4.6l18.636-50.002c0,0,2.343-6.4,2.343,0.543c0,9.545,0.125,35.047,0.186,47.301
				c0.023,4.133,0.662,6.758,5.542,6.758c25.279,0,71.376,0,95.166,0c6.759,0,5.934-3.518,5.918-8.822
				c-0.035-12.934-0.099-36.496-0.099-45.613c0-4.689,1.662-1.49,1.662-1.49l17.504,50.545c0,0,1.669,5.381,7.862,5.381
				c6.585,0,23.901,0,23.901,0C323.705,341.281,324.388,338.027,323.395,335.404z"/>
			<path d="M81.082,294.305c-11.689,0-46.759,0-46.759,0c-4.058,0-7.378,3.32-7.378,7.379v32.219c0,4.059,3.32,7.379,7.378,7.379
				c0,0,23.194,0,30.926,0c6.166,0,8.472-7.664,8.472-7.664l12.299-33.734C86.02,299.883,87.582,294.305,81.082,294.305z"/>
			<path d="M107.207,222.609c-18.008,0-72.03,0-72.03,0c-7.827,0-14.23-6.402-14.23-14.23V42.635c0-7.828,6.403-14.231,14.23-14.231
				h275.81c7.826,0,14.23,6.402,14.23,14.231v165.744c0,6.365-4.278,11.656-10.026,13.592c-5.858,1.975-4.254,5.875-4.254,5.875
				l17.537,46.357c0,0,1.441,4.324,6.316,3.658c6.546-0.895,11.374-7.092,11.374-13.94V19.111c0-7.826-6.404-14.23-14.231-14.23
				H14.23C6.403,4.881,0,11.285,0,19.111v101.953v49v93.857c0,7.826,6.403,14.23,14.23,14.23c0,0,52.993,0,71.019,0
				c6.666,0,8.727-5.195,8.727-5.195l17.25-45.594C111.226,227.363,113.082,222.609,107.207,222.609z"/>
		</g>
	</g>
</g>
<g>
</g>
<g>
</g>
<g>
</g>
<g>
</g>
<g>
</g>
<g>
</g>
<g>
</g>
<g>
</g>
<g>
</g>
<g>
</g>
<g>
</g>
<g>
</g>
<g>
</g>
<g>
</g>
<g>
</g>
</svg>
