<?xml version="1.0" encoding="iso-8859-1"?>
<!-- Generator: Adobe Illustrator 18.1.1, SVG Export Plug-In . SVG Version: 6.00 Build 0)  -->
<svg version="1.1" id="Capa_1" xmlns="http://www.w3.org/2000/svg" xmlns:xlink="http://www.w3.org/1999/xlink" x="0px" y="0px"
	 viewBox="0 0 359.592 359.592" style="enable-background:new 0 0 359.592 359.592;" xml:space="preserve">
<g>
	<g id="Layer_5_61_">
		<g>
			<path d="M274.372,71.374C270.78,30.445,231.798,0,184.159,0h-8.726C127.796,0,88.91,29.666,85.314,70.593
				c-0.454,2.49-2.116,2.965-3.136,3.282c-7.139,2.22-17.113,10.486-17.113,34.478v15.407c0,21.773,14.937,26.796,21.336,26.796
				h17.28c2.436,0,3.736-1.319,5.846-0.765c1.034,0.273,1.807,0.836,2.374,1.741c14.074,22.479,39.208,37.461,67.896,37.461
				c28.549,0,53.582-14.84,67.692-37.143c0.638-1.009,1.55-1.839,2.705-2.143c2.109-0.556,3.28,0.848,5.716,0.848h17.28
				c6.399,0,21.336-5.023,21.336-26.796v-15.407c0-24.051-10.315-32.416-17.474-34.556
				C276.167,73.532,274.777,72.958,274.372,71.374z M179.797,30.957c-30.156,0.001-56.387,16.558-69.968,40.977
				c-0.409,0.734-1.355,2.233-2.281,1.835c-1.612-0.692-2.094-0.587-3.866-0.587c0,0-1.783-0.105-1.604-2.916
				c1.907-29.808,34.952-53.733,73.355-53.733h8.726c37.324,0,68.291,23.513,73.399,53.99c0.147,0.881-0.08,2.045-1.781,2.352
				c-1.745,0.314-2.229,0.314-3.736,0.933c-1.014,0.275-1.848-1.102-2.245-1.817C236.222,47.54,209.974,30.957,179.797,30.957z"/>
			<path d="M332.902,351.588L279.67,238.359c-1.353-3.57-12.805-27.143-34.066-27.143c-6.725,0-123.368,0.177-127.185,0.177
				c0,0-0.623,0-4.408,0c-23.801,0-32.711,23.396-34.061,26.966L26.714,351.588c-1.353,3.569-0.567,8.004,6.924,8.004
				c0,0,28.734,0,39.284,0c7.158,0,9.387-6.266,9.387-6.266l21.26-40.624c0,0,7.313-14.299,7.313,0.739
				c0,13,0.169,20.256,0.254,36.946c0.028,5.627,0.901,9.204,7.548,9.204c34.427,0,97.209,0,129.612,0
				c9.203,0,8.081-4.791,8.061-12.017c-0.05-17.616-0.136-22.229-0.136-34.647c0-10.747,6.386-2.029,6.386-2.029l19.717,41.363
				c0,0,2.274,7.329,10.71,7.329c8.967,0,32.553,0,32.553,0C333.327,359.592,334.256,355.157,332.902,351.588z M244.275,276.881
				c0,3.777-3.091,6.869-6.868,6.869h-39.174c-3.777,0-6.869-3.092-6.869-6.869v-8.255c0-3.778,3.092-6.869,6.869-6.869h39.174
				c3.777,0,6.868,3.091,6.868,6.869V276.881z"/>
		</g>
	</g>
</g>
<g>
</g>
<g>
</g>
<g>
</g>
<g>
</g>
<g>
</g>
<g>
</g>
<g>
</g>
<g>
</g>
<g>
</g>
<g>
</g>
<g>
</g>
<g>
</g>
<g>
</g>
<g>
</g>
<g>
</g>
</svg>
