<?xml version="1.0" encoding="iso-8859-1"?>
<!-- Generator: Adobe Illustrator 18.1.1, SVG Export Plug-In . SVG Version: 6.00 Build 0)  -->
<svg version="1.1" id="Capa_1" xmlns="http://www.w3.org/2000/svg" xmlns:xlink="http://www.w3.org/1999/xlink" x="0px" y="0px"
	 viewBox="0 0 353.789 353.789" style="enable-background:new 0 0 353.789 353.789;" xml:space="preserve">
<g>
	<g id="Layer_5_3_">
		<g>
			<path d="M191.069,26.522c-32.316,0-62.411,9.443-87.723,25.693c-1.113,0.714-3.021,2.291-0.569,4.922L118.61,72.97
				c2.131,2.119,4.593,0.809,5.788,0.121c19.634-11.303,42.388-17.789,66.671-17.789c73.975,0,133.942,59.967,133.942,133.944
				c0,73.976-59.967,133.943-133.942,133.943c-73.978,0-133.945-59.967-133.945-133.943c0-22.076,5.363-42.887,14.831-61.24
				c0.766-1.484,2.078-4.585,0.073-6.705l-15.313-15.313c-3.183-2.692-5.326-0.169-6.27,1.455
				c-13.977,24.032-22.1,52.057-22.1,81.803c0,89.867,72.852,162.725,162.723,162.725c89.87,0,162.721-72.858,162.721-162.725
				C353.79,99.377,280.939,26.522,191.069,26.522z"/>
			<path d="M187.827,200.241c-5.163-0.445-12.384-3.807-16.048-7.471L49.369,70.358c-3.664-3.664-9.433-5.721-12.819-4.571
				c-3.387,1.15-9.155-0.907-12.819-4.571L2.197,39.682c-3.664-3.664-2.638-7.998,2.279-9.63l8.895-2.954
				c4.918-1.633,10.278-6.992,11.911-11.91l2.955-8.894c1.633-4.918,5.967-5.943,9.631-2.279L59.404,25.55
				c3.664,3.664,5.717,9.43,4.563,12.813c-1.154,3.382,0.899,9.148,4.564,12.812L191.01,173.654
				c3.664,3.664,6.906,10.895,7.204,16.068l0.119,2.066c0.298,5.173-3.682,9.042-8.845,8.597L187.827,200.241z"/>
			<path d="M192.152,146.512l13,13c7.094,7.094,12.452,19.044,13.028,29.061l0.119,2.069c0.456,7.92-2.232,15.395-7.568,21.047
				c-5.238,5.549-12.689,8.731-20.441,8.731c-0.835,0-1.683-0.037-2.52-0.108l-1.666-0.144c-9.801-0.846-21.509-6.296-28.468-13.255
				l-7.526-7.526c-5.953-6.88-4.146,0.664-3.32,3.374c5.781,18.972,23.416,32.777,44.279,32.777c25.564,0,46.29-20.725,46.29-46.288
				c0-23.729-17.853-43.289-40.859-45.977C194.718,143.064,186.991,141.922,192.152,146.512z"/>
			<path d="M191.069,84.635c-15.936,0-31.021,3.589-44.53,9.973c-1.415,0.669-4.131,1.981-1.096,5.196l16.208,16.209
				c2.09,2.494,5.186,1.687,6.491,1.269c7.229-2.311,14.93-3.564,22.927-3.564c41.713,0,75.528,33.814,75.528,75.53
				c0,41.713-33.814,75.528-75.528,75.528c-41.711,0-75.53-33.814-75.53-75.528c0-5.855,0.687-11.544,1.963-17.008
				c0.34-1.456,1.739-3.733-0.767-6.228L99.173,148.45c-3.016-2.443-4.304-0.294-4.882,1.112
				c-5.038,12.237-7.833,25.63-7.833,39.686c0,57.774,46.836,104.608,104.61,104.608s104.608-46.834,104.608-104.608
				C295.677,131.471,248.843,84.635,191.069,84.635z"/>
		</g>
	</g>
</g>
<g>
</g>
<g>
</g>
<g>
</g>
<g>
</g>
<g>
</g>
<g>
</g>
<g>
</g>
<g>
</g>
<g>
</g>
<g>
</g>
<g>
</g>
<g>
</g>
<g>
</g>
<g>
</g>
<g>
</g>
</svg>
