<?xml version="1.0" encoding="iso-8859-1"?>
<!-- Generator: Adobe Illustrator 18.1.1, SVG Export Plug-In . SVG Version: 6.00 Build 0)  -->
<svg version="1.1" id="Capa_1" xmlns="http://www.w3.org/2000/svg" xmlns:xlink="http://www.w3.org/1999/xlink" x="0px" y="0px"
	 viewBox="0 0 455.573 455.573" style="enable-background:new 0 0 455.573 455.573;" xml:space="preserve">
<g>
	<g id="Layer_5_5_">
		<g>
			<path d="M318.133,304.499c-3.986,0.142-5.791,0.546-7.727,0.824c-71.367,10.268-176.518,25.396-234.353,33.718
				c-2.228,0.32-2.321-2.61-2.321-2.61l-2.941-20.445c-0.393-2.722-2.939-4.628-5.662-4.237l-23.415,3.369
				c0,0-3.109,0.773-3.561-2.361c-3.03-21.065-8.991-62.489-12.122-84.257c-0.463-3.217,2.841-3.218,2.841-3.218
				s4.036-0.588,5.382-0.774c3.38-0.468,2.947-5.092,2.947-5.092s0-29.344,0-39.126c0-2.643-4.355-2.643-4.355-2.643l-14.834,2.134
				C6.55,181.43-1.433,192.096,0.216,203.558l20.777,144.415c1.649,11.462,12.315,19.445,23.776,17.795l342.835-49.325
				c6.336-0.911,11.6-4.582,14.768-9.617c0.471-0.747,0.043-2.162-2.738-2.327L318.133,304.499L318.133,304.499z"/>
			<path d="M434.573,89.589H88.208c-11.579,0-21,9.42-21,21v145.902c0,11.58,9.421,21,21,21h346.365c11.58,0,21-9.42,21-21V110.589
				C455.573,99.01,446.153,89.589,434.573,89.589z M433.573,222.828c0,3.75-4.344,4.094-4.344,4.094h-26.688c-2.75,0-5,2.25-5,5
				v20.155c0,0-0.313,3.414-3.563,3.414c-67.75,0-202.359,0-271,0c-2.25,0-1.926-2.913-1.926-2.913v-20.656c0-2.75-2.25-5-5-5
				H92.395c0,0-3.188,0.322-3.188-2.844c0-21.281,0-63.133,0-85.125c0-3.25,3.271-2.78,3.271-2.78h23.575c2.75,0,5-2.25,5-5v-17.22
				c0,0-0.449-2.363,2.426-2.363c68.516,0,203.812,0,271.75,0c2.668,0,2.313,2.155,2.313,2.155v17.428c0,2.75,2.25,5,5,5h28.688
				c0,0,2.344-0.22,2.344,1.655C433.573,160.102,433.573,201.578,433.573,222.828z"/>
			<path d="M262.102,175.56c-11.692-4.687-15.071-7.522-15.071-12.641c0-4.097,3.103-8.882,11.849-8.882
				c7.737,0,13.67,3.05,13.723,3.078c0.625,0.333,1.325,0.511,2.019,0.511c1.692,0,3.19-1.024,3.811-2.611l2.125-5.433
				c0.74-1.979-0.383-3.705-1.814-4.324c-4.764-2.074-14.072-3.679-14.168-3.694c-0.15-0.027-0.67-0.138-0.67-0.748l-0.031-7.881
				c0-2.374-1.982-4.306-4.415-4.306h-3.811c-2.432,0-4.413,1.932-4.413,4.307l0.01,8.286c0,0.635-0.688,0.911-0.938,0.97
				c-11.752,2.799-19.097,11.407-19.097,22.266c0,13.537,11.189,19.653,23.27,24.245c9.658,3.792,13.597,7.637,13.597,13.275
				c0,6.136-5.578,10.422-13.572,10.422c-6.825,0-16.064-4.327-16.156-4.371c-0.59-0.279-1.217-0.422-1.861-0.422
				c-1.758,0-3.289,1.063-3.901,2.709l-2.029,5.495c-0.722,2.051,0.39,3.717,1.81,4.457c5.673,2.955,16.651,4.687,17.14,4.762
				c0.132,0.019,0.801,0.255,0.801,0.865v8.25c0,2.374,1.98,4.306,4.415,4.306h3.94c2.436,0,4.417-1.932,4.417-4.306v-8.682
				c0-0.812,0.599-0.884,0.722-0.913c12.519-2.813,20.231-11.972,20.231-23.473C284.031,189.264,277.471,181.631,262.102,175.56z"/>
		</g>
	</g>
</g>
<g>
</g>
<g>
</g>
<g>
</g>
<g>
</g>
<g>
</g>
<g>
</g>
<g>
</g>
<g>
</g>
<g>
</g>
<g>
</g>
<g>
</g>
<g>
</g>
<g>
</g>
<g>
</g>
<g>
</g>
</svg>
