<?xml version="1.0" encoding="iso-8859-1"?>
<!-- Generator: Adobe Illustrator 18.1.1, SVG Export Plug-In . SVG Version: 6.00 Build 0)  -->
<svg version="1.1" id="Capa_1" xmlns="http://www.w3.org/2000/svg" xmlns:xlink="http://www.w3.org/1999/xlink" x="0px" y="0px"
	 viewBox="0 0 307.454 307.454" style="enable-background:new 0 0 307.454 307.454;" xml:space="preserve">
<g>
	<g id="Layer_5_43_">
		<g>
			<g>
				<path d="M115.2,268.143c0,4.719-3.861,8.58-8.58,8.58H71.155c-4.719,0-8.58-3.861-8.58-8.58V156.699
					c0-4.719,3.861-8.58,8.58-8.58h35.465c4.719,0,8.58,3.861,8.58,8.58V268.143z"/>
			</g>
			<g>
				<path d="M244.88,268.143c0,4.719-3.861,8.58-8.58,8.58h-35.465c-4.719,0-8.58-3.861-8.58-8.58v-86.02
					c0-4.719,3.861-8.58,8.58-8.58H236.3c4.719,0,8.58,3.861,8.58,8.58V268.143z"/>
			</g>
			<g>
				<path d="M180.041,268.143c0,4.719-3.861,8.58-8.58,8.58h-35.465c-4.719,0-8.58-3.861-8.58-8.58v-146.66
					c0-4.719,3.861-8.58,8.58-8.58h35.465c4.719,0,8.58,3.861,8.58,8.58V268.143z"/>
			</g>
			<path d="M272.402,74.521L193.277,9.454C186.726,4.062,175.388,0,166.906,0H42.441C31.683,0,22.925,8.754,22.925,19.516
				c0,0,0,210.025,0,267.839c0,20.099,19.012,20.099,19.463,20.099c48.34,0,222.623,0,222.623,0
				c10.762,0,19.518-8.755,19.518-19.517V100.198C284.529,91.246,279.314,80.207,272.402,74.521z M187.867,29.475
				c0-4.781,3.961-1.113,3.961-1.113l62.717,53.585c0,0,4.012,3.949-2.867,3.949c-14.686,0-58.746,0-58.746,0
				c-2.793,0-5.064-2.271-5.064-5.064C187.867,80.832,187.867,42.315,187.867,29.475z M265.011,292.998c0,0-179.055,0-223.99,0
				c-0.801,0-3.643-0.229-3.643-4.182c0-54.407,0-269.302,0-269.302c0-2.745,2.32-5.063,5.063-5.063h124.465
				c2.109,0,6.51,1.118,6.51,7.138v59.242c0,10.761,8.756,19.516,19.516,19.516h73.525c1.34,0,3.613,0.922,3.613,4.169
				c0,0.051,0.008,183.419,0.008,183.419C270.078,290.729,267.804,292.998,265.011,292.998z"/>
		</g>
	</g>
</g>
<g>
</g>
<g>
</g>
<g>
</g>
<g>
</g>
<g>
</g>
<g>
</g>
<g>
</g>
<g>
</g>
<g>
</g>
<g>
</g>
<g>
</g>
<g>
</g>
<g>
</g>
<g>
</g>
<g>
</g>
</svg>
