<?xml version="1.0" encoding="iso-8859-1"?>
<!-- Generator: Adobe Illustrator 18.1.1, SVG Export Plug-In . SVG Version: 6.00 Build 0)  -->
<svg version="1.1" id="Capa_1" xmlns="http://www.w3.org/2000/svg" xmlns:xlink="http://www.w3.org/1999/xlink" x="0px" y="0px"
	 viewBox="0 0 345.005 345.005" style="enable-background:new 0 0 345.005 345.005;" xml:space="preserve">
<g>
	<g id="Layer_5_30_">
		<g>
			<g>
				<path d="M222.921,52.041h-18.724c-1.134,0-1.298-1.64-1.459-2.443c-2.821-14.124-15.282-24.768-30.236-24.768
					c-14.817,0-27.187,10.449-30.158,24.381c-0.199,0.928-0.137,2.83-1.574,2.83h-18.689c-2.993,0-5.099,2.424-4.678,5.39
					l4.825,33.978c0.421,2.964,3.214,5.388,6.209,5.388h88.129c2.992,0,5.787-2.424,6.207-5.388l4.825-33.978
					C228.021,54.465,225.916,52.041,222.921,52.041z"/>
			</g>
			<g>
				<path d="M290.306,159.983h-92.202c-3.028,0-5.482-2.454-5.482-5.482s2.455-5.482,5.482-5.482h92.202
					c3.028,0,5.482,2.454,5.482,5.482C295.788,157.529,293.334,159.983,290.306,159.983z"/>
			</g>
			<g>
				<path d="M290.306,204.56h-92.202c-3.028,0-5.482-2.454-5.482-5.482s2.455-5.482,5.482-5.482h92.202
					c3.028,0,5.482,2.454,5.482,5.482S293.334,204.56,290.306,204.56z"/>
			</g>
			<g>
				<path d="M290.306,249.134h-92.202c-3.028,0-5.482-2.454-5.482-5.482s2.455-5.482,5.482-5.482h92.202
					c3.028,0,5.482,2.454,5.482,5.482S293.334,249.134,290.306,249.134z"/>
			</g>
			<g>
				<path d="M330.75,60.813c0,0-57.683,0-80.247,0c-2.285,0-2.692,2.746-2.692,2.746l-2.342,16.491c0,0-0.449,2.693,2.064,2.693
					c17.823,0,61.286,0,61.286,0c7.84,0,14.255,6.414,14.255,14.255v186.989c0,7.841-6.415,14.255-14.255,14.255H36.186
					c-7.84,0-14.255-6.414-14.255-14.255V96.999c0-7.841,6.414-14.255,14.255-14.255c0,0,42.859,0,60.847,0
					c1.896,0,1.504-2.004,1.504-2.004l-2.521-17.755c0,0-0.376-2.172-2.432-2.172c-22.608,0-79.329,0-79.329,0
					C6.415,60.813,0,67.227,0,75.068v230.851c0,7.841,6.415,14.255,14.255,14.255H330.75c7.84,0,14.255-6.414,14.255-14.255V75.068
					C345.005,67.227,338.59,60.813,330.75,60.813z"/>
			</g>
			<g>
				<g>
					<ellipse cx="108.031" cy="157.135" rx="28.381" ry="28.089"/>
				</g>
				<path d="M160.372,251.578l-18.292-48.347c-0.464-1.227-4.399-9.326-11.705-9.326c-2.31,0-2.31,0-2.31,0
					c-0.873,0.033-2.661,0.061-3.972,0.061H91.444c-1.311,0-3.458,0-4.769,0c0,0-0.214,0-1.515,0
					c-8.178,0-11.239,8.039-11.703,9.266l-18.292,48.347c-0.464,1.227-1.197,2.75,1.376,2.75h102.455
					C161.655,254.328,160.836,252.805,160.372,251.578z"/>
			</g>
		</g>
	</g>
</g>
<g>
</g>
<g>
</g>
<g>
</g>
<g>
</g>
<g>
</g>
<g>
</g>
<g>
</g>
<g>
</g>
<g>
</g>
<g>
</g>
<g>
</g>
<g>
</g>
<g>
</g>
<g>
</g>
<g>
</g>
</svg>
