<?xml version="1.0" encoding="iso-8859-1"?>
<!-- Generator: Adobe Illustrator 18.1.1, SVG Export Plug-In . SVG Version: 6.00 Build 0)  -->
<svg version="1.1" id="Capa_1" xmlns="http://www.w3.org/2000/svg" xmlns:xlink="http://www.w3.org/1999/xlink" x="0px" y="0px"
	 viewBox="0 0 400.523 400.523" style="enable-background:new 0 0 400.523 400.523;" xml:space="preserve">
<g>
	<g id="Layer_5_91_">
		<path d="M385.596,58.172H14.926C6.717,58.172,0,64.888,0,73.097v254.328c0,8.21,6.717,14.926,14.926,14.926h370.671
			c8.21,0,14.926-6.716,14.926-14.926V73.097C400.523,64.887,393.806,58.172,385.596,58.172z M269.495,120.12
			c0-6.841,5.598-12.439,12.439-12.439h68.834c6.842,0,12.439,5.599,12.439,12.439v54.405c0,6.84-5.597,12.438-12.439,12.438
			h-68.834c-6.841,0-12.439-5.599-12.439-12.438L269.495,120.12L269.495,120.12z M179.72,170.493H39.156
			c-4.122,0-7.463-3.341-7.463-7.463c0-4.121,3.341-7.464,7.463-7.464H179.72c4.122,0,7.463,3.343,7.463,7.464
			C187.183,167.152,183.842,170.493,179.72,170.493z M179.72,123.231H39.156c-4.122,0-7.463-3.342-7.463-7.463
			s3.341-7.464,7.463-7.464H179.72c4.122,0,7.463,3.343,7.463,7.464C187.183,119.89,183.842,123.231,179.72,123.231z
			 M363.207,282.448H222.643c-4.122,0-7.463-3.343-7.463-7.464s3.341-7.463,7.463-7.463h140.564c4.122,0,7.463,3.342,7.463,7.463
			C370.67,279.104,367.329,282.448,363.207,282.448z M363.207,235.186H222.643c-4.122,0-7.463-3.343-7.463-7.464
			c0-4.122,3.341-7.464,7.463-7.464h140.564c4.122,0,7.463,3.342,7.463,7.464C370.67,231.842,367.329,235.186,363.207,235.186z"/>
	</g>
</g>
<g>
</g>
<g>
</g>
<g>
</g>
<g>
</g>
<g>
</g>
<g>
</g>
<g>
</g>
<g>
</g>
<g>
</g>
<g>
</g>
<g>
</g>
<g>
</g>
<g>
</g>
<g>
</g>
<g>
</g>
</svg>
