<?xml version="1.0" encoding="iso-8859-1"?>
<!-- Generator: Adobe Illustrator 18.1.1, SVG Export Plug-In . SVG Version: 6.00 Build 0)  -->
<svg version="1.1" id="Capa_1" xmlns="http://www.w3.org/2000/svg" xmlns:xlink="http://www.w3.org/1999/xlink" x="0px" y="0px"
	 viewBox="0 0 365.827 365.827" style="enable-background:new 0 0 365.827 365.827;" xml:space="preserve">
<g>
	<g id="Layer_5_71_">
		<g>
			<path d="M270.971,335.547c-7.708,0-13.957-6.249-13.957-13.957s6.249-13.957,13.957-13.957h32.597c0,0,5.423,0.192,5.423-4.34
				c0-4.528,0-12.499,0-18.111c0-4.482-4.556-4.34-4.556-4.34h-33.464c-7.708,0-13.957-6.249-13.957-13.957
				s6.249-13.957,13.957-13.957h33.682c0,0,4.338-0.114,4.338-4.34c0-4.528,0-12.499,0-18.112c0-4.462-3.833-4.34-3.833-4.34
				h-34.186c-7.708,0-13.957-6.249-13.957-13.957s6.249-13.957,13.957-13.957h33.753c0,0,4.267,0.339,4.267-4.34
				c0-8.236,0-32.946,0-32.946c0-4.29-3.51-7.8-7.8-7.8c0,0-2.039,0-2.719,0c-3.583,0-3.552-3.553-3.552-3.553v-37.574
				C294.921,50.247,244.675,0,182.913,0S70.904,50.247,70.904,112.009v36.033c0,0,0.735,5.095-4.514,5.095c-0.689,0-1.756,0-1.756,0
				c-4.289,0-7.799,3.51-7.799,7.8v197.09c0,4.29,3.51,7.8,7.799,7.8h236.558c4.29,0,7.8-3.51,7.8-7.8c0,0,0-13.605,0-18.14
				c0-4.574-4.267-4.34-4.267-4.34H270.971L270.971,335.547z M101.179,112.01c0-45.068,36.666-81.734,81.733-81.734
				s81.732,36.665,81.732,81.734v37.574c0,0,0.244,3.553-4.173,3.553c-21.539,0-118.828,0-154.333,0c-5.5,0-4.96-6.095-4.96-6.095
				V112.01H101.179z M202.718,279.27c0,4.925,0.021,15.365,0.021,15.365c0,10.95-8.876,19.827-19.826,19.827
				c-10.95,0-19.826-8.877-19.826-19.827c0,0,0.02-10.44,0.02-15.365c0-10.518-20.204-9.882-20.204-34.758
				c0-22.097,17.913-40.01,40.01-40.01s40.01,17.913,40.01,40.01C222.922,269.388,202.718,268.752,202.718,279.27z"/>
		</g>
	</g>
</g>
<g>
</g>
<g>
</g>
<g>
</g>
<g>
</g>
<g>
</g>
<g>
</g>
<g>
</g>
<g>
</g>
<g>
</g>
<g>
</g>
<g>
</g>
<g>
</g>
<g>
</g>
<g>
</g>
<g>
</g>
</svg>
