<?xml version="1.0" encoding="iso-8859-1"?>
<!-- Generator: Adobe Illustrator 18.1.1, SVG Export Plug-In . SVG Version: 6.00 Build 0)  -->
<svg version="1.1" id="Capa_1" xmlns="http://www.w3.org/2000/svg" xmlns:xlink="http://www.w3.org/1999/xlink" x="0px" y="0px"
	 viewBox="0 0 347.66 347.66" style="enable-background:new 0 0 347.66 347.66;" xml:space="preserve">
<g>
	<g id="Layer_5_42_">
		<g>
			<path d="M214.965,129.051c-15.949-6.393-20.559-10.26-20.559-17.242c0-5.588,4.233-12.114,16.163-12.114
				c10.554,0,18.648,4.159,18.719,4.197c0.854,0.456,1.808,0.697,2.753,0.697c2.311,0,4.354-1.397,5.2-3.561l2.899-7.412
				c1.008-2.7-0.524-5.054-2.477-5.897c-6.497-2.828-19.195-5.018-19.325-5.039c-0.205-0.036-0.914-0.188-0.914-1.02l-0.043-10.751
				c0-3.237-2.703-5.873-6.023-5.873h-5.197c-3.318,0-6.02,2.636-6.02,5.876l0.013,11.303c0,0.865-0.938,1.24-1.28,1.322
				c-16.031,3.817-26.049,15.559-26.049,30.371c0,18.464,15.263,26.807,31.741,33.07c13.175,5.172,18.549,10.418,18.549,18.107
				c0,8.371-7.611,14.218-18.514,14.218c-9.311,0-21.912-5.903-22.039-5.962c-0.806-0.381-1.661-0.575-2.539-0.575
				c-2.398,0-4.488,1.45-5.322,3.695l-2.769,7.494c-0.984,2.799,0.531,5.071,2.47,6.081c7.738,4.029,22.715,6.393,23.379,6.495
				c0.179,0.026,1.092,0.347,1.092,1.179v11.254c0,3.238,2.702,5.873,6.023,5.873h5.375c3.32,0,6.023-2.635,6.023-5.873v-11.842
				c0-1.107,0.817-1.205,0.985-1.245c17.076-3.835,27.596-16.33,27.596-32.019C244.876,147.744,235.929,137.333,214.965,129.051z"/>
			<path d="M24.306,347.66c-6.009,0-11.406-2.227-15.614-6.434l-2.26-2.261c-6.313-6.312-6.868-13.744-6.227-18.869
				c0.943-7.487,5.001-15.15,11.426-21.572l74.367-74.367c4.427-4.43,3.998-10.553,1.725-14.365
				c-15.756-26.26-22.477-57.238-18.938-87.234c3.646-30.888,17.474-59.115,39.985-81.629C135.164,14.535,170.315,0,207.75,0
				c37.433,0,72.582,14.535,98.98,40.929c54.574,54.578,54.574,143.381,0,197.957c-26.392,26.393-61.056,40.926-97.601,40.926
				c0,0-0.001,0-0.006,0c-24.942-0.002-49.579-6.871-71.246-19.87c-0.662-0.392-3.018-1.651-6.201-1.651
				c-3.143,0-6.022,1.219-8.327,3.523l-74.214,74.215C41.744,343.421,32.694,347.66,24.306,347.66z M207.75,26.471
				c-30.347,0-58.846,11.786-80.25,33.191c-21.405,21.401-33.191,49.9-33.191,80.25c0,30.344,11.786,58.846,33.191,80.249
				c21.404,21.404,49.9,33.19,80.25,33.19c30.346,0,58.844-11.786,80.248-33.19c21.404-21.403,33.19-49.905,33.19-80.249
				c0-30.35-11.786-58.849-33.19-80.25C266.596,38.257,238.098,26.471,207.75,26.471z"/>
		</g>
	</g>
</g>
<g>
</g>
<g>
</g>
<g>
</g>
<g>
</g>
<g>
</g>
<g>
</g>
<g>
</g>
<g>
</g>
<g>
</g>
<g>
</g>
<g>
</g>
<g>
</g>
<g>
</g>
<g>
</g>
<g>
</g>
</svg>
