<?xml version="1.0" encoding="iso-8859-1"?>
<!-- Generator: Adobe Illustrator 18.1.1, SVG Export Plug-In . SVG Version: 6.00 Build 0)  -->
<svg version="1.1" id="Capa_1" xmlns="http://www.w3.org/2000/svg" xmlns:xlink="http://www.w3.org/1999/xlink" x="0px" y="0px"
	 viewBox="0 0 333.512 333.512" style="enable-background:new 0 0 333.512 333.512;" xml:space="preserve">
<g>
	<g id="Layer_5_17_">
		<g>
			<ellipse cx="110.927" cy="64.053" rx="110.926" ry="42.622"/>
			<path d="M110.927,148.838c61.263,0,110.926-19.083,110.926-42.622c0-3.69-1.221-7.268-3.515-10.683
				c-0.43-0.639-1.574-1.715-3.592-0.265c-6.191,4.796-11.93,7.461-21.463,11.124c-22.172,8.52-51.42,13.211-82.356,13.211
				s-60.186-4.691-82.357-13.211c-9.532-3.663-16.288-7.075-22.48-11.872c-1.172-0.887-2.185,0.43-2.631,1.098
				C1.201,99.006,0,102.557,0,106.216C0,129.756,49.664,148.838,110.927,148.838z"/>
			<path d="M142.502,245.781c-0.056-0.382-0.169-1.173-1.239-1.041c-9.506,0.96-20.29,1.356-30.336,1.356
				c-30.936,0-60.186-4.692-82.357-13.211c-9.532-3.663-14.967-6.124-21.158-10.92c-1.946-1.096-4,0.165-4.61,1.188
				c-1.833,3.072-2.801,6.27-2.801,9.555c0,23.54,49.664,42.622,110.927,42.622c13.263,0,29.815-0.736,41.606-2.376
				c1.033-0.284,0.777-1.176,0.484-1.631C148.668,264.566,143.807,254.76,142.502,245.781z"/>
			<path d="M110.927,233.167c12.814,0,20.575-0.619,26.782-1.253c1.727-0.244,1.798-1.296,1.798-1.857
				c0-8.7,1.177-17.129,3.379-25.138c0.259-0.942,0.987-2.811-1.058-2.603c-10.533,1.196-19.664,1.617-30.901,1.617
				c-30.936,0-60.186-4.691-82.357-13.211c-9.532-3.663-14.679-5.924-20.87-10.721c-2.963-2.038-4.288-0.035-4.899,0.989
				C0.968,184.062,0,187.261,0,190.545C0,214.084,49.664,233.167,110.927,233.167z"/>
			<path d="M170.76,158.609c1.087-0.973,3.614-3.378,0.195-3.054c-18.84,4.773-37.172,6.214-60.028,6.214
				c-30.936,0-60.186-4.691-82.357-13.211c-9.532-3.663-15.544-6.533-21.734-11.329c-2.1-1.429-3.093,0.11-3.597,0.893
				c-2.115,3.286-3.238,6.722-3.238,10.259c0,23.54,49.664,42.622,110.927,42.622c13.049,0,23.096-0.54,34.724-2.13
				c2.533-0.385,3.216-1.924,3.594-2.704C154.498,175.335,161.717,166.702,170.76,158.609z"/>
			<g>
				<path d="M251.714,219.571c-9.705-3.891-12.51-6.244-12.51-10.492c0-3.4,2.575-7.372,9.835-7.372
					c6.422,0,11.347,2.532,11.391,2.555c0.519,0.277,1.1,0.424,1.675,0.424c1.405,0,2.648-0.85,3.164-2.167l1.764-4.51
					c0.614-1.643-0.317-3.075-1.506-3.589c-3.954-1.721-11.681-3.053-11.76-3.066c-0.125-0.022-0.557-0.114-0.557-0.621
					l-0.025-6.542c0-1.97-1.646-3.574-3.665-3.574h-3.163c-2.019,0-3.663,1.603-3.663,3.575l0.008,6.877
					c0,0.527-0.571,0.756-0.779,0.805c-9.754,2.323-15.851,9.468-15.851,18.481c0,11.236,9.287,16.313,19.314,20.124
					c8.017,3.147,11.286,6.339,11.286,11.019c0,5.093-4.631,8.651-11.266,8.651c-5.665,0-13.333-3.592-13.41-3.628
					c-0.489-0.232-1.01-0.35-1.545-0.35c-1.459,0-2.73,0.883-3.238,2.249l-1.685,4.56c-0.599,1.703,0.323,3.086,1.503,3.7
					c4.709,2.452,13.821,3.89,14.227,3.953c0.109,0.016,0.664,0.211,0.664,0.718v6.848c0,1.97,1.645,3.574,3.665,3.574h3.271
					c2.021,0,3.666-1.604,3.666-3.574v-7.206c0-0.674,0.497-0.733,0.6-0.757c10.391-2.334,16.792-9.938,16.792-19.483
					C269.915,230.946,264.471,224.61,251.714,219.571z"/>
				<path d="M247.628,140.31c-47.435,0-85.885,38.453-85.885,85.885s38.45,85.886,85.885,85.886
					c47.433,0,85.884-38.454,85.884-85.886C333.512,178.762,295.061,140.31,247.628,140.31z M247.628,292.175
					c-36.441,0-65.98-29.542-65.98-65.981s29.539-65.98,65.98-65.98c36.439,0,65.978,29.541,65.978,65.98
					S284.067,292.175,247.628,292.175z"/>
			</g>
		</g>
	</g>
</g>
<g>
</g>
<g>
</g>
<g>
</g>
<g>
</g>
<g>
</g>
<g>
</g>
<g>
</g>
<g>
</g>
<g>
</g>
<g>
</g>
<g>
</g>
<g>
</g>
<g>
</g>
<g>
</g>
<g>
</g>
</svg>
