<?xml version="1.0" encoding="iso-8859-1"?>
<!-- Generator: Adobe Illustrator 18.1.1, SVG Export Plug-In . SVG Version: 6.00 Build 0)  -->
<svg version="1.1" id="Capa_1" xmlns="http://www.w3.org/2000/svg" xmlns:xlink="http://www.w3.org/1999/xlink" x="0px" y="0px"
	 viewBox="0 0 409.039 409.039" style="enable-background:new 0 0 409.039 409.039;" xml:space="preserve">
<g>
	<g id="Layer_5_96_">
		<g>
			<path d="M210.026,211.51c-13.075-5.24-16.854-8.41-16.854-14.135c0-4.58,3.471-9.93,13.25-9.93
				c8.651,0,15.287,3.409,15.345,3.441c0.7,0.374,1.482,0.571,2.257,0.571c1.894,0,3.569-1.146,4.263-2.919l2.376-6.076
				c0.826-2.213-0.43-4.143-2.03-4.834c-5.326-2.318-15.736-4.113-15.842-4.131c-0.168-0.03-0.749-0.154-0.749-0.836l-0.036-8.813
				c0-2.653-2.216-4.814-4.938-4.814h-4.261c-2.72,0-4.935,2.161-4.935,4.816l0.01,9.266c0,0.71-0.768,1.018-1.049,1.084
				c-13.141,3.13-21.355,12.755-21.355,24.897c0,15.136,12.513,21.976,26.02,27.11c10.8,4.239,15.206,8.54,15.206,14.844
				c0,6.861-6.239,11.654-15.177,11.654c-7.632,0-17.962-4.839-18.066-4.887c-0.661-0.313-1.362-0.472-2.082-0.472
				c-1.966,0-3.679,1.189-4.363,3.029l-2.27,6.144c-0.807,2.294,0.435,4.157,2.024,4.984c6.344,3.304,18.622,5.24,19.166,5.325
				c0.146,0.022,0.895,0.284,0.895,0.966v9.226c0,2.655,2.215,4.815,4.938,4.815h4.406c2.722,0,4.938-2.159,4.938-4.815v-9.707
				c0-0.908,0.67-0.988,0.808-1.02c13.999-3.145,22.622-13.387,22.622-26.248C234.546,226.834,227.212,218.3,210.026,211.51z"/>
			<g>
				<path d="M387.709,130.696c6.622,4.495,5.491,8.172-2.512,8.172H23.845c-8.002,0-9.133-3.677-2.511-8.172L192.481,3.371
					c6.622-4.495,17.458-4.495,24.079,0L387.709,130.696z"/>
			</g>
			<path d="M387.709,176.406L216.561,303.732c-6.622,4.494-17.458,4.494-24.079,0L21.333,176.406
				c-3.012-2.044-12.04-5.353-12.04,7.494v210.587c0,8.003,6.548,14.552,14.551,14.552h361.352c8.003,0,14.551-6.549,14.551-14.552
				V183.9C399.748,168.699,390.72,174.362,387.709,176.406z"/>
		</g>
	</g>
</g>
<g>
</g>
<g>
</g>
<g>
</g>
<g>
</g>
<g>
</g>
<g>
</g>
<g>
</g>
<g>
</g>
<g>
</g>
<g>
</g>
<g>
</g>
<g>
</g>
<g>
</g>
<g>
</g>
<g>
</g>
</svg>
