<?xml version="1.0" encoding="iso-8859-1"?>
<!-- Generator: Adobe Illustrator 18.1.1, SVG Export Plug-In . SVG Version: 6.00 Build 0)  -->
<svg version="1.1" id="Capa_1" xmlns="http://www.w3.org/2000/svg" xmlns:xlink="http://www.w3.org/1999/xlink" x="0px" y="0px"
	 viewBox="0 0 371.048 371.048" style="enable-background:new 0 0 371.048 371.048;" xml:space="preserve">
<g>
	<g id="Layer_5_55_">
		<g>
			<g>
				<g>
					<ellipse cx="185.525" cy="32.187" rx="32.521" ry="32.187"/>
				</g>
				<path d="M247.891,143.317l-21.685-57.316c-0.551-1.454-5.215-11.056-13.876-11.056c-2.739,0-52.062,0.072-53.604,0.072
					c-9.695,0-13.324,9.53-13.874,10.984l-21.686,57.316c-0.551,1.454-0.232,3.26,2.82,3.26c0,0,11.705,0,16.002,0
					c2.916,0,3.824-2.552,3.824-2.552l10.338-27.74c0,0,1.3-3.552,1.3,0.301c0,5.295,0.069,19.443,0.104,26.242
					c0.012,2.293,0.367,3.75,3.075,3.75c14.023,0,39.597,0,52.796,0c3.749,0,3.292-1.952,3.284-4.895
					c-0.021-7.176-0.056-20.247-0.056-25.305c0-2.603,0.922-0.827,0.922-0.827l9.711,28.042c0,0,0.926,2.985,4.362,2.985
					c3.652,0,13.26,0,13.26,0C248.064,146.577,248.442,144.771,247.891,143.317z M198.293,126.879l-10.912,10.035
					c-1.021,0.939-2.691,0.939-3.713,0l-10.912-10.035c-1.021-0.938-1.623-2.817-1.34-4.174l5.69-27.172
					c0.085-0.405,0.343-1.636,0.32-1.915c-0.111-1.433-0.446-5.73-0.446-5.73c-0.109-1.383,0.938-2.514,2.324-2.514h12.439
					c1.387,0,2.433,1.131,2.325,2.514c0,0-0.336,4.298-0.447,5.73c-0.022,0.278,0.235,1.509,0.32,1.915l5.689,27.172
					C199.917,124.062,199.314,125.941,198.293,126.879z"/>
			</g>
			<path d="M306.804,171.495H64.244c-9.438,0-17.117,7.679-17.117,17.117v43.274c0,4.142,3.357,4.499,7.5,4.499
				c4.143,0,7.5-0.356,7.5-4.499v-43.274c0-1.147,0.97-2.117,2.117-2.117c0,0,83.98,0,111.975,0c1.938,0,1.806,2.263,1.806,2.263
				v43.128c0,4.142,3.357,4.499,7.5,4.499s7.5-0.356,7.5-4.499v-42.94c0,0-0.306-2.451,2.382-2.451c27.85,0,111.398,0,111.398,0
				c1.147,0,2.117,0.969,2.117,2.117v43.274c0,4.142,3.357,4.499,7.5,4.499s7.5-0.356,7.5-4.499v-43.274
				C323.921,179.174,316.243,171.495,306.804,171.495z"/>
			<g>
				<ellipse cx="54.628" cy="281.024" rx="25.594" ry="25.331"/>
				<path d="M103.71,368.482l-17.065-45.107c-0.434-1.145-4.105-8.701-10.921-8.701c-2.155,0-40.972,0.056-42.186,0.056
					c-7.63,0-10.486,7.5-10.919,8.645L5.553,368.482c-0.434,1.144-0.182,2.565,2.22,2.565c0,0,9.211,0,12.594,0
					c2.295,0,3.009-2.008,3.009-2.008l8.137-21.831c0,0,1.023-2.795,1.023,0.237c0,4.168,0.054,15.302,0.081,20.652
					c0.009,1.804,0.289,2.951,2.42,2.951c11.036,0,31.163,0,41.55,0c2.951,0,2.591-1.536,2.585-3.852
					c-0.017-5.647-0.044-15.934-0.044-19.915c0-2.048,0.726-0.65,0.726-0.65l7.643,22.068c0,0,0.729,2.349,3.434,2.349
					c2.874,0,10.435,0,10.435,0C103.845,371.048,104.143,369.627,103.71,368.482z"/>
			</g>
			<g>
				<ellipse cx="185.525" cy="281.024" rx="25.594" ry="25.331"/>
				<path d="M234.607,368.482l-17.065-45.107c-0.434-1.145-4.105-8.701-10.921-8.701c-2.156,0-40.973,0.056-42.186,0.056
					c-7.63,0-10.486,7.5-10.919,8.645l-17.066,45.107c-0.434,1.144-0.183,2.565,2.22,2.565c0,0,9.211,0,12.593,0
					c2.295,0,3.01-2.008,3.01-2.008l8.137-21.831c0,0,1.022-2.795,1.022,0.237c0,4.168,0.055,15.302,0.082,20.652
					c0.009,1.804,0.289,2.951,2.42,2.951c11.036,0,31.162,0,41.55,0c2.95,0,2.591-1.536,2.585-3.852
					c-0.017-5.647-0.044-15.934-0.044-19.915c0-2.048,0.726-0.65,0.726-0.65l7.643,22.068c0,0,0.729,2.349,3.433,2.349
					c2.875,0,10.435,0,10.435,0C234.743,371.048,235.041,369.627,234.607,368.482z"/>
			</g>
			<g>
				<ellipse cx="316.421" cy="281.024" rx="25.595" ry="25.331"/>
				<path d="M365.503,368.482l-17.064-45.107c-0.435-1.145-4.105-8.701-10.922-8.701c-2.155,0-40.972,0.056-42.186,0.056
					c-7.629,0-10.485,7.5-10.919,8.645l-17.065,45.107c-0.435,1.144-0.183,2.565,2.219,2.565c0,0,9.212,0,12.594,0
					c2.295,0,3.01-2.008,3.01-2.008l8.137-21.831c0,0,1.022-2.795,1.022,0.237c0,4.168,0.054,15.302,0.081,20.652
					c0.01,1.804,0.289,2.951,2.42,2.951c11.036,0,31.163,0,41.551,0c2.95,0,2.591-1.536,2.584-3.852
					c-0.016-5.647-0.044-15.934-0.044-19.915c0-2.048,0.726-0.65,0.726-0.65l7.642,22.068c0,0,0.73,2.349,3.434,2.349
					c2.875,0,10.436,0,10.436,0C365.64,371.048,365.937,369.627,365.503,368.482z"/>
			</g>
		</g>
	</g>
</g>
<g>
</g>
<g>
</g>
<g>
</g>
<g>
</g>
<g>
</g>
<g>
</g>
<g>
</g>
<g>
</g>
<g>
</g>
<g>
</g>
<g>
</g>
<g>
</g>
<g>
</g>
<g>
</g>
<g>
</g>
</svg>
