<?xml version="1.0" encoding="iso-8859-1"?>
<!-- Generator: Adobe Illustrator 18.1.1, SVG Export Plug-In . SVG Version: 6.00 Build 0)  -->
<svg version="1.1" id="Capa_1" xmlns="http://www.w3.org/2000/svg" xmlns:xlink="http://www.w3.org/1999/xlink" x="0px" y="0px"
	 viewBox="0 0 342.977 342.977" style="enable-background:new 0 0 342.977 342.977;" xml:space="preserve">
<g>
	<g id="Layer_5_10_">
		<g>
			<g>
				<path d="M180.76,176.014c0,2.181-1.783,3.966-3.965,3.966H89.016c-2.182,0-3.966-1.785-3.966-3.966v-8.151
					c0-2.181,1.784-3.966,3.966-3.966h87.779c2.182,0,3.965,1.785,3.965,3.966V176.014z"/>
				<path d="M304.705,176.014c0,2.181-1.783,3.966-3.965,3.966h-87.779c-2.18,0-3.965-1.785-3.965-3.966v-8.151
					c0-2.181,1.785-3.966,3.965-3.966h87.779c2.182,0,3.965,1.785,3.965,3.966V176.014z"/>
				<path d="M180.76,219.764c0,2.181-1.783,3.966-3.965,3.966H89.016c-2.182,0-3.966-1.785-3.966-3.966v-8.151
					c0-2.181,1.784-3.966,3.966-3.966h87.779c2.182,0,3.965,1.785,3.965,3.966V219.764z"/>
				<path d="M304.705,219.764c0,2.181-1.783,3.966-3.965,3.966h-87.779c-2.18,0-3.965-1.785-3.965-3.966v-8.151
					c0-2.181,1.785-3.966,3.965-3.966h87.779c2.182,0,3.965,1.785,3.965,3.966V219.764z"/>
				<path d="M180.76,263.514c0,2.181-1.783,3.966-3.965,3.966H89.016c-2.182,0-3.966-1.785-3.966-3.966v-8.151
					c0-2.181,1.784-3.966,3.966-3.966h87.779c2.182,0,3.965,1.785,3.965,3.966V263.514z"/>
				<path d="M304.705,263.514c0,2.181-1.783,3.966-3.965,3.966h-87.779c-2.18,0-3.965-1.785-3.965-3.966v-8.151
					c0-2.181,1.785-3.966,3.965-3.966h87.779c2.182,0,3.965,1.785,3.965,3.966V263.514z"/>
			</g>
			<path d="M0.415,98.453l45.904,201.489c0.944,4.437,2.572,7.484,4.854,9.145c3.537,4.877,9.275,8.057,15.747,8.057h256.61
				c10.723,0,19.447-8.725,19.447-19.449V45.281c0-10.724-8.725-19.449-19.447-19.449H66.92c-10.723,0-19.447,8.726-19.447,19.449
				c0,0-2.85,128.622,0,171.856c0.415,6.305-1.153,9.167-1.251,8.805c-8.201-30.704-31.72-130.485-31.72-130.485
				c-0.218-1.02-0.093-1.882,0.351-2.431c0.443-0.548,1.263-0.849,2.305-0.849h11.209c0,0,4.209,0.056,4.209-3.342
				c0-1.929,0-5.788,0-7.717c0-3.432-4.209-3.343-4.209-3.343H17.158c-5.393,0-10.313,2.255-13.498,6.189
				C0.475,87.896-0.708,93.178,0.415,98.453z M61.874,45.281c0-2.736,2.311-5.047,5.046-5.047h256.61
				c2.734,0,5.047,2.311,5.047,5.047v252.414c0,2.783-2.266,5.047-5.047,5.047H66.92c-2.781,0-5.046-2.264-5.046-5.047V45.281z"/>
			<path d="M303.315,63.134H86.442c-1.952,0-3.551,1.599-3.551,3.552v68.152c0,1.953,1.599,3.551,3.551,3.551h216.873
				c1.951,0,3.551-1.598,3.551-3.551V66.685C306.865,64.732,305.266,63.134,303.315,63.134z M152.444,120.568
				c0,1.795-1.46,3.256-3.256,3.256h-1.389c-1.58,0-3.404-1.01-4.242-2.349l-11.632-18.59c-0.636-1.015-1.663-2.686-2.284-3.71
				c-0.148-0.247-2.379-3.854-4.644-8.056c-0.192-0.452-0.421-0.256-0.411,0.049c0.107,3.192,0.248,8.286,0.248,12.818v16.583
				c0,1.795-1.46,3.256-3.256,3.256h-0.998c-1.795,0-3.256-1.46-3.256-3.256V81.022c0-1.795,1.461-3.256,3.256-3.256h1.846
				c1.577,0,3.404,1.005,4.248,2.338l11.742,18.538c0.645,1.016,1.672,2.693,2.286,3.728c0.13,0.22,2.259,3.812,4.266,7.502
				c0.119,0.219,0.389,0.452,0.356-0.046c-0.156-3.205-0.391-8.064-0.391-12.611V81.023c0-1.795,1.461-3.256,3.256-3.256h0.998
				c1.796,0,3.256,1.461,3.256,3.256v39.545H152.444z M187.021,120.568c0,1.795-1.459,3.256-3.256,3.256h-20.337
				c-1.795,0-3.256-1.46-3.256-3.256V81.021c0-1.795,1.461-3.256,3.256-3.256h19.363c1.795,0,3.256,1.461,3.256,3.256v0.412
				c0,1.795-1.461,3.256-3.256,3.256h-13.697c-0.598,0-1.084,0.487-1.084,1.085v9.528c0,0.598,0.486,1.085,1.084,1.085h12.719
				c1.797,0,3.256,1.46,3.256,3.256v0.348c0,1.795-1.459,3.256-3.256,3.256h-12.719c-0.598,0-1.084,0.487-1.084,1.086v11.481
				c0,0.599,0.486,1.085,1.084,1.085h14.672c1.797,0,3.256,1.46,3.256,3.256v0.413H187.021z M243.953,81.234l-11.256,39.712
				c-0.455,1.613-2.127,2.878-3.805,2.878h-1.586c-1.695,0-3.336-1.292-3.734-2.939l-4.514-18.637c-0.281-1.164-0.732-3.07-1-4.238
				c-0.049-0.209-0.807-3.508-1.49-7.006c-0.547,2.444-1.381,5.963-2.305,9.179l-5.674,20.748c-0.445,1.622-2.109,2.893-3.791,2.893
				h-1.584c-1.691,0-3.342-1.284-3.758-2.922L189.39,81.221c-0.223-0.879-0.055-1.76,0.457-2.42
				c0.512-0.659,1.326-1.037,2.232-1.037h1.648c1.699,0,3.336,1.296,3.725,2.95l4.217,17.979c0.273,1.165,0.713,3.072,0.976,4.238
				c0.014,0.062,0.639,2.742,1.488,6.755c0.326,1.198,0.6,0.455,0.75-0.194c0.598-2.596,1.389-5.925,2.143-8.78l5.305-20.042
				c0.432-1.629,2.09-2.906,3.775-2.906h1.584c1.697,0,3.338,1.293,3.734,2.943l4.328,18.049c0.279,1.163,0.728,3.069,0.996,4.235
				c0.049,0.21,0.777,3.365,1.48,6.836c0.074,0.366,0.191,0.995,0.412,0.261c0.617-2.721,1.383-6.028,2.217-9.362l5.246-20.052
				c0.43-1.632,2.086-2.91,3.771-2.91h1.455c0.912,0,1.723,0.381,2.225,1.045C244.057,79.472,244.201,80.356,243.953,81.234z
				 M257.959,124.475c-4.392,0-9.383-1.985-9.592-2.07c-1.619-0.65-2.525-2.538-2.021-4.208c0,0,0.705-2.6,1.035-3.434
				c0.174-0.441,0.578-0.345,0.578-0.345l0.801,0.493c2.752,1.693,6.336,2.704,9.588,2.704c4.994,0,8.098-2.454,8.098-6.403
				c0-3.04-1.24-5.276-7.576-7.712c-8.373-2.969-12.285-7.246-12.285-13.451c0-7.655,6.283-13.002,15.281-13.002
				c5.391,0,8.728,1.435,10.236,2.29l0.273,0.154c0,0,0.492,0.361,0.326,0.826c-0.256,0.715-0.973,2.878-0.973,2.878
				c-0.424,1.253-1.529,2.061-2.814,2.061c-0.459,0-0.908-0.104-1.336-0.308c-0.018-0.008-2.266-1.043-5.908-1.043
				c-5.303,0-7.186,2.958-7.186,5.492c0,3.288,1.953,5.099,8.033,7.453c8.336,3.218,11.893,7.376,11.893,13.905
				C274.41,117.085,270.102,124.475,257.959,124.475z"/>
		</g>
	</g>
</g>
<g>
</g>
<g>
</g>
<g>
</g>
<g>
</g>
<g>
</g>
<g>
</g>
<g>
</g>
<g>
</g>
<g>
</g>
<g>
</g>
<g>
</g>
<g>
</g>
<g>
</g>
<g>
</g>
<g>
</g>
</svg>
