<?xml version="1.0" encoding="iso-8859-1"?>
<!-- Generator: Adobe Illustrator 18.1.1, SVG Export Plug-In . SVG Version: 6.00 Build 0)  -->
<svg version="1.1" id="Capa_1" xmlns="http://www.w3.org/2000/svg" xmlns:xlink="http://www.w3.org/1999/xlink" x="0px" y="0px"
	 viewBox="0 0 362 362" style="enable-background:new 0 0 362 362;" xml:space="preserve">
<g>
	<g id="Layer_5_13_">
		<g>
			<path d="M314.493,46.162c0,0-34.76,0-50.348,0c-1.781,0-2.029,1.946-2.029,1.946l-2.256,15.88c0,0-0.559,2.174,1.837,2.174
				c11.2,0,32.796,0,32.796,0c5.5,0,10,4.5,10,10V332c0,5.5-4.5,10-10,10H67.507c-5.5,0-10-4.5-10-10V76.162c0-5.5,4.5-10,10-10
				c0,0,21.973,0,33.373,0c1.708,0,1.311-1.827,1.311-1.827L99.87,47.989c0,0-0.354-1.827-1.854-1.827c-15.629,0-50.508,0-50.508,0
				c-5.5,0-10,4.5-10,10V352c0,5.5,4.5,10,10,10h266.985c5.5,0,10-4.5,10-10V56.162C324.493,50.662,319.993,46.162,314.493,46.162z"
				/>
			<path d="M236.579,29.996h-20.64c-1.25,0-1.431-1.808-1.608-2.693C211.221,11.734,197.484,0,181,0
				c-16.334,0-29.969,11.52-33.244,26.876c-0.219,1.023-0.15,3.12-1.734,3.12H125.42c-3.299,0-5.62,2.673-5.156,5.941l5.318,37.455
				c0.464,3.267,3.543,5.94,6.844,5.94h97.148c3.299,0,6.379-2.673,6.843-5.94l5.318-37.455
				C242.2,32.669,239.88,29.996,236.579,29.996z M181.001,38.5c-5.662,0-10.25-4.589-10.25-10.25S175.339,18,181.001,18
				c5.66,0,10.25,4.589,10.25,10.25S186.661,38.5,181.001,38.5z"/>
			<g>
				<path d="M203.821,135.73c0,2.182-1.783,3.966-3.965,3.966H91.218c-2.18,0-3.965-1.784-3.965-3.966v-8.151
					c0-2.181,1.785-3.966,3.965-3.966h108.639c2.182,0,3.965,1.785,3.965,3.966v8.151H203.821z"/>
				<g>
					<path d="M256.419,148.398c-1.701,1.7-4.482,1.701-6.184,0l-15.584-15.586c-1.7-1.701-1.699-4.482,0-6.183l3.996-3.994
						c1.699-1.7,4.483-1.7,6.183,0.001l5.407,5.406c1.699,1.701,4.482,1.7,6.182,0l13.133-13.131c1.699-1.7,4.483-1.701,6.182,0
						l3.995,3.994c1.7,1.701,1.7,4.483,0,6.184L256.419,148.398z"/>
				</g>
			</g>
			<g>
				<path d="M203.821,191.699c0,2.182-1.783,3.967-3.965,3.967H91.218c-2.18,0-3.965-1.785-3.965-3.967v-8.15
					c0-2.182,1.785-3.967,3.965-3.967h108.639c2.182,0,3.965,1.785,3.965,3.967v8.15H203.821z"/>
				<g>
					<path d="M256.419,204.367c-1.701,1.699-4.482,1.699-6.184,0l-15.584-15.586c-1.7-1.701-1.699-4.484,0-6.184l3.996-3.994
						c1.699-1.699,4.483-1.699,6.183,0.002l5.407,5.406c1.699,1.699,4.482,1.699,6.182,0l13.133-13.131
						c1.699-1.701,4.483-1.701,6.182,0l3.995,3.994c1.7,1.699,1.7,4.482,0,6.184L256.419,204.367z"/>
				</g>
			</g>
			<g>
				<path d="M170.751,247.668c0,2.182-1.783,3.966-3.965,3.966H91.218c-2.18,0-3.965-1.784-3.965-3.966v-8.151
					c0-2.181,1.785-3.966,3.965-3.966h75.568c2.182,0,3.965,1.785,3.965,3.966L170.751,247.668L170.751,247.668z"/>
				<g>
					<path d="M256.419,260.335c-1.701,1.7-4.482,1.7-6.184,0l-15.584-15.586c-1.7-1.7-1.699-4.483,0-6.183l3.996-3.994
						c1.699-1.699,4.483-1.699,6.183,0.001l5.407,5.406c1.699,1.7,4.482,1.7,6.182,0l13.133-13.131c1.699-1.7,4.483-1.7,6.182,0
						l3.995,3.994c1.7,1.7,1.7,4.483,0,6.184L256.419,260.335z"/>
				</g>
			</g>
		</g>
	</g>
</g>
<g>
</g>
<g>
</g>
<g>
</g>
<g>
</g>
<g>
</g>
<g>
</g>
<g>
</g>
<g>
</g>
<g>
</g>
<g>
</g>
<g>
</g>
<g>
</g>
<g>
</g>
<g>
</g>
<g>
</g>
</svg>
