<?xml version="1.0" encoding="iso-8859-1"?>
<!-- Generator: Adobe Illustrator 18.1.1, SVG Export Plug-In . SVG Version: 6.00 Build 0)  -->
<svg version="1.1" id="Capa_1" xmlns="http://www.w3.org/2000/svg" xmlns:xlink="http://www.w3.org/1999/xlink" x="0px" y="0px"
	 viewBox="0 0 390.753 390.753" style="enable-background:new 0 0 390.753 390.753;" xml:space="preserve">
<g>
	<g id="Layer_5_80_">
		<g>
			<path d="M244.004,73.815c8.313-12.583-2.108-16.426-7.152-18.264c-20.37-7.417-42.757-11.518-66.254-11.518
				C76.379,44.033,0,109.954,0,191.272c0,80.555,74.952,146.001,167.95,147.222c0.881,0.012,1.764,0.018,2.648,0.018
				c5.476,0,17.403-1.608,14.593-15.696c0,0-9.095-83.543-12.914-116.381c-1.963-16.877,6.651-28.491,6.651-28.491L244.004,73.815z"
				/>
			<path d="M380.571,173.644c10.123,0,10.413-7.2,10.116-10.751c-3.974-47.535-34.097-88.815-78.014-113.186
				c-3.62-2.009-11.268-5.675-17.997,5.308l-68.882,110.217c0,0-6.392,8.412,7.795,8.412
				C272.976,173.644,380.571,173.644,380.571,173.644z"/>
			<path d="M356.925,201.068c0,0-115.202,0-153.602,0c-10.404,0-9.193,7.52-9.193,7.52l14.39,129.924
				c1.235,10.719,10.819,8.142,15.622,7.386c76.777-12.102,135.612-68.552,139.543-137.469
				C363.825,205.99,364.492,201.068,356.925,201.068z"/>
		</g>
	</g>
</g>
<g>
</g>
<g>
</g>
<g>
</g>
<g>
</g>
<g>
</g>
<g>
</g>
<g>
</g>
<g>
</g>
<g>
</g>
<g>
</g>
<g>
</g>
<g>
</g>
<g>
</g>
<g>
</g>
<g>
</g>
</svg>
