<?xml version="1.0" encoding="iso-8859-1"?>
<!-- Generator: Adobe Illustrator 18.1.1, SVG Export Plug-In . SVG Version: 6.00 Build 0)  -->
<svg version="1.1" id="Capa_1" xmlns="http://www.w3.org/2000/svg" xmlns:xlink="http://www.w3.org/1999/xlink" x="0px" y="0px"
	 viewBox="0 0 358.122 358.122" style="enable-background:new 0 0 358.122 358.122;" xml:space="preserve">
<g>
	<g id="Layer_5_11_">
		<g>
			<g>
				<path d="M329.761,24.162h-301.4C12.724,24.162,0,36.885,0,52.523v213.621c0,15.324,12.221,27.84,27.425,28.337h303.272
					c15.206-0.496,27.425-13.013,27.425-28.337V52.523C358.121,36.885,345.398,24.162,329.761,24.162z M337.321,262.593
					c0,6.013-4.887,11.24-10.89,11.65l-0.179,0.012L31.69,274.243c-6.005-0.411-10.89-5.637-10.89-11.65V57.182
					c0-6.443,5.242-11.686,11.687-11.686h293.146c6.444,0,11.687,5.242,11.687,11.686v205.411H337.321z"/>
				<path d="M311.036,63.09H46.412c-8.833,0-8.833,7.47-8.833,8.197V248.84c0,0.551,0,7.823,7.341,7.823h268.208
					c7.414,0,7.414-6.823,7.414-7.374V72.258C320.542,71.53,320.542,63.09,311.036,63.09z M143.096,165.96
					c0,4.911-4.019,8.929-8.93,8.929c0,0-11.79-1.661-15.21,0c-1.741,0.847-3.248,2.352-4.094,4.094c-1.663,3.42,0,15.211,0,15.211
					c0,4.911-4.019,8.929-8.93,8.929H93.764c-4.911,0-8.93-4.018-8.93-8.929c0,0,1.661-11.79,0-15.211
					c-0.846-1.742-2.351-3.248-4.094-4.094c-3.422-1.661-15.209,0-15.209,0c-4.912,0-8.929-4.018-8.929-8.929v-12.169
					c0-4.911,4.017-8.929,8.929-8.929c0,0,11.787,1.661,15.209,0c1.743-0.846,3.248-2.352,4.094-4.094c1.661-3.421,0-15.21,0-15.21
					c0-4.911,4.019-8.929,8.93-8.929h12.168c4.911,0,8.93,4.018,8.93,8.929c0,0-1.663,11.79,0,15.21
					c0.846,1.742,2.352,3.248,4.094,4.094c3.42,1.661,15.21,0,15.21,0c4.911,0,8.93,4.018,8.93,8.929V165.96z M207.122,207.27
					c0,4.436-3.628,8.066-8.065,8.066h-15.738c-4.436,0-8.065-3.629-8.065-8.066v-11.615c0-4.436,3.63-8.065,8.065-8.065h15.737
					c4.438,0,8.065,3.629,8.065,8.065v11.615H207.122z M207.122,165.684c0,4.436-3.628,8.065-8.065,8.065h-15.738
					c-4.436,0-8.065-3.629-8.065-8.065v-11.616c0-4.436,3.63-8.065,8.065-8.065h15.737c4.438,0,8.065,3.629,8.065,8.065v11.616
					H207.122z M207.122,124.098c0,4.436-3.628,8.065-8.065,8.065h-15.738c-4.436,0-8.065-3.629-8.065-8.065v-11.616
					c0-4.436,3.63-8.065,8.065-8.065h15.737c4.438,0,8.065,3.629,8.065,8.065v11.616H207.122z M249.677,207.27
					c0,4.436-3.628,8.066-8.065,8.066h-15.738c-4.434,0-8.064-3.629-8.064-8.066v-11.615c0-4.436,3.63-8.065,8.064-8.065h15.738
					c4.438,0,8.065,3.629,8.065,8.065V207.27z M249.677,165.684c0,4.436-3.628,8.065-8.065,8.065h-15.738
					c-4.434,0-8.064-3.629-8.064-8.065v-11.616c0-4.436,3.63-8.065,8.064-8.065h15.738c4.438,0,8.065,3.629,8.065,8.065V165.684z
					 M249.677,124.098c0,4.436-3.628,8.065-8.065,8.065h-15.738c-4.434,0-8.064-3.629-8.064-8.065v-11.616
					c0-4.436,3.63-8.065,8.064-8.065h15.738c4.438,0,8.065,3.629,8.065,8.065V124.098z M292.234,207.27
					c0,4.436-3.63,8.066-8.065,8.066h-15.74c-4.435,0-8.064-3.629-8.064-8.066v-11.615c0-4.436,3.63-8.065,8.064-8.065h15.74
					c4.435,0,8.065,3.629,8.065,8.065V207.27z M292.234,165.684c0,4.436-3.63,8.065-8.065,8.065h-15.74
					c-4.435,0-8.064-3.629-8.064-8.065v-11.616c0-4.436,3.63-8.065,8.064-8.065h15.74c4.435,0,8.065,3.629,8.065,8.065V165.684z
					 M292.234,124.098c0,4.436-3.63,8.065-8.065,8.065h-15.74c-4.435,0-8.064-3.629-8.064-8.065v-11.616
					c0-4.436,3.63-8.065,8.064-8.065h15.74c4.435,0,8.065,3.629,8.065,8.065V124.098z"/>
			</g>
			<g>
				<path d="M131.989,323.207c0,5.939-4.814,10.753-10.753,10.753H60.05c-5.939,0-10.754-4.814-10.754-10.753l0,0
					c0-5.939,4.815-10.754,10.754-10.754h61.186C127.174,312.453,131.989,317.268,131.989,323.207L131.989,323.207z"/>
				<path d="M308.824,323.207c0,5.939-4.815,10.753-10.754,10.753h-61.184c-5.94,0-10.753-4.814-10.753-10.753l0,0
					c0-5.939,4.813-10.754,10.753-10.754h61.184C304.008,312.453,308.824,317.268,308.824,323.207L308.824,323.207z"/>
			</g>
		</g>
	</g>
</g>
<g>
</g>
<g>
</g>
<g>
</g>
<g>
</g>
<g>
</g>
<g>
</g>
<g>
</g>
<g>
</g>
<g>
</g>
<g>
</g>
<g>
</g>
<g>
</g>
<g>
</g>
<g>
</g>
<g>
</g>
</svg>
