<?xml version="1.0" encoding="iso-8859-1"?>
<!-- Generator: Adobe Illustrator 18.1.1, SVG Export Plug-In . SVG Version: 6.00 Build 0)  -->
<svg version="1.1" id="Capa_1" xmlns="http://www.w3.org/2000/svg" xmlns:xlink="http://www.w3.org/1999/xlink" x="0px" y="0px"
	 viewBox="0 0 385.633 385.633" style="enable-background:new 0 0 385.633 385.633;" xml:space="preserve">
<g>
	<g id="Layer_5_97_">
		<g>
			<path d="M236.884,76.665c-11.65-10.545-27.427-16.353-44.423-16.353c-16.997,0-32.774,5.808-44.424,16.353
				c-12.131,10.98-18.813,26.287-18.813,43.099c0,26.265,10.886,36.869,19.632,45.391l1.172,1.137
				c5.081,4.915,12.118,8.804,9.763,16.071c-0.771,2.378-2.652,4.181-2.652,6.689c0,5.098,1.463,11.603,13.099,15.511
				c1.139,0.366,1.471,1.234,1.77,1.68c2.557,3.817,8.181,7.648,20.452,7.648c12.134,0,17.763-3.849,20.362-7.65
				c0.297-0.435,0.68-1.312,1.69-1.616c12.322-4.139,13.268-11.391,13.268-15.572c0-2.485-1.892-4.34-2.659-6.697
				c-2.4-7.369,4.658-11.251,9.739-16.143l1.242-1.2c8.73-8.476,19.594-19.023,19.594-45.248
				C255.697,102.953,249.015,87.646,236.884,76.665z M192.461,76.456c27.288,0,47.093,18.214,47.093,43.308
				c0,19.398-6.81,26.011-14.697,33.669c-7.832,7.603-15.485,16.187-16.168,30.2c-0.025,0.523-0.021,1.297-1.228,2.132
				c-1.516,0.804-4.902,2.099-15,2.099c-10.283,0-13.523-1.293-14.904-2.022c-1.304-0.911-1.329-1.898-1.362-2.539
				c-0.761-14.789-9.217-23.028-16.074-29.709c-7.917-7.714-14.754-14.377-14.754-33.829
				C145.366,94.67,165.172,76.456,192.461,76.456z"/>
			<path d="M323.816,378.784l-45.547-120.389c-1.156-3.056-10.955-23.224-29.148-23.224c-5.752,0-105.555,0.15-108.82,0.15
				c0,0-0.532,0-3.771,0c-20.364,0-27.987,20.018-29.142,23.073l-45.55,120.389c-1.157,3.054-0.485,6.849,5.924,6.849
				c0,0,24.585,0,33.612,0c6.125,0,8.032-5.36,8.032-5.36l21.716-58.268c0,0,2.73-7.461,2.73,0.632
				c0,11.123,0.144,40.841,0.217,55.12c0.024,4.815,0.771,7.876,6.458,7.876c29.456,0,83.173,0,110.898,0
				c7.874,0,6.915-4.099,6.897-10.281c-0.043-15.072-0.117-42.527-0.117-53.152c0-5.468,1.939-1.738,1.939-1.738l20.395,58.901
				c0,0,1.945,6.271,9.164,6.271c7.672,0,27.854,0,27.854,0C324.179,385.633,324.974,381.838,323.816,378.784z M219.635,344.258
				l-22.92,21.078c-2.145,1.972-5.655,1.972-7.798,0l-22.921-21.078c-2.146-1.971-3.41-5.918-2.814-8.767l11.952-57.076
				c0.181-0.852,0.72-3.435,0.673-4.021c-0.234-3.01-0.939-12.037-0.939-12.037c-0.229-2.904,1.97-5.281,4.883-5.281h26.129
				c2.912,0,5.11,2.377,4.883,5.281c0,0-0.705,9.027-0.938,12.037c-0.047,0.584,0.494,3.17,0.674,4.021l11.949,57.076
				C223.046,338.34,221.781,342.287,219.635,344.258z"/>
			<g>
				<path d="M198.694,140.636c0,3.443-2.791,6.233-6.233,6.233l0,0c-3.442,0-6.233-2.79-6.233-6.233l-2.934-39.602
					c0-3.442,3.301-6.233,9.168-6.233l0,0c6.112,0,9.167,2.791,9.167,6.233L198.694,140.636z"/>
				<circle cx="192.461" cy="162.643" r="6.967"/>
			</g>
			<g>
				<path d="M192.461,40.203c-4.971,0-9-4.029-9-9V9c0-4.971,4.029-9,9-9c4.97,0,8.999,4.029,8.999,9v22.203
					C201.46,36.174,197.431,40.203,192.461,40.203z"/>
			</g>
			<g>
				<path d="M265.158,70.222c-3.037,0-5.998-1.535-7.693-4.317c-2.588-4.244-1.245-9.781,3-12.368l20.012-12.197
					c4.244-2.589,9.781-1.243,12.369,3.001c2.586,4.244,1.244,9.781-3.002,12.368l-20.012,12.197
					C268.371,69.797,266.754,70.222,265.158,70.222z"/>
			</g>
			<g>
				<path d="M119.765,70.222c-1.596,0-3.212-0.424-4.675-1.316L95.077,56.709c-4.244-2.587-5.588-8.125-3.001-12.369
					c2.586-4.246,8.123-5.591,12.369-3.002l20.013,12.197c4.244,2.587,5.588,8.125,3.001,12.369
					C125.763,68.686,122.8,70.222,119.765,70.222z"/>
			</g>
		</g>
	</g>
</g>
<g>
</g>
<g>
</g>
<g>
</g>
<g>
</g>
<g>
</g>
<g>
</g>
<g>
</g>
<g>
</g>
<g>
</g>
<g>
</g>
<g>
</g>
<g>
</g>
<g>
</g>
<g>
</g>
<g>
</g>
</svg>
