<?xml version="1.0" encoding="iso-8859-1"?>
<!-- Generator: Adobe Illustrator 18.1.1, SVG Export Plug-In . SVG Version: 6.00 Build 0)  -->
<svg version="1.1" id="Capa_1" xmlns="http://www.w3.org/2000/svg" xmlns:xlink="http://www.w3.org/1999/xlink" x="0px" y="0px"
	 viewBox="0 0 367.026 367.026" style="enable-background:new 0 0 367.026 367.026;" xml:space="preserve">
<g>
	<g id="Layer_5_54_">
		<g>
			<g>
				<path d="M88.704,87.862c22.924,0,41.494-18.591,41.494-41.518c0-22.901-18.569-41.494-41.494-41.494
					c-22.929,0-41.518,18.593-41.518,41.494C47.186,69.271,65.775,87.862,88.704,87.862z"/>
				<path d="M175.17,209.677c-5.163-11.837-9.501-24.202-13.696-36.156c-10.989-31.352-24.135-75.557-45.167-75.557
					c-0.827,0-48.574,0-55.39,0c-21.845,0-34.198,44.205-45.167,75.557c-4.218,11.954-8.532,24.319-13.714,36.156
					c-3.567,8.167-2.837,17.664,5.329,21.23c2.097,0.908,4.275,1.353,6.432,1.353c6.211,0,10.695-4.772,13.338-10.821
					c4.046-9.279,10.628-29.432,14.948-41.802c1.004-2.874,2.254-4.749,2.005,0.251v41.87c0,1.929,0.447,3.755,1.239,5.388
					c0.494,1.017,3.837,4.5,3.749,6.625v108.375c0,11.062,7.61,20.03,18.231,20.03c10.622,0,16.238-8.968,16.238-20.03V237.263
					c0,0-0.042-3.026,4.806-3.026c0.344,0-0.687,0-0.343,0c4.791,0,4.703,3.026,4.703,3.026v104.883
					c0,11.062,5.591,20.03,16.211,20.03c10.622,0,18.232-8.968,18.232-20.03V236.013c0-3.125,2.301-5.353,3.197-6.463
					c1.725-2.137,2.762-4.847,2.762-7.792v-43.495c0-4.187,0.864-1.808,1.302-0.203c3.383,12.414,9.994,34.815,14.228,44.521
					c2.647,6.05,6.55,9.679,12.759,9.679c2.16,0,4.357-0.445,6.453-1.353C176.004,227.341,178.734,217.844,175.17,209.677z
					 M104.694,160.617l-13.676,12.577c-1.279,1.177-3.374,1.177-4.653,0l-13.676-12.577c-1.28-1.176-2.035-3.53-1.679-5.23
					l7.131-34.054c0.107-0.509,0.429-2.05,0.401-2.4c-0.14-1.795-0.56-7.182-0.56-7.182c-0.136-1.733,1.175-3.151,2.913-3.151
					h15.591c1.738,0,3.049,1.418,2.913,3.151c0,0-0.42,5.386-0.561,7.182c-0.027,0.349,0.296,1.891,0.402,2.4l7.13,34.054
					C106.729,157.087,105.974,159.441,104.694,160.617z"/>
			</g>
			<path d="M245.039,48.347c0,0,41.474,0,55.298,0c3.406,0,3.406-3.243,3.406-3.243v-10.5c0,0,0-3.257-3.697-3.257
				c-13.752,0-55.007,0-55.007,0c-11.881,0-21.546,9.665-21.546,21.546v119.545c0,0,0.344,2.575-1.823,2.575
				c-8.375,0-22.781,0-30.375,0c-2.831,0-2.831,2.591-2.831,2.591v11.333c0,0-0.271,3.076,2.56,3.076c7.581,0,22.22,0,30.595,0
				c2.094,0,1.875,2.341,1.875,2.341v119.78c0,11.88,9.665,21.545,21.546,21.545h55.34c0,0,3.364,0,3.364-3.408
				c0-2.417,0-7.25,0-9.667c0-3.875-3.364-3.925-3.364-3.925h-55.34c-2.464,0-4.546-2.081-4.546-4.545V195.188
				c0,0-0.406-3.175,2.302-3.175c14.417,0,42.675,0,57.667,0c3.281,0,3.281-2.909,3.281-2.909v-11.5c0,0,0-2.591-3.156-2.591
				c-15.023,0-42.802,0-57.25,0c-2.958,0-2.844-2.992-2.844-2.992V52.892C240.493,50.428,242.575,48.347,245.039,48.347z"/>
			<circle cx="337.803" cy="183.513" r="14.909"/>
			<circle cx="337.803" cy="327.179" r="14.909"/>
			<g>
				<g>
					<g>
						<path d="M344.203,59.678c-1.498,1.61-4.162,1.845-5.92,0.522l-16.405-12.355c-1.758-1.323-2.112-3.844-0.789-5.601
							l3.609-4.793c1.323-1.757,3.844-2.112,5.602-0.789l6.329,4.767c1.758,1.323,4.422,1.088,5.92-0.522l13.162-14.143
							c1.499-1.61,4.043-1.702,5.653-0.203l4.393,4.088c1.61,1.499,1.701,4.043,0.202,5.653L344.203,59.678z"/>
					</g>
				</g>
			</g>
		</g>
	</g>
</g>
<g>
</g>
<g>
</g>
<g>
</g>
<g>
</g>
<g>
</g>
<g>
</g>
<g>
</g>
<g>
</g>
<g>
</g>
<g>
</g>
<g>
</g>
<g>
</g>
<g>
</g>
<g>
</g>
<g>
</g>
</svg>
