<?xml version="1.0" encoding="iso-8859-1"?>
<!-- Generator: Adobe Illustrator 18.1.1, SVG Export Plug-In . SVG Version: 6.00 Build 0)  -->
<svg version="1.1" id="Capa_1" xmlns="http://www.w3.org/2000/svg" xmlns:xlink="http://www.w3.org/1999/xlink" x="0px" y="0px"
	 viewBox="0 0 346.328 346.328" style="enable-background:new 0 0 346.328 346.328;" xml:space="preserve">
<g>
	<g id="Layer_5_76_">
		<path d="M344.714,75.968c-0.53-2.824-2.244-8.143-9.316-1.07l-45.169,45.167c-6.223,6.223-16.404,6.223-22.627,0l-41.34-41.339
			c-6.223-6.223-6.223-16.405,0-22.628l45.169-45.168c6.978-6.979,0.29-9.122-3.281-9.705c-28.619-4.672-58.996,4.022-81.065,26.093
			c-26.075,26.075-34.213,61.511-22.961,94.178c0.652,1.893,3.257,7.481-1.384,12.123c0,0-56.971,56.97-75.489,75.488
			c-4.192,4.193-6.803,1.683-6.803,1.683c-5.445-5.444-14.355-5.444-19.799,0L4.084,267.355c-5.444,5.445-5.444,14.354,0,19.8
			l55.091,55.09c5.444,5.445,14.354,5.445,19.799,0l56.564-56.565c5.445-5.445,5.445-14.354,0-19.799c0,0-2.038-3.082,1.683-6.803
			c18.519-18.519,75.489-75.489,75.489-75.489c4.817-4.818,8.44-2.643,9.914-2.112c32.95,11.874,69.98,4.173,96.386-22.232
			C341.649,136.604,350.214,105.225,344.714,75.968z M87.888,294.501c-9.957,9.958-26.102,9.958-36.06,0
			c-9.957-9.958-9.957-26.103,0-36.061c9.958-9.958,26.103-9.958,36.06,0C97.846,268.398,97.846,284.543,87.888,294.501z"/>
	</g>
</g>
<g>
</g>
<g>
</g>
<g>
</g>
<g>
</g>
<g>
</g>
<g>
</g>
<g>
</g>
<g>
</g>
<g>
</g>
<g>
</g>
<g>
</g>
<g>
</g>
<g>
</g>
<g>
</g>
<g>
</g>
</svg>
