<?xml version="1.0" encoding="UTF-8" ?>
<!DOCTYPE svg PUBLIC "-//W3C//DTD SVG 1.1//EN" "http://www.w3.org/Graphics/SVG/1.1/DTD/svg11.dtd">
<svg width="476pt" height="611pt" viewBox="0 0 476 611" version="1.1" xmlns="http://www.w3.org/2000/svg">
<path fill="#fefdfd" d=" M 0.00 0.00 L 227.27 0.00 C 183.68 2.01 140.67 16.02 104.58 40.61 C 61.34 69.76 28.11 113.49 11.85 163.06 C 4.90 183.79 1.17 205.51 0.00 227.32 L 0.00 0.00 Z" />
<path fill="#ee4136" d=" M 227.27 0.00 L 248.64 0.00 C 289.56 1.97 330.00 14.36 364.63 36.33 C 412.80 66.50 449.54 114.46 465.79 168.96 C 472.37 190.46 475.52 212.91 476.00 235.37 L 476.00 240.65 C 475.39 281.09 464.68 321.38 444.40 356.43 C 427.48 385.91 404.12 411.65 376.51 431.47 C 343.30 455.34 303.82 470.42 263.12 474.61 C 213.43 479.97 162.11 469.29 118.89 444.13 C 88.39 426.51 61.90 402.04 41.89 373.06 C 16.55 336.62 2.10 292.95 0.00 248.66 L 0.00 227.32 C 1.17 205.51 4.90 183.79 11.85 163.06 C 28.11 113.49 61.34 69.76 104.58 40.61 C 140.67 16.02 183.68 2.01 227.27 0.00 Z" />
<path fill="#fefdfd" d=" M 248.64 0.00 L 476.00 0.00 L 476.00 235.37 C 475.52 212.91 472.37 190.46 465.79 168.96 C 449.54 114.46 412.80 66.50 364.63 36.33 C 330.00 14.36 289.56 1.97 248.64 0.00 Z" />
<path fill="#fefdfd" d=" M 161.27 110.25 C 184.15 96.43 210.84 88.95 237.58 89.05 C 237.29 111.94 237.66 134.82 237.77 157.70 C 219.83 157.53 201.99 163.93 188.01 175.12 C 175.83 184.75 166.56 198.00 161.70 212.75 C 155.46 231.23 156.42 252.01 164.29 269.85 C 171.82 287.29 185.81 301.85 202.92 310.10 C 213.84 315.61 226.09 317.97 238.26 318.30 C 238.56 341.15 238.59 364.00 238.42 386.86 C 207.11 386.80 175.79 377.09 150.52 358.48 C 123.28 338.74 102.87 309.61 94.20 277.06 C 85.84 246.23 87.60 212.70 99.48 183.03 C 111.36 152.87 133.49 126.92 161.27 110.25 Z" />
<path fill="#fefdfd" d=" M 444.40 356.43 C 464.68 321.38 475.39 281.09 476.00 240.65 L 476.00 611.00 L 0.00 611.00 L 0.00 248.66 C 2.10 292.95 16.55 336.62 41.89 373.06 C 61.90 402.04 88.39 426.51 118.89 444.13 C 162.11 469.29 213.43 479.97 263.12 474.61 C 303.82 470.42 343.30 455.34 376.51 431.47 C 404.12 411.65 427.48 385.91 444.40 356.43 Z" />
<path fill="#070707" d=" M 445.47 609.00 C 445.51 579.91 445.47 550.83 445.49 521.75 C 451.33 521.74 457.16 521.75 463.00 521.75 C 463.00 550.83 463.00 579.91 463.00 609.00 C 457.16 609.00 451.31 609.00 445.47 609.00 Z" />
<path fill="#070707" d=" M 223.50 545.72 C 223.69 539.42 223.07 533.05 223.77 526.81 C 229.51 526.63 235.26 526.81 241.00 526.74 C 241.01 533.08 240.98 539.42 241.01 545.77 C 245.26 545.72 249.52 545.77 253.77 545.75 C 253.77 549.75 253.77 553.76 253.76 557.77 C 249.51 557.77 245.25 557.77 241.00 557.77 C 241.01 568.19 240.98 578.62 241.02 589.04 C 241.04 591.28 241.36 594.26 243.77 595.23 C 246.97 596.42 250.46 595.69 253.76 595.45 C 253.77 600.01 253.78 604.58 253.77 609.15 C 246.51 609.87 238.95 610.40 231.89 608.20 C 227.04 606.75 223.65 601.98 223.54 596.97 C 223.41 583.91 223.52 570.84 223.49 557.78 C 219.99 557.77 216.49 557.77 213.00 557.78 C 213.00 553.77 213.00 549.75 213.00 545.74 C 216.50 545.77 220.00 545.71 223.50 545.72 Z" />
<path fill="#070707" d=" M 13.79 552.78 C 21.09 545.44 32.13 542.93 42.16 544.38 C 50.45 545.33 58.79 549.36 63.23 556.66 C 65.52 560.09 66.25 564.21 66.70 568.23 C 60.98 568.28 55.25 568.25 49.52 568.23 C 48.67 564.49 47.07 560.39 43.29 558.75 C 38.40 556.61 31.79 556.78 27.94 560.89 C 23.32 565.26 22.16 571.97 22.03 578.06 C 22.34 583.56 23.30 589.58 27.30 593.70 C 31.68 598.50 39.71 598.66 44.81 594.92 C 47.98 592.47 49.26 588.48 50.16 584.74 C 55.81 584.76 61.46 584.74 67.11 584.75 C 66.02 591.33 63.76 598.08 58.73 602.72 C 53.49 607.76 46.17 610.55 38.90 610.32 C 32.76 610.63 26.40 610.21 20.89 607.21 C 11.36 602.58 5.38 592.35 4.65 581.95 C 3.74 571.60 6.35 560.37 13.79 552.78 Z" />
<path fill="#070707" d=" M 78.51 558.48 C 87.39 543.86 108.95 539.49 123.02 549.01 C 133.52 556.12 137.37 569.65 136.50 581.78 C 121.30 581.76 106.09 581.77 90.88 581.78 C 91.46 586.22 92.15 591.26 95.90 594.25 C 103.28 600.06 116.03 598.09 120.16 589.24 C 125.28 589.22 130.40 589.21 135.52 589.24 C 133.52 595.57 130.14 601.83 124.48 605.58 C 120.16 608.35 115.16 610.25 109.98 610.29 C 103.89 610.26 97.49 610.77 91.81 608.12 C 83.25 604.79 76.97 596.95 74.74 588.15 C 72.27 578.29 73.09 567.25 78.51 558.48 Z" />
<path fill="#070707" d=" M 163.17 554.30 C 167.14 548.32 173.82 544.50 180.98 544.07 C 187.90 543.75 195.76 544.89 200.58 550.40 C 205.33 555.69 205.65 563.25 205.96 569.99 C 206.05 582.99 205.97 596.00 206.00 609.00 C 200.07 609.00 194.14 609.00 188.22 609.00 C 188.24 596.66 188.22 584.32 188.24 571.98 C 188.15 567.90 187.59 563.34 184.62 560.28 C 180.47 557.06 174.31 557.37 169.85 559.81 C 165.12 562.79 164.32 568.86 164.05 573.97 C 163.93 585.64 164.03 597.32 164.00 609.00 C 158.15 608.99 152.31 609.02 146.46 608.98 C 146.52 587.90 146.46 566.83 146.49 545.75 C 152.08 545.74 157.67 545.75 163.26 545.75 C 163.26 548.59 163.25 551.45 163.17 554.30 Z" />
<path fill="#070707" d=" M 278.43 557.01 C 282.66 548.21 292.72 542.44 302.48 544.39 C 302.54 549.90 302.48 555.42 302.54 560.94 C 296.40 560.04 289.31 560.02 284.52 564.61 C 279.40 569.65 279.21 577.35 279.24 584.08 C 279.26 592.39 279.25 600.69 279.25 609.00 C 273.42 609.00 267.58 609.00 261.75 609.00 C 261.75 587.91 261.75 566.83 261.75 545.75 C 267.34 545.75 272.93 545.74 278.52 545.75 C 278.50 549.50 278.55 553.25 278.43 557.01 Z" />
<path fill="#070707" d=" M 318.98 548.17 C 328.84 543.16 340.56 543.25 351.20 545.35 C 358.31 546.75 365.65 552.08 365.95 559.90 C 366.08 569.26 365.96 578.63 366.00 588.00 C 366.05 595.02 365.57 602.28 368.03 609.00 C 362.11 609.00 356.19 608.99 350.26 609.00 C 349.87 607.19 349.47 605.38 349.10 603.57 C 341.58 610.64 330.59 611.11 320.90 609.90 C 316.36 608.95 311.92 606.51 309.40 602.53 C 306.13 597.67 305.87 591.35 307.19 585.80 C 308.47 580.55 312.89 576.60 317.87 574.83 C 325.04 572.35 332.68 571.98 340.12 570.83 C 343.22 570.20 347.27 569.42 348.33 565.95 C 349.11 562.24 347.35 557.80 343.49 556.68 C 339.06 555.63 333.89 555.34 329.86 557.82 C 327.13 559.44 326.53 562.76 325.72 565.57 C 319.91 565.44 314.09 565.58 308.28 565.46 C 308.59 558.30 312.52 551.46 318.98 548.17 Z" />
<path fill="#070707" d=" M 385.54 550.52 C 393.49 544.25 404.33 543.53 414.05 544.29 C 420.43 544.82 427.40 546.13 431.95 551.02 C 434.62 553.58 436.01 557.25 436.00 560.93 C 436.01 572.28 435.99 583.63 436.00 594.98 C 436.07 599.71 436.41 604.51 438.03 609.00 C 432.09 608.99 426.16 609.01 420.23 608.99 C 419.86 607.17 419.50 605.34 419.17 603.52 C 411.65 610.66 400.63 611.03 390.91 609.90 C 384.76 608.76 379.06 604.38 377.36 598.21 C 375.59 591.58 376.21 583.45 381.57 578.58 C 386.55 574.04 393.53 573.24 399.91 572.16 C 405.22 571.23 410.97 571.55 415.87 569.00 C 420.81 566.03 418.37 557.57 413.02 556.53 C 408.69 555.70 403.72 555.38 399.83 557.83 C 397.15 559.46 396.60 562.79 395.76 565.56 C 389.94 565.46 384.12 565.57 378.30 565.47 C 378.71 559.79 380.90 554.06 385.54 550.52 Z" />
<path fill="#fefdfd" d=" M 100.07 558.14 C 104.61 556.97 110.08 556.97 113.88 560.11 C 116.87 562.75 117.91 566.75 119.00 570.43 C 109.63 570.57 100.27 570.43 90.90 570.50 C 91.43 565.11 94.71 559.80 100.07 558.14 Z" />
<path fill="#fefdfd" d=" M 328.04 583.94 C 334.43 580.67 342.04 581.84 348.52 578.80 C 348.34 584.10 349.17 590.23 345.50 594.62 C 341.36 599.57 333.85 599.91 328.17 597.81 C 322.55 595.49 322.82 586.59 328.04 583.94 Z" />
<path fill="#fefdfd" d=" M 398.04 583.96 C 404.41 580.64 412.03 581.86 418.52 578.80 C 418.38 584.11 419.14 590.15 415.54 594.58 C 411.39 599.58 403.83 599.91 398.12 597.80 C 392.68 595.37 392.82 586.59 398.04 583.96 Z" />
</svg>
