<?xml version="1.0" encoding="utf-8"?>
<!-- Generator: Adobe Illustrator 16.0.0, SVG Export Plug-In . SVG Version: 6.00 Build 0)  -->
<!DOCTYPE svg PUBLIC "-//W3C//DTD SVG 1.1//EN" "http://www.w3.org/Graphics/SVG/1.1/DTD/svg11.dtd">
<svg version="1.1" id="Layer_1" xmlns="http://www.w3.org/2000/svg" xmlns:xlink="http://www.w3.org/1999/xlink" x="0px" y="0px"
	 width="300px" height="300px" viewBox="0 0 300 300" enable-background="new 0 0 300 300" xml:space="preserve">
<g>
	<path fill="none" stroke="#231F20" stroke-width="0.7326" stroke-miterlimit="10" d="M178.862,51.005"/>
	<g>
		
			<polygon fill="#EFEFEF" stroke="#3F291E" stroke-width="5.8608" stroke-linecap="round" stroke-linejoin="round" stroke-miterlimit="10" points="
			245.742,190.334 227.563,167.492 198.72,161.939 198.72,28.746 227.563,56.515 246.791,56.482 		"/>
		
			<polygon fill="#F49089" stroke="#3F291E" stroke-width="5.8608" stroke-linecap="round" stroke-linejoin="round" stroke-miterlimit="10" points="
			198.722,161.957 73.737,234.02 73.737,100.885 198.722,28.765 		"/>
		
			<polygon fill="#EFEFEF" stroke="#3F291E" stroke-width="5.8608" stroke-linecap="round" stroke-linejoin="round" stroke-miterlimit="10" points="
			120.746,262.488 102.566,239.648 73.723,234.098 73.723,100.902 102.566,128.671 121.794,128.638 		"/>
		
			<line fill="none" stroke="#3F291E" stroke-width="3.663" stroke-linecap="round" stroke-linejoin="round" stroke-miterlimit="10" x1="102.595" y1="134.522" x2="102.595" y2="186.635"/>
		
			<line fill="none" stroke="#3F291E" stroke-width="3.663" stroke-linecap="round" stroke-linejoin="round" stroke-miterlimit="10" x1="102.595" y1="196.061" x2="102.595" y2="213.008"/>
		
			<line fill="none" stroke="#3F291E" stroke-width="3.663" stroke-linecap="round" stroke-linejoin="round" stroke-miterlimit="10" x1="102.595" y1="221.701" x2="102.595" y2="229.857"/>
		
			<circle fill="#FFFFFF" stroke="#3F291E" stroke-width="3.663" stroke-linecap="round" stroke-linejoin="round" stroke-miterlimit="10" cx="122.129" cy="95.52" r="2.93"/>
		
			<circle fill="#FFFFFF" stroke="#3F291E" stroke-width="3.663" stroke-linecap="round" stroke-linejoin="round" stroke-miterlimit="10" cx="179.596" cy="61.919" r="2.93"/>
		<path fill="none" stroke="#231F20" stroke-width="0.7326" stroke-miterlimit="10" d="M150.549,135.604"/>
		
			<polygon fill="#FB6252" stroke="#3F291E" stroke-width="5.8608" stroke-linecap="round" stroke-linejoin="round" stroke-miterlimit="10" points="
			246.795,190.229 121.811,262.289 121.811,129.154 246.795,57.035 		"/>
		
			<circle fill="#FFFFFF" stroke="#3F291E" stroke-width="3.663" stroke-linecap="round" stroke-linejoin="round" stroke-miterlimit="10" cx="159.693" cy="129.028" r="4.762"/>
		
			<circle fill="#FFFFFF" stroke="#3F291E" stroke-width="3.663" stroke-linecap="round" stroke-linejoin="round" stroke-miterlimit="10" cx="216.835" cy="96.793" r="4.762"/>
		
			<path fill="none" stroke="#3F291E" stroke-width="3.663" stroke-linecap="round" stroke-linejoin="round" stroke-miterlimit="10" d="
			M217.137,97.404c0,50.677-3.275,82.381-26.443,90.879c-13.712,5.031-31.368-12.672-31.368-58.548"/>
		<path fill="#FFFFFF" d="M134.544,135.37c-1.714,0.001-3.112,1.396-3.112,3.115l0.033,75.65c0,1.717,1.399,3.109,3.115,3.109
			c1.718,0,3.112-1.396,3.112-3.109l-0.033-75.653C137.661,136.763,136.263,135.37,134.544,135.37"/>
		<path fill="#FFFFFF" d="M134.56,222.453c-1.716,0-3.114,1.396-3.112,3.115l0.001,4.824c0,1.719,1.399,3.113,3.115,3.113
			c1.72,0,3.113-1.396,3.112-3.115l-0.001-4.826C137.676,223.846,136.278,222.453,134.56,222.453"/>
	</g>
</g>
<circle fill="#69CC66" cx="227.615" cy="215.07" r="46.498"/>
<g>
	<path fill="#FFE229" d="M245.011,218.073c-2.04,7.64-9.09,13.188-17.345,13.002c-9.69-0.216-17.371-8.247-17.154-17.938
		s8.247-17.371,17.938-17.154c5.174,0.115,9.772,2.458,12.903,6.093l4.949-7.269c-4.63-4.345-10.816-7.063-17.664-7.216
		c-14.746-0.33-26.969,11.358-27.298,26.104s11.359,26.969,26.105,27.297c13.651,0.305,25.14-9.689,27.03-22.875"/>
	<polygon fill="#FFE229" points="239.918,218 249.61,201.213 259.303,218 253.636,218 244.192,218 	"/>
	
		<path fill="none" stroke="#3F291E" stroke-width="3.663" stroke-linecap="round" stroke-linejoin="round" stroke-miterlimit="10" d="
		M245.011,218.073c-2.04,7.64-9.09,13.188-17.345,13.002c-9.69-0.216-17.371-8.247-17.154-17.938s8.247-17.371,17.938-17.154
		c5.174,0.115,9.772,2.458,12.903,6.093l4.949-7.269c-4.63-4.345-10.816-7.063-17.664-7.216
		c-14.746-0.33-26.969,11.358-27.298,26.104s11.359,26.969,26.105,27.297c13.651,0.305,25.14-9.689,27.03-22.875"/>
	
		<polyline fill="none" stroke="#3F291E" stroke-width="4" stroke-linecap="round" stroke-linejoin="round" stroke-miterlimit="10" points="
		245,219 239.918,219 249.61,202.213 259.303,219 254,219 	"/>
</g>
</svg>
