<?xml version="1.0" encoding="utf-8"?>
<!-- Generator: Adobe Illustrator 24.2.3, SVG Export Plug-In . SVG Version: 6.00 Build 0)  -->
<svg version="1.1" id="Layer_1" xmlns="http://www.w3.org/2000/svg" xmlns:xlink="http://www.w3.org/1999/xlink" x="0px" y="0px"
	 viewBox="0 0 610.8 104.4" style="enable-background:new 0 0 610.8 104.4;" xml:space="preserve">
<style type="text/css">
	.st0{fill:none;}
	.st1{fill:#EC6552;}
</style>
<g id="frame">
	<rect x="-98" y="-96" class="st0" width="805" height="297.6"/>
</g>
<g id="artwork">
	<g>
		<path class="st1" d="M38.7,31c-6.9,0-13.1,2.5-18.4,6.7v-32H2.1v95.8h18.2v-6.2c4,3.7,10.3,7.1,17.4,7.1c21.7,0,36-14.7,36-35.7
			C73.7,45.8,59.8,31.1,38.7,31z M37.6,86.8c-9.9,0-17.9-9-17.9-20.1s8-20.1,17.9-20.1s17.9,9,17.9,20.1
			C55.4,77.8,47.5,86.8,37.6,86.8z"/>
		<path class="st1" d="M596.7,34.5c-6.4-4.1-14.3-4.6-21.2-1.4l-17.6,8.2v-9.6h-18.2v69.8H558V58.8L583.3,47c1.6-0.8,3-0.2,3.7,0.2
			s1.8,1.4,1.8,3.2v51H607V52.9C606.9,45.5,603.1,38.5,596.7,34.5z"/>
		<path class="st1" d="M228.9,70.8L196.2,86c-3.6,1.7-6.7,0.2-7.8-0.5c-1.1-0.7-3.8-2.8-3.8-6.8V50h44.2V33.9h-44.2V15.8h-18.2V76
			c0,9,4.6,17.3,12.2,22.2c4.3,2.7,9.2,4.1,14.1,4.1c3.8,0,7.6-0.8,11.1-2.5l25-11.6L228.9,70.8L228.9,70.8z"/>
		<path class="st1" d="M303.4,70.8L270.7,86c-3.6,1.7-6.7,0.2-7.8-0.5c-1.1-0.7-3.8-2.8-3.8-6.8V50h44.2V33.9h-44.2V15.8h-18.2V76
			c0,9,4.6,17.3,12.2,22.2c4.3,2.7,9.2,4.1,14.1,4.1c3.8,0,7.6-0.8,11.1-2.5l25-11.6L303.4,70.8L303.4,70.8z"/>
		<path class="st1" d="M119.4,102.4c11,0,19.4-3.8,21-4.6l15.4-7.2V73.1l-23.5,11c-0.1,0-5.7,2.8-12.9,2.8c-4.7,0-8.7-1.4-11.8-3.9
			L153,61.8h0.1C151.5,43,137.9,31,118.4,31.1c-21.1,0.1-35.8,14.8-35.8,35.8C82.6,87.8,97.7,102.4,119.4,102.4z M118.5,46.7
			c0.1,0,0.1,0,0.2,0c6.3,0,10.8,2.7,13.5,7.3l-31.3,14.6c0-0.6-0.1-1.2-0.1-1.8C100.8,54.7,107.4,46.7,118.5,46.7z"/>
		<path class="st1" d="M350,102.4c11,0,19.4-3.8,21-4.6l15.4-7.2V73.1l-23.5,11c-0.1,0-5.7,2.8-12.9,2.8c-4.7,0-8.7-1.4-11.8-3.9
			l45.4-21.2h0.1C382.1,43,368.5,31,349,31.1c-21.1,0.1-35.8,14.8-35.8,35.8C313.1,87.8,328.3,102.4,350,102.4z M349.1,46.7
			c0.1,0,0.1,0,0.2,0c6.3,0,10.8,2.7,13.5,7.3l-31.3,14.6c0-0.6-0.1-1.2-0.1-1.8C331.4,54.7,338,46.7,349.1,46.7z"/>
		<polygon class="st1" points="448.9,30.7 416.1,46 416.1,31.7 397.8,31.7 397.8,101.5 416.1,101.5 416.1,63.6 448.9,48.3 		"/>
		<polygon class="st1" points="523.8,7.6 505.6,5.5 505.6,23.9 523.8,25.9 		"/>
		<path class="st1" d="M476,33.9v-4.4c0-2.3,1-4.5,2.7-6.1c1.8-1.6,4-2.3,6.3-2l7.8,0.9V4l-5.7-0.7c-7.5-0.9-14.9,1.5-20.5,6.5
			s-8.8,12.2-8.8,19.7v72H476V50h29.5v51.5h18.2V33.9H476z"/>
	</g>
</g>
</svg>
