<svg width="182" height="182" viewBox="0 0 182 182" fill="none" xmlns="http://www.w3.org/2000/svg">
<path d="M63.1786 0.196289H17.7274C7.9789 0.196289 0.048584 8.12523 0.048584 17.8718V43.1317C0.048584 52.8783 7.9789 60.8072 17.7274 60.8072H63.1786C72.9271 60.8072 80.8577 52.8783 80.8577 43.1317V17.8718C80.8263 8.12523 72.9271 0.196289 63.1786 0.196289Z" fill="#FF623F"/>
<path d="M63.1699 80.9832H17.7186C7.97011 80.9832 0.0397949 88.912 0.0397949 98.6585V164.283C0.0397949 174.029 7.97011 181.958 17.7186 181.958H63.1699C72.9184 181.958 80.8489 174.029 80.8489 164.283V98.6585C80.8175 88.912 72.9184 80.9832 63.1699 80.9832Z" fill="#FF623F"/>
<path d="M164.16 0.188293H118.708C108.96 0.188293 101.03 8.11713 101.03 17.8636V83.4879C101.03 93.2343 108.96 101.163 118.708 101.163H164.16C173.908 101.163 181.838 93.2343 181.838 83.4879V17.8636C181.838 8.11713 173.908 0.188293 164.16 0.188293Z" fill="#FF623F"/>
<path d="M164.16 121.378H118.708C108.96 121.378 101.03 129.307 101.03 139.054V164.313C101.03 174.059 108.96 181.988 118.708 181.988H164.16C173.908 181.988 181.838 174.059 181.838 164.313V139.054C181.838 129.276 173.908 121.378 164.16 121.378Z" fill="#FF623F"/>
</svg>
