<svg xmlns="http://www.w3.org/2000/svg" width="56" height="23" viewBox="0 0 56 23">
    <g fill="#323A24" fill-rule="evenodd">
        <path d="M6.657 8.336c-2.574 0-4.024 1.873-6.095 4.956h-.06l.415-5.924c.414.242 1.272.363 1.864.363h12.515v.06l-7.81 14.447H8.52c3.136 0 3.964-1.572 6.893-5.44h.06l-.858 6.044H0v-.06L7.929 8.335H6.657zM24.758 13.796c0-3.511-.117-5.951-1.168-5.951-1.197 0-1.372 2.44-1.401 5.95h2.57-.001zm6.19.595h-8.76c0 3.571 1.87 5.416 4.438 5.416 1.548 0 2.92-.566 3.854-2.083l.204.119c-.992 3.154-3.824 5-7.182 5-4.437 0-8.028-2.798-8.028-7.708 0-4.79 3.678-7.767 8.116-7.767 4.963 0 7.357 3.184 7.357 7.023zM40.968 13.796c0-3.511-.116-5.951-1.168-5.951-1.196 0-1.372 2.44-1.4 5.95h2.568zm6.19.595h-8.759c0 3.571 1.869 5.416 4.438 5.416 1.547 0 2.92-.566 3.854-2.083l.204.119c-.993 3.154-3.825 5-7.182 5-4.438 0-8.029-2.798-8.029-7.708 0-4.79 3.679-7.767 8.116-7.767 4.964 0 7.358 3.184 7.358 7.023z"/>
        <path d="M54.8 18.888c0 1.948 0 2.214 1.2 3.158v.06h-9.081v-.06c1.2-.944 1.2-1.21 1.2-3.158V3.305c0-2.154-.35-2.508-1.698-3.246V0H54.8v18.888z"/>
    </g>
</svg>
