<?xml version="1.0" encoding="iso-8859-1"?>
<!-- Generator: Adobe Illustrator 18.1.1, SVG Export Plug-In . SVG Version: 6.00 Build 0)  -->
<svg version="1.1" id="Capa_1" xmlns="http://www.w3.org/2000/svg" xmlns:xlink="http://www.w3.org/1999/xlink" x="0px" y="0px"
	 viewBox="0 0 330 330" style="enable-background:new 0 0 330 330;" xml:space="preserve">
<g>
	<g id="Layer_5_94_">
		<g>
			<path d="M70.519,110.277c0,5.447-4.457,9.906-9.905,9.906H23.515c-5.447,0-9.905-4.459-9.905-9.906V87
				c0-5.449,4.458-9.906,9.905-9.906h37.099c5.448,0,9.905,4.457,9.905,9.906V110.277z"/>
			<path d="M69.347,242.643c0,5.279-4.32,9.6-9.602,9.6H24.383c-5.28,0-9.601-4.32-9.601-9.6V220.08c0-5.281,4.32-9.602,9.601-9.602
				h35.362c5.281,0,9.602,4.32,9.602,9.602V242.643z"/>
			<g>
				<path d="M298.389,0H48.383c-9.899,0-18,8.1-18,18v32.31c0,0,0,8.192,7.5,8.192c6.859,0,27.436,0,27.436,0
					c14.645,0,26.558,11.914,26.558,26.557v27.16c0,14.643-11.913,26.557-26.558,26.557c0,0-20.577,0-27.436,0
					c-7.5,0-7.5,7.536-7.5,7.536v33.245c0,0-1,11.668,10.25,11.668c6.173,0,24.686,0,24.686,0c14.645,0,26.558,11.912,26.558,26.557
					v27.158c0,14.645-11.913,26.557-26.558,26.557c0,0-18.515,0-24.686,0c-10.273,0-10.25,9.313-10.25,9.313V312
					c0,9.9,8.101,18,18,18h250.006c9.9,0,18-8.1,18-18V18C316.389,8.1,308.289,0,298.389,0z M226.945,205.115
					c-10.088,0-17.502-4.95-19.078-15.811c-0.068-0.47-0.743-1.371-1.362-0.27c-6.22,11.065-16.7,16.08-28.157,16.08
					c-14.584,0-25.109-10.764-25.109-29.126c0-27.339,20.17-52.22,52.425-52.22c9.86,0,21.293,2.384,24.086,8.164
					c4.567,9.453-1.923,29.367-4.131,38.893c-3.027,13.06-0.684,19.274,5.584,19.489c9.645,0.233,21.73-12.11,21.73-37.854
					c0-29.131-18.802-51.77-53.537-51.77c-34.285,0-64.296,26.886-64.296,69.693c0,37.405,23.977,58.688,57.346,58.688
					c10.874,0,21.762-1.977,28.835-5.443c0.458-0.225,3.594-1.699,4.454,0.847c0,0,1.867,6.179,2.553,8.218
					c0.283,0.843,0.448,2.341-1.902,3.343c-12.508,5.331-23.389,6.933-38.41,6.933c-37.195,0-69.899-26.671-69.899-70.577
					c0-45.713,33.153-85.363,83.78-85.363c39.44,0,67.674,27.125,67.674,64.764C269.529,184.498,251.156,205.115,226.945,205.115z"
					/>
				<path d="M202.09,141.48c-14.799,0-26.435,14.556-26.435,31.815c0,8.508,3.807,13.877,11.207,13.877
					c8.277,0,15.791-10.77,19.037-23.508c1.22-4.787,5.44-15.117,2.476-19.605C207.361,142.525,205,141.48,202.09,141.48z"/>
			</g>
		</g>
	</g>
</g>
<g>
</g>
<g>
</g>
<g>
</g>
<g>
</g>
<g>
</g>
<g>
</g>
<g>
</g>
<g>
</g>
<g>
</g>
<g>
</g>
<g>
</g>
<g>
</g>
<g>
</g>
<g>
</g>
<g>
</g>
</svg>
