<?xml version="1.0" encoding="iso-8859-1"?>
<!-- Generator: Adobe Illustrator 18.1.1, SVG Export Plug-In . SVG Version: 6.00 Build 0)  -->
<svg version="1.1" id="Capa_1" xmlns="http://www.w3.org/2000/svg" xmlns:xlink="http://www.w3.org/1999/xlink" x="0px" y="0px"
	 viewBox="0 0 330 330" style="enable-background:new 0 0 330 330;" xml:space="preserve">
<g>
	<g id="Layer_5_85_">
		<path d="M285,0c0,0-107,0-142.666,0c-5.459,0-5.715,4-5.715,4v136.538c0,2.452-1.502,3.128-3.337,1.503l-23.532-20.839
			c-1.835-1.625-4.821-1.605-6.635,0.044l-22.816,20.75c-1.814,1.65-3.298,0.994-3.298-1.458V4c0,0-0.126-4-5.334-4C65,0,45,0,45,0
			c-9.9,0-18,8.1-18,18v294c0,9.9,8.1,18,18,18h240c9.9,0,18-8.1,18-18V18C303,8.1,294.9,0,285,0z"/>
	</g>
</g>
<g>
</g>
<g>
</g>
<g>
</g>
<g>
</g>
<g>
</g>
<g>
</g>
<g>
</g>
<g>
</g>
<g>
</g>
<g>
</g>
<g>
</g>
<g>
</g>
<g>
</g>
<g>
</g>
<g>
</g>
</svg>
