<?xml version="1.0" encoding="iso-8859-1"?>
<!-- Generator: Adobe Illustrator 18.1.1, SVG Export Plug-In . SVG Version: 6.00 Build 0)  -->
<svg version="1.1" id="Capa_1" xmlns="http://www.w3.org/2000/svg" xmlns:xlink="http://www.w3.org/1999/xlink" x="0px" y="0px"
	 viewBox="0 0 297.566 297.566" style="enable-background:new 0 0 297.566 297.566;" xml:space="preserve">
<g>
	<g id="Layer_5_68_">
		<g>
			<path d="M239.635,288.174c2.102,5.044-0.65,9.171-6.114,9.171H64.041c-5.464,0-8.216-4.127-6.114-9.171l18.087-32.814
				c2.102-5.044,8.292-9.171,13.756-9.171h118.023c5.464,0,11.654,4.127,13.756,9.171L239.635,288.174z"/>
			<path d="M290.868,46.453c0,0-29.212,0-38.949,0c-4.14,0-2.585-4.833-2.585-4.833l7.602-27.564
				c2.098-7.609-2.643-13.834-10.535-13.834h-82.686h-29.867H51.162c-7.893,0-12.633,6.225-10.535,13.834l7.602,27.564
				c0,0,1.554,4.833-2.586,4.833c-9.737,0-38.949,0-38.949,0c-4.856,0-7.717,3.814-6.355,8.477l28.646,113.842
				c1.361,4.662,6.449,8.478,11.306,8.478c0,0,27.197,0,36.263,0c4.415,0,5.142,3.667,5.142,3.667l2.082,7.55
				c2.536,11.074,42.965,29.84,54.469,34.782c6.694,2.876,14.362,2.835,21.074,0c12.681-5.356,50.351-22.604,54.469-34.782
				l2.082-7.55c0,0,0.727-3.667,5.142-3.667c9.065,0,36.262,0,36.262,0c4.857,0,9.945-3.815,11.307-8.478L297.228,54.93
				C298.586,50.267,295.725,46.453,290.868,46.453z M70.463,155.171c-3.68,0-14.717,0-14.717,0c-4.857,0-9.841-3.843-11.074-8.541
				l-13.03-69.559c-1.233-4.697,1.731-8.541,6.588-8.541c0,0,11.148,0,14.864,0c2.76,0,3.413,3.108,3.413,3.108l17.034,79.718
				C73.541,151.356,74.712,155.171,70.463,155.171z M265.92,77.071l-13.029,69.559c-1.234,4.698-6.217,8.541-11.074,8.541
				c0,0-11.037,0-14.717,0c-4.248,0-3.078-3.814-3.078-3.814l17.034-79.718c0,0,0.653-3.108,3.413-3.108c3.716,0,14.864,0,14.864,0
				C264.189,68.53,267.154,72.374,265.92,77.071z"/>
		</g>
	</g>
</g>
<g>
</g>
<g>
</g>
<g>
</g>
<g>
</g>
<g>
</g>
<g>
</g>
<g>
</g>
<g>
</g>
<g>
</g>
<g>
</g>
<g>
</g>
<g>
</g>
<g>
</g>
<g>
</g>
<g>
</g>
</svg>
