<?xml version="1.0" encoding="iso-8859-1"?>
<!-- Generator: Adobe Illustrator 18.1.1, SVG Export Plug-In . SVG Version: 6.00 Build 0)  -->
<svg version="1.1" id="Capa_1" xmlns="http://www.w3.org/2000/svg" xmlns:xlink="http://www.w3.org/1999/xlink" x="0px" y="0px"
	 viewBox="0 0 332.415 332.415" style="enable-background:new 0 0 332.415 332.415;" xml:space="preserve">
<g>
	<g id="Layer_5_9_">
		<g>
			<g>
				<path d="M304.55,87.291c-2.254,5.017-8.203,7.278-13.22,5.024l-116-52.109c-5.017-2.254-13.227-2.254-18.244,0l-116,52.109
					c-5.017,2.253-10.966-0.007-13.22-5.024l-4.917-10.946c-2.254-5.017,0.007-10.966,5.024-13.22L157.085,5.126
					c5.017-2.254,13.227-2.254,18.244,0l129.112,57.999c5.017,2.254,7.278,8.203,5.024,13.22L304.55,87.291z"/>
			</g>
			<g>
				<path d="M95.858,220.389c0,4.4-3.6,8-8,8H65.709c-4.4,0-8-3.6-8-8V119.327c0-4.4,3.6-8,8-8h22.149c4.4,0,8,3.6,8,8V220.389z"/>
			</g>
			<g>
				<path d="M185.282,220.389c0,4.4-3.6,8-8,8h-22.148c-4.4,0-8-3.6-8-8V119.327c0-4.4,3.6-8,8-8h22.148c4.4,0,8,3.6,8,8V220.389z"
					/>
			</g>
			<g>
				<path d="M274.707,220.389c0,4.4-3.6,8-8,8h-22.149c-4.4,0-8-3.6-8-8V119.327c0-4.4,3.6-8,8-8h22.149c4.4,0,8,3.6,8,8V220.389z"
					/>
			</g>
			<g>
				<path d="M310.459,272.066c0,5.5-4.5,10-10,10H31.957c-5.5,0-10-4.5-10-10v-10c0-5.5,4.5-10,10-10h268.502c5.5,0,10,4.5,10,10
					V272.066z"/>
			</g>
			<g>
				<path d="M332.415,318.98c0,5.5-4.5,10-10,10H10c-5.5,0-10-4.5-10-10v-10c0-5.5,4.5-10,10-10h312.415c5.5,0,10,4.5,10,10V318.98z
					"/>
			</g>
		</g>
	</g>
</g>
<g>
</g>
<g>
</g>
<g>
</g>
<g>
</g>
<g>
</g>
<g>
</g>
<g>
</g>
<g>
</g>
<g>
</g>
<g>
</g>
<g>
</g>
<g>
</g>
<g>
</g>
<g>
</g>
<g>
</g>
</svg>
