<?xml version="1.0" encoding="iso-8859-1"?>
<!-- Generator: Adobe Illustrator 18.1.1, SVG Export Plug-In . SVG Version: 6.00 Build 0)  -->
<svg version="1.1" id="Capa_1" xmlns="http://www.w3.org/2000/svg" xmlns:xlink="http://www.w3.org/1999/xlink" x="0px" y="0px"
	 viewBox="0 0 354.005 354.005" style="enable-background:new 0 0 354.005 354.005;" xml:space="preserve">
<g>
	<g id="Layer_5_34_">
		<g>
			<path d="M112.129,209.309H87.291c-5.25,0-9.546,4.296-9.546,9.546v31.407c0,5.25,4.296,9.546,9.546,9.546h24.838
				c5.25,0,9.546-4.296,9.546-9.546v-31.407C121.675,213.605,117.379,209.309,112.129,209.309z"/>
			<path d="M268.629,209.309h-24.838c-5.25,0-9.546,4.296-9.546,9.546v31.407c0,5.25,4.296,9.546,9.546,9.546h24.838
				c5.25,0,9.546-4.296,9.546-9.546v-31.407C278.175,213.605,273.879,209.309,268.629,209.309z"/>
			<path d="M336.304,56.381h-72.875c0,0-1.496,0.176-1.496-1c0-5.298,0-21.192,0-21.192c0-11.028-8.973-20-20-20H112.07
				c-11.027,0-20,8.972-20,20c0,0,0,15.261,0,20.348c0,1.833-1.434,1.844-1.434,1.844H17.699C7.965,56.381,0,64.346,0,74.081
				v142.778c0,6.387,3.434,12,8.545,15.109c1.031,0.627,3.285,1.276,3.285,4.026v76.121c0,15.274,12.426,27.7,27.699,27.7h274.945
				c15.273,0,27.699-12.426,27.699-27.7v-73.912c0-4.5,1.512-5.268,2.227-5.639c5.689-2.95,9.605-8.887,9.605-15.706V74.081
				C354.005,64.345,346.038,56.381,336.304,56.381z M112.07,35.557c0-1.417,1.359-1.369,1.359-1.369h127.25
				c0,0,1.254,0.056,1.254,1.723c0,4.258,0,15.24,0,19.47c0,1.114-1.629,1.001-1.629,1.001l-126.793,0.154
				c0,0-1.441,0.208-1.441-2.167C112.07,50.163,112.07,39.172,112.07,35.557z M322.173,236.619v75.496c0,4.246-3.453,7.7-7.699,7.7
				H39.529c-4.246,0-7.699-3.454-7.699-7.7V236.37c0,0-0.15-1.811,1.641-1.811c4.906,0,8.75,0,15.17,0
				c8.484,0,8.061-7.779,8.061-7.779v-8.671c0-16.542,2.064-32.001,30-32.001h26.02c26.545,0,30,15.459,30,32.001v10.796
				c0,0,0.045,5.654,5.92,5.654c15.66,0,42.281,0,56.375,0c6.584,0,6.268-5.529,6.268-5.529V218.11c0-16.542,1.482-32.001,30-32.001
				h26.021c28.961,0,30,15.459,30,32.001v11.92c0,0-0.372,4.53,4.295,4.53c6.858,0,13.787,0,18.58,0
				C322.429,234.558,322.173,236.619,322.173,236.619z"/>
		</g>
	</g>
</g>
<g>
</g>
<g>
</g>
<g>
</g>
<g>
</g>
<g>
</g>
<g>
</g>
<g>
</g>
<g>
</g>
<g>
</g>
<g>
</g>
<g>
</g>
<g>
</g>
<g>
</g>
<g>
</g>
<g>
</g>
</svg>
