<?xml version="1.0" encoding="iso-8859-1"?>
<!-- Generator: Adobe Illustrator 18.1.1, SVG Export Plug-In . SVG Version: 6.00 Build 0)  -->
<svg version="1.1" id="Capa_1" xmlns="http://www.w3.org/2000/svg" xmlns:xlink="http://www.w3.org/1999/xlink" x="0px" y="0px"
	 viewBox="0 0 306.303 306.303" style="enable-background:new 0 0 306.303 306.303;" xml:space="preserve">
<g>
	<g id="Layer_5_8_">
		<g>
			<path d="M269.811,0H36.493c-8.744,0-15.898,7.154-15.898,15.898v274.507c0,8.744,7.154,15.898,15.898,15.898H269.81
				c8.744,0,15.898-7.154,15.898-11.659V20.138C285.708,7.155,278.555,0,269.811,0z M101.482,262.385
				c0,4.663-3.815,8.479-8.479,8.479H54.102c-4.664,0-8.479-3.816-8.479-8.479v-33.72c0-4.664,3.815-8.479,8.479-8.479h38.901
				c4.664,0,8.479,3.815,8.479,8.479V262.385z M101.482,191.044c0,4.663-3.815,8.479-8.479,8.479H54.102
				c-4.664,0-8.479-3.816-8.479-8.479v-33.72c0-4.664,3.815-8.479,8.479-8.479h38.901c4.664,0,8.479,3.815,8.479,8.479V191.044z
				 M178.927,262.385c0,4.663-3.815,8.479-8.479,8.479h-38.901c-4.663,0-8.479-3.816-8.479-8.479v-33.72
				c0-4.664,3.816-8.479,8.479-8.479h38.901c4.664,0,8.479,3.815,8.479,8.479V262.385z M178.927,191.044
				c0,4.663-3.815,8.479-8.479,8.479h-38.901c-4.663,0-8.479-3.816-8.479-8.479v-33.72c0-4.664,3.816-8.479,8.479-8.479h38.901
				c4.664,0,8.479,3.815,8.479,8.479V191.044z M261.487,262.385c0,4.663-3.815,8.479-8.479,8.479h-39.922
				c-4.663,0-8.479-3.816-8.479-8.479v-105.06c0-4.664,3.816-8.479,8.479-8.479h39.922c4.664,0,8.479,3.815,8.479,8.479V262.385z
				 M261.789,98.138c0,5.83-4.769,10.599-10.599,10.599H55.114c-5.829,0-10.599-4.769-10.599-10.599V47.894
				c0-5.829,4.77-10.599,10.599-10.599H251.19c5.83,0,10.599,4.77,10.599,10.599L261.789,98.138L261.789,98.138z"/>
		</g>
	</g>
</g>
<g>
</g>
<g>
</g>
<g>
</g>
<g>
</g>
<g>
</g>
<g>
</g>
<g>
</g>
<g>
</g>
<g>
</g>
<g>
</g>
<g>
</g>
<g>
</g>
<g>
</g>
<g>
</g>
<g>
</g>
</svg>
