<?xml version="1.0" encoding="iso-8859-1"?>
<!-- Generator: Adobe Illustrator 18.1.1, SVG Export Plug-In . SVG Version: 6.00 Build 0)  -->
<svg version="1.1" id="Capa_1" xmlns="http://www.w3.org/2000/svg" xmlns:xlink="http://www.w3.org/1999/xlink" x="0px" y="0px"
	 viewBox="0 0 356.334 356.334" style="enable-background:new 0 0 356.334 356.334;" xml:space="preserve">
<g>
	<g id="Layer_5_74_">
		<g>
			<g>
				<g>
					<path d="M129.05,200.746c33.995,0,61.555-27.273,61.555-60.923c0-33.643-27.56-60.921-61.555-60.921
						c-33.998,0-61.556,27.278-61.556,60.921C67.494,173.473,95.052,200.746,129.05,200.746z"/>
				</g>
				<path d="M247.094,350.163l-41.043-108.482c-1.043-2.753-9.872-20.927-26.265-20.927c-5.185,0-95.116,0.136-98.059,0.136
					c0,0-0.48,0-3.398,0c-18.35,0-25.219,18.038-26.26,20.791L11.024,350.163c-1.043,2.752-0.438,6.171,5.338,6.171
					c0,0,22.154,0,30.288,0c5.519,0,7.237-4.83,7.237-4.83l19.568-52.505c0,0,2.46-6.723,2.46,0.569
					c0,10.023,0.13,36.802,0.196,49.669c0.022,4.339,0.695,7.097,5.819,7.097c26.543,0,74.947,0,99.93,0
					c7.096,0,6.23-3.693,6.215-9.265c-0.039-13.581-0.104-38.321-0.104-47.896c0-4.927,1.746-1.565,1.746-1.565l18.379,53.075
					c0,0,1.753,5.65,8.257,5.65c6.913,0,25.098,0,25.098,0C247.421,356.334,248.137,352.915,247.094,350.163z M153.217,319.051
					l-20.654,18.994c-1.932,1.776-5.095,1.776-7.027,0l-20.654-18.994c-1.934-1.775-3.073-5.332-2.536-7.899l10.77-51.431
					c0.161-0.768,0.648-3.096,0.606-3.624c-0.211-2.712-0.846-10.847-0.846-10.847c-0.206-2.617,1.775-4.759,4.399-4.759h23.546
					c2.624,0,4.605,2.142,4.399,4.759c0,0-0.635,8.135-0.846,10.847c-0.042,0.526,0.446,2.856,0.607,3.624l10.769,51.431
					C156.291,313.719,155.15,317.275,153.217,319.051z"/>
			</g>
			<path d="M336.711,0H204.979c-4.96,0-9.018,4.059-9.018,9.019V90.18c0,4.96,4.058,9.018,9.018,9.018h23.436
				c4.96,0,8.244,3.983,7.297,8.852l-4.367,22.471c-0.946,4.869,1.332,6.178,5.062,2.909l32.282-28.289
				c3.73-3.269,10.84-5.943,15.8-5.943h52.222c4.96,0,9.018-4.058,9.018-9.018V9.019C345.729,4.059,341.671,0,336.711,0z
				 M223.05,29.889c0-2.166,1.772-3.938,3.939-3.938h69.676c2.167,0,3.939,1.772,3.939,3.938v3.395c0,2.167-1.772,3.939-3.939,3.939
				h-69.676c-2.167,0-3.939-1.772-3.939-3.939V29.889z M318.64,63.944c0,2.166-1.772,3.939-3.939,3.939h-87.712
				c-2.167,0-3.939-1.772-3.939-3.939v-3.395c0-2.166,1.772-3.939,3.939-3.939h87.712c2.167,0,3.939,1.773,3.939,3.939V63.944z"/>
		</g>
	</g>
</g>
<g>
</g>
<g>
</g>
<g>
</g>
<g>
</g>
<g>
</g>
<g>
</g>
<g>
</g>
<g>
</g>
<g>
</g>
<g>
</g>
<g>
</g>
<g>
</g>
<g>
</g>
<g>
</g>
<g>
</g>
</svg>
