<?xml version="1.0" encoding="iso-8859-1"?>
<!-- Generator: Adobe Illustrator 18.1.1, SVG Export Plug-In . SVG Version: 6.00 Build 0)  -->
<svg version="1.1" id="Capa_1" xmlns="http://www.w3.org/2000/svg" xmlns:xlink="http://www.w3.org/1999/xlink" x="0px" y="0px"
	 viewBox="0 0 352.096 352.096" style="enable-background:new 0 0 352.096 352.096;" xml:space="preserve">
<g>
	<g id="Layer_5_99_">
		<g>
			<path d="M324.499,174.893c0-2.311,0.928-7.688,9.513-7.688c0,0,8.442,0,14.679,0c6.349,0,1.873-5.32,1.873-5.32l-40.023-63.139
				c-0.135-0.152-2.166-2.574-4.137,0.348l-39.543,62.541c0,0-4.961,5.57,1.841,5.57c6.28,0,14.849,0,14.849,0
				c4.422,0,9.498,1.07,9.498,9.424c0,71.805-58.676,130.223-130.797,130.223c-72.127,0-130.808-58.678-130.808-130.805
				c0-72.125,58.681-130.805,130.808-130.805c19.281,0,37.843,4.094,55.17,12.166c2.102,0.98,4.333,1.475,6.628,1.475
				c6.093,0,11.694-3.566,14.267-9.086c3.658-7.859,0.246-17.232-7.612-20.893c-21.517-10.023-44.548-15.107-68.452-15.107
				C72.787,13.797,0,86.582,0,176.047c0,89.467,72.787,162.252,162.253,162.252c89.11,0,161.893-72.496,162.24-161.608
				C324.491,176.688,324.499,175.342,324.499,174.893z"/>
			<path d="M170.571,184.203c-2.129,0-3.869-1.74-3.869-3.869v-65.646c0-2.129-1.742-3.869-3.869-3.869h-14.567
				c-2.129,0-3.869,1.74-3.869,3.869l-0.005,87.955c0,2.127,1.742,3.867,3.869,3.867h86.189c2.128,0,3.87-1.74,3.87-3.867v-14.57
				c0-2.129-1.742-3.869-3.87-3.869h-63.879V184.203z"/>
		</g>
	</g>
</g>
<g>
</g>
<g>
</g>
<g>
</g>
<g>
</g>
<g>
</g>
<g>
</g>
<g>
</g>
<g>
</g>
<g>
</g>
<g>
</g>
<g>
</g>
<g>
</g>
<g>
</g>
<g>
</g>
<g>
</g>
</svg>
