<?xml version="1.0" encoding="iso-8859-1"?>
<!-- Generator: Adobe Illustrator 18.1.1, SVG Export Plug-In . SVG Version: 6.00 Build 0)  -->
<svg version="1.1" id="Capa_1" xmlns="http://www.w3.org/2000/svg" xmlns:xlink="http://www.w3.org/1999/xlink" x="0px" y="0px"
	 viewBox="0 0 376.015 376.015" style="enable-background:new 0 0 376.015 376.015;" xml:space="preserve">
<g>
	<g id="Layer_5_39_">
		<g>
			<path d="M171.089,213.521c-1.694,0-3.08-1.386-3.08-3.08v-52.259c0-1.694-1.387-3.08-3.08-3.08h-11.597
				c-1.694,0-3.08,1.386-3.08,3.08l-0.003,70.018c0,1.694,1.386,3.08,3.08,3.08h68.612c1.694,0,3.08-1.386,3.08-3.08v-11.599
				c0-1.694-1.386-3.08-3.08-3.08H171.089z"/>
			<path d="M279.495,88.673c-10.857-4.353-13.996-6.985-13.996-11.738c0-3.804,2.882-8.247,11.003-8.247
				c7.185,0,12.694,2.832,12.743,2.857c0.581,0.311,1.23,0.475,1.874,0.475c1.573,0,2.964-0.951,3.54-2.424l1.974-5.046
				c0.686-1.838-0.357-3.44-1.686-4.015c-4.423-1.926-13.067-3.416-13.156-3.431c-0.14-0.024-0.622-0.128-0.622-0.694l-0.029-7.318
				c0-2.204-1.84-3.998-4.101-3.998h-3.538c-2.259,0-4.098,1.794-4.098,4l0.009,7.694c0,0.589-0.639,0.845-0.872,0.9
				c-10.912,2.599-17.732,10.592-17.732,20.676c0,12.569,10.39,18.249,21.607,22.513c8.969,3.521,12.627,7.092,12.627,12.327
				c0,5.698-5.182,9.679-12.604,9.679c-6.338,0-14.916-4.019-15.002-4.059c-0.549-0.26-1.131-0.392-1.729-0.392
				c-1.633,0-3.056,0.987-3.623,2.516l-1.885,5.102c-0.67,1.905,0.361,3.452,1.682,4.14c5.268,2.743,15.463,4.352,15.915,4.422
				c0.122,0.018,0.743,0.236,0.743,0.803v7.661c0,2.204,1.84,3.998,4.101,3.998h3.659c2.261,0,4.101-1.794,4.101-3.998v-8.062
				c0-0.754,0.557-0.82,0.671-0.848c11.625-2.611,18.786-11.117,18.786-21.797C299.857,101.399,293.766,94.311,279.495,88.673z"/>
			<path d="M274.924,0c-53.066,0-96.083,43.018-96.083,96.083c0,53.064,43.017,96.084,96.083,96.084
				c53.064,0,96.082-43.02,96.082-96.084S327.988,0,274.924,0z M274.924,169.899c-40.769,0-73.816-33.05-73.816-73.815
				c0-40.767,33.047-73.814,73.816-73.814c40.767,0,73.813,33.048,73.813,73.814C348.737,136.849,315.69,169.899,274.924,169.899z"
				/>
			<path d="M282.926,217.448c-4.935-0.083-3.94,4.936-3.94,8.248c0,4.037-0.193,7.037-0.583,10.977
				c-6.014,62.128-58.374,110.689-122.083,110.689c-67.746,0-122.667-54.92-122.667-122.667c0-31.426,11.819-60.088,31.251-81.789
				c21.95-24.514,53.69-40.063,87.44-40.805c1.438-0.008,1.5-1.014,1.493-1.945c-0.07-9.545,0.305-14.115,2.487-22.996
				c1.165-3.783-0.629-3.783-0.918-3.783c-44.808,0-84.153,19.475-111.852,50.434C19.582,150.581,5.008,185.94,5.008,224.696
				c0,83.574,67.745,151.319,151.311,151.319c79.502,0,144.686-61.307,150.843-139.235c0.317-3.984,0.478-7.011,0.478-11.083
				c0-3.263-0.045-6.102-0.18-8.838c-0.079-1.614,0.18-5.41-3.222-3.833C295.254,216.073,292.738,216.698,282.926,217.448z"/>
		</g>
	</g>
</g>
<g>
</g>
<g>
</g>
<g>
</g>
<g>
</g>
<g>
</g>
<g>
</g>
<g>
</g>
<g>
</g>
<g>
</g>
<g>
</g>
<g>
</g>
<g>
</g>
<g>
</g>
<g>
</g>
<g>
</g>
</svg>
