<?xml version="1.0" encoding="iso-8859-1"?>
<!-- Generator: Adobe Illustrator 18.1.1, SVG Export Plug-In . SVG Version: 6.00 Build 0)  -->
<svg version="1.1" id="Capa_1" xmlns="http://www.w3.org/2000/svg" xmlns:xlink="http://www.w3.org/1999/xlink" x="0px" y="0px"
	 viewBox="0 0 341.782 341.782" style="enable-background:new 0 0 341.782 341.782;" xml:space="preserve">
<g>
	<g id="Layer_5_46_">
		<g>
			<path d="M281.249,114.403c-2.682,0-5.309,0.232-7.868,0.67c-0.986,0.168-2.926,0.617-2.926-1.799v-6.746c0,0,0-7.321-6.734-7.321
				c-61.625,0-183.192,0-246.501,0c-3.718,0-3.718,3.646-3.718,3.646v87.217c0,58.697,47.584,106.281,106.281,106.281h44.389
				c46.216,0,84.403-26.465,99.038-67.662c1.177-3.08,3.525-2.167,4.752-1.804c4.215,1.247,8.672,1.922,13.286,1.922
				c25.934,0,47.032-21.099,47.032-47.031v-20.341C328.281,135.501,307.183,114.403,281.249,114.403z M308.281,181.775
				c0,14.905-12.126,27.031-27.032,27.031c-2.844,0-5.585-0.443-8.161-1.263c-1.32-0.42-4.034-0.52-3.822-4.397
				c0.781-5.196,1.188-7.664,1.188-13.077v-51.045c0-2.5,1.645-3.037,2.496-3.313c2.616-0.848,5.404-1.309,8.299-1.309
				c14.905,0,27.032,12.126,27.032,27.031V181.775z"/>
			<path d="M264.823,334.782c0,3.85-3.15,7-7,7H33.64c-3.85,0-7-3.15-7-7v-17.259c0-3.851,3.15-7,7-7h224.183c3.85,0,7,3.149,7,7
				L264.823,334.782L264.823,334.782z"/>
			<g>
				<path d="M105.364,82.578c-1.574,0-3.157-0.413-4.451-1.261c-4.945-3.236-7.432-6.779-7.39-10.528
					c0.069-6.217,6.891-10.53,12.911-14.335c3.367-2.129,7.977-5.044,8.446-6.847l0.072-0.246c1.22-3.759-3.28-7.511-10.285-12.808
					c-6.372-4.818-12.962-9.802-12.614-16.377c0.204-3.858,2.853-7.447,7.87-10.667c2.918-1.873,7.254-1.569,9.686,0.679
					c2.431,2.246,2.037,5.586-0.88,7.458c-1.799,1.154-2.896,2.262-2.933,2.962c-0.1,1.88,4.876,5.642,8.508,8.389
					c7.639,5.775,17.138,12.959,14.029,22.818c-1.496,5.442-7.695,9.362-13.17,12.823c-2.555,1.615-7.871,4.977-7.885,6.24
					c0,0,0.142,0.797,2.545,2.369c2.894,1.894,3.246,5.235,0.786,7.464C109.247,81.944,107.311,82.578,105.364,82.578z"/>
			</g>
			<g>
				<path d="M168.58,74.297c-1.575,0-3.157-0.413-4.451-1.261c-4.945-3.236-7.432-6.779-7.39-10.529
					c0.069-6.217,6.892-10.529,12.911-14.335c3.367-2.128,7.978-5.044,8.446-6.846l0.072-0.246c1.22-3.759-3.28-7.511-10.285-12.809
					c-6.373-4.818-12.963-9.802-12.614-16.377c0.205-3.857,2.853-7.446,7.871-10.666c2.918-1.873,7.254-1.569,9.686,0.679
					c2.432,2.246,2.037,5.586-0.881,7.458c-1.799,1.154-2.896,2.262-2.933,2.962c-0.1,1.879,4.875,5.641,8.508,8.388
					c7.639,5.776,17.138,12.96,14.029,22.819c-1.496,5.442-7.695,9.362-13.17,12.823c-2.555,1.615-7.871,4.976-7.885,6.24
					c0,0.007,0.142,0.797,2.545,2.369c2.893,1.893,3.246,5.236,0.786,7.464C172.464,73.663,170.528,74.297,168.58,74.297z"/>
			</g>
		</g>
	</g>
</g>
<g>
</g>
<g>
</g>
<g>
</g>
<g>
</g>
<g>
</g>
<g>
</g>
<g>
</g>
<g>
</g>
<g>
</g>
<g>
</g>
<g>
</g>
<g>
</g>
<g>
</g>
<g>
</g>
<g>
</g>
</svg>
