<?xml version="1.0" encoding="iso-8859-1"?>
<!-- Generator: Adobe Illustrator 18.1.1, SVG Export Plug-In . SVG Version: 6.00 Build 0)  -->
<svg version="1.1" id="Capa_1" xmlns="http://www.w3.org/2000/svg" xmlns:xlink="http://www.w3.org/1999/xlink" x="0px" y="0px"
	 viewBox="0 0 334.451 334.451" style="enable-background:new 0 0 334.451 334.451;" xml:space="preserve">
<g>
	<g id="Layer_5_19_">
		<g>
			<path d="M315.103,13.809H19.35C8.707,13.809,0,22.517,0,33.159c0,0,0,22.601,0,30.134c0,6.981,5.899,6.981,5.899,6.981
				s230.284,0,322.968,0c5.583,0,5.583-4.311,5.583-4.311V33.159C334.451,22.517,325.745,13.809,315.103,13.809z"/>
			<path d="M326.39,97.325c-39.458,0-233.951,0-320.3,0C0,97.325,0,102.164,0,102.164V244.98c0,4.543,1.596,8.724,4.246,12.031
				c0.581,0.725,1.887,0.676,1.887-1.99V216.39c0-5.639,3.916-7.949,6.921-12.276c0.758-1.092,0.628-3.822,0.628-3.822
				c0-39.368,32.028-71.397,71.396-71.397s71.396,32.028,71.396,71.397c0,0-0.246,2.396,0.41,3.486
				c2.715,4.513,7.14,6.974,7.14,12.612c0,0,0,33.098,0,44.131c0,3.81,3.455,3.81,3.455,3.81h147.624
				c10.642,0,19.348-8.708,19.348-19.35V105.212C334.451,105.212,334.451,97.325,326.39,97.325z M301.925,228.1
				c0,4.012-3.282,7.295-7.294,7.295h-47.539c-4.012,0-7.294-3.283-7.294-7.295v-28.204c0-4.012,3.282-7.294,7.294-7.294h47.539
				c4.012,0,7.294,3.282,7.294,7.294V228.1z M301.925,159.658c0,4.012-3.282,7.294-7.294,7.294h-121.94
				c-4.011,0-7.294-3.282-7.294-7.294v-2.675c0-4.011,3.283-7.294,7.294-7.294h121.94c4.012,0,7.294,3.283,7.294,7.294V159.658z"/>
			<path d="M141.991,214.492c0,0-2.409,0.109-2.409-1.852c0-2.237,0-8.953,0-8.953c0-30.053-24.45-54.503-54.503-54.503
				c-30.052,0-54.504,24.45-54.504,54.503c0,0,0,6.471,0,8.628c0,2.265-3.05,2.177-3.05,2.177c-2.088,0-3.797,1.709-3.797,3.796
				v98.558c0,2.088,1.709,3.796,3.797,3.796h115.108c2.087,0,3.796-1.708,3.796-3.796v-98.558
				C146.429,216.202,144.078,214.492,141.991,214.492z M98.329,279.406c0,7.317-5.932,13.25-13.25,13.25s-13.25-5.933-13.25-13.25
				v-22.377c0-7.318,5.932-13.25,13.25-13.25s13.25,5.932,13.25,13.25V279.406z M123.119,214.492c-18.724,0-55.739,0-74.896,0
				c-2.874,0-2.917-2.044-2.917-2.044v-8.761c0-21.929,17.842-39.77,39.771-39.77c21.93,0,39.771,17.841,39.771,39.77v9.216
				C124.849,212.904,125.014,214.492,123.119,214.492z"/>
		</g>
	</g>
</g>
<g>
</g>
<g>
</g>
<g>
</g>
<g>
</g>
<g>
</g>
<g>
</g>
<g>
</g>
<g>
</g>
<g>
</g>
<g>
</g>
<g>
</g>
<g>
</g>
<g>
</g>
<g>
</g>
<g>
</g>
</svg>
