<?xml version="1.0" encoding="iso-8859-1"?>
<!-- Generator: Adobe Illustrator 18.1.1, SVG Export Plug-In . SVG Version: 6.00 Build 0)  -->
<svg version="1.1" id="Capa_1" xmlns="http://www.w3.org/2000/svg" xmlns:xlink="http://www.w3.org/1999/xlink" x="0px" y="0px"
	 viewBox="0 0 361.695 361.695" style="enable-background:new 0 0 361.695 361.695;" xml:space="preserve">
<g>
	<g id="Layer_5_84_">
		<path d="M346.996,71.387l-38.202-31.522c-4.654-3.84-12.411-6.627-18.444-6.627h-74.486c0,0-6.25,0.188-6.25-6.562
			c0-3.919,0-15.676,0-15.676c0-6.05-4.95-11-11-11h-37c-6.05,0-11,4.95-11,11v16.426c0,6.25-2.607,7.037-3.798,7.649
			c-5.319,2.739-8.968,8.278-8.968,14.662v65.981c0,6.22,3.463,11.637,8.559,14.444c1.306,0.719,4.206,1.514,4.206,5.264
			c0,0,0,9.281,0,12.375c0,3-2.75,2.775-2.75,2.775H71.344c-6.034,0-13.791,2.787-18.445,6.628l-38.201,31.52
			c-3.68,3.036-5.727,7.387-5.616,11.935c0.11,4.549,2.367,8.794,6.191,11.649l41.779,31.176c4.716,3.518,12.408,6.072,18.292,6.072
			h71.607c0,0,3.662,0.619,3.662,4.786c0,14.086,0,56.345,0,56.345c0,6.051-4.95,11-11,11H103.6c-6.05,0-13.214,4.428-15.919,9.84
			l-10.162,20.329c-2.705,5.411,0.031,9.839,6.081,9.839h193.025c6.05,0,8.786-4.428,6.081-9.839l-10.162-20.329
			c-2.706-5.412-9.869-9.84-15.919-9.84h-36.011c-6.05,0-11-4.949-11-11v-58.179c0-3.333,2.977-3.756,4.338-4.352
			c5.817-2.55,9.894-8.353,9.894-15.101v-65.979c0-6.842-4.191-12.713-10.139-15.205c-1.29-0.541-4.093-1.07-4.093-4.57
			c0,0,0-7.712,0-11.433c0-3.692,4.269-3.65,4.269-3.65h72.467c5.885,0,13.577-2.555,18.291-6.072l41.779-31.177
			c3.824-2.853,6.081-7.098,6.192-11.645C352.723,78.775,350.677,74.424,346.996,71.387z M68.417,228.256l-33.213-24.783
			c0,0-3.965-3.672,0.25-7.24c7.308-6.186,29.538-24.373,29.538-24.373c1.268-1.046,4.711-2.283,6.354-2.283h129.268
			c0,0,4.231-0.067,4.231,4.767c0,14.054,0,38.875,0,51.833c0,5.25-5.481,4.381-5.481,4.381H75.345
			C73.549,230.557,69.857,229.331,68.417,228.256z M293.276,110.918c-1.439,1.075-5.13,2.3-6.927,2.3H165.447
			c0,0-8.599,0.958-8.599-6.042c0-11.833,0-33.989,0-47.333c0-8.334,8.266-7.606,8.266-7.606h125.235
			c1.642,0,5.085,1.237,6.352,2.282c0,0,22.215,18.629,31.544,26.145c2.611,2.104-0.575,4.588-0.575,4.588L293.276,110.918z"/>
	</g>
</g>
<g>
</g>
<g>
</g>
<g>
</g>
<g>
</g>
<g>
</g>
<g>
</g>
<g>
</g>
<g>
</g>
<g>
</g>
<g>
</g>
<g>
</g>
<g>
</g>
<g>
</g>
<g>
</g>
<g>
</g>
</svg>
