<?xml version="1.0" encoding="iso-8859-1"?>
<!-- Generator: Adobe Illustrator 18.1.1, SVG Export Plug-In . SVG Version: 6.00 Build 0)  -->
<svg version="1.1" id="Capa_1" xmlns="http://www.w3.org/2000/svg" xmlns:xlink="http://www.w3.org/1999/xlink" x="0px" y="0px"
	 viewBox="0 0 385.327 385.327" style="enable-background:new 0 0 385.327 385.327;" xml:space="preserve">
<g>
	<g id="Layer_5_62_">
		<g>
			<path d="M196.59,89.517c24.72,0,44.745-20.047,44.745-44.771C241.335,20.05,221.31,0,196.59,0
				c-24.726,0-44.771,20.05-44.771,44.746C151.818,69.469,171.864,89.517,196.59,89.517z"/>
			<path d="M289.831,220.877c-5.568-12.765-10.246-26.099-14.77-38.99c-11.852-33.809-26.027-81.478-48.707-81.478
				c-0.893,0-52.38,0-59.73,0c-23.557,0-36.878,47.668-48.706,81.478c-4.548,12.891-9.201,26.225-14.788,38.99
				c-3.545,8.114-3.232,17.588,3.839,21.854c1.131,0.682,0.77,4.012,0.714,5.932c-0.021,0.738-0.125,2.173-2,2.173
				c-0.46,0-1.841,0-1.841,0c-5.5,0-10,4.5-10,10v60.902c0,5.5,4.5,10,10,10h18.9c5.5,0,10-4.5,10-10v-60.902c0-5.5-4.5-10-10-10
				c0,0-1.325,0-1.768,0c-1.292,0-1.461-1.523-1.683-2.173c-0.437-1.277-0.005-3.875,1.213-4.362
				c4.318-1.729,7.557-5.857,9.69-10.74c4.363-10.005,11.461-31.737,16.12-45.077c1.083-3.099,2.431-5.121,2.162,0.271v41.743
				c0,2.08-0.419,8.39,1.337,10.541c1.341,1.644,3.668,1,3.668,5v117.689c0,11.929,8.207,21.599,19.66,21.599
				s17.666-9.465,17.666-21.394c0,0,0-84.827,0-113.102c0-1.417,0.264-3.469,4.398-3.469c0.371,0,0.586,0,0.956,0
				c4.179,0,4.48,2.427,4.48,3.2c0,28.275,0,113.102,0,113.102c0,11.929,6.298,21.663,17.751,21.663s19.66-9.67,19.66-21.599
				l-0.079-117.065c0-1.932,2.561-3.158,3.527-4.355c1.859-2.305,2.979-5.227,2.979-8.402v-46.903c0-4.515,0.932-1.95,1.402-0.219
				c3.648,13.387,10.779,37.544,15.344,48.01c2.855,6.524,7.063,10.437,13.76,10.437c2.328,0,4.697-0.48,6.959-1.459
				C290.729,239.925,293.673,229.684,289.831,220.877z M213.832,167.973l-14.747,13.563c-1.38,1.268-3.638,1.268-5.018,0
				l-14.747-13.563c-1.381-1.268-2.194-3.807-1.811-5.641l7.689-36.723c0.115-0.548,0.463-2.21,0.434-2.587
				c-0.151-1.936-0.604-7.745-0.604-7.745c-0.146-1.869,1.268-3.398,3.142-3.398h16.813c1.874,0,3.287,1.53,3.142,3.398
				c0,0-0.453,5.808-0.604,7.745c-0.029,0.376,0.318,2.039,0.434,2.587l7.689,36.723
				C216.027,164.166,215.213,166.705,213.832,167.973z"/>
		</g>
	</g>
</g>
<g>
</g>
<g>
</g>
<g>
</g>
<g>
</g>
<g>
</g>
<g>
</g>
<g>
</g>
<g>
</g>
<g>
</g>
<g>
</g>
<g>
</g>
<g>
</g>
<g>
</g>
<g>
</g>
<g>
</g>
</svg>
