<?xml version="1.0" encoding="iso-8859-1"?>
<!-- Generator: Adobe Illustrator 18.1.1, SVG Export Plug-In . SVG Version: 6.00 Build 0)  -->
<svg version="1.1" id="Capa_1" xmlns="http://www.w3.org/2000/svg" xmlns:xlink="http://www.w3.org/1999/xlink" x="0px" y="0px"
	 viewBox="0 0 334.483 334.483" style="enable-background:new 0 0 334.483 334.483;" xml:space="preserve">
<g>
	<g id="Layer_5_24_">
		<g>
			<g>
				<path d="M182.458,31.341h-58.917c-6.659,0-12.107,5.448-12.107,12.107v208.237c0,6.659,5.448,12.107,12.107,12.107h58.917
					c6.659,0,12.108-5.447,12.108-12.107V43.449C194.566,36.79,189.117,31.341,182.458,31.341z M152.999,245.1
					c-12.94,0-23.469-10.528-23.469-23.469c0-12.94,10.528-23.47,23.469-23.47s23.471,10.529,23.471,23.47
					C176.47,234.572,165.94,245.1,152.999,245.1z M183.67,143.532c0,4.44-3.632,8.071-8.071,8.071h-45.197
					c-4.439,0-8.071-3.631-8.071-8.071V60.129c0-4.439,3.632-8.071,8.071-8.071h45.197c4.439,0,8.071,3.632,8.071,8.071
					L183.67,143.532L183.67,143.532z"/>
				<g>
					<path d="M157.846,77.387h-25.153c-2.229,0-4.036-1.808-4.036-4.035c0-2.229,1.808-4.037,4.036-4.037h25.153
						c2.229,0,4.036,1.808,4.036,4.037C161.882,75.58,160.074,77.387,157.846,77.387z"/>
				</g>
			</g>
			<g>
				<path d="M84.472,31.341H25.554c-6.659,0-12.107,5.448-12.107,12.107v208.237c0,6.659,5.448,12.107,12.107,12.107h58.918
					c6.659,0,12.106-5.447,12.106-12.107V43.449C96.578,36.79,91.131,31.341,84.472,31.341z M55.012,245.1
					c-12.94,0-23.47-10.528-23.47-23.469c0-12.94,10.529-23.47,23.47-23.47c12.942,0,23.471,10.529,23.471,23.47
					C78.482,234.572,67.954,245.1,55.012,245.1z M85.682,143.532c0,4.44-3.632,8.071-8.072,8.071H32.414
					c-4.439,0-8.071-3.631-8.071-8.071V60.129c0-4.439,3.632-8.071,8.071-8.071H77.61c4.44,0,8.072,3.632,8.072,8.071V143.532z"/>
				<g>
					<path d="M59.859,77.387H34.705c-2.229,0-4.036-1.808-4.036-4.035c0-2.229,1.808-4.037,4.036-4.037h25.154
						c2.229,0,4.035,1.808,4.035,4.037C63.894,75.58,62.088,77.387,59.859,77.387z"/>
				</g>
				<g>
					<path d="M59.859,96.589H34.705c-2.229,0-4.036-1.808-4.036-4.036c0-2.23,1.808-4.035,4.036-4.035h25.154
						c2.229,0,4.035,1.806,4.035,4.035S62.088,96.589,59.859,96.589z"/>
				</g>
				<g>
					<path d="M59.859,115.791H34.705c-2.229,0-4.036-1.807-4.036-4.035c0-2.229,1.808-4.037,4.036-4.037h25.154
						c2.229,0,4.035,1.808,4.035,4.037C63.894,113.984,62.088,115.791,59.859,115.791z"/>
				</g>
			</g>
			<g>
				<path d="M320.897,241.07L289.772,35.172c-0.996-6.584-7.196-11.157-13.78-10.161l-58.259,8.807
					c-6.584,0.995-11.155,7.196-10.161,13.78l31.126,205.898c0.996,6.584,7.196,11.157,13.781,10.161l58.256-8.807
					C317.319,253.855,321.894,247.654,320.897,241.07z M242.493,151.702c-4.391,0.664-8.523-2.385-9.188-6.774L220.84,62.462
					c-0.663-4.39,2.385-8.523,6.775-9.188l44.689-6.756c4.389-0.662,8.522,2.386,9.186,6.775l12.467,82.467
					c0.663,4.39-2.385,8.524-6.775,9.187L242.493,151.702z M294.194,231.494c-3.721,5.047-9.184,8.341-15.383,9.278
					c-1.168,0.177-2.357,0.266-3.532,0.266c-11.495,0-21.461-8.582-23.181-19.964c-0.938-6.199,0.596-12.392,4.316-17.437
					c3.721-5.046,9.184-8.341,15.382-9.277c1.17-0.177,2.357-0.267,3.532-0.267c11.496,0,21.463,8.583,23.182,19.965
					C299.448,220.256,297.915,226.449,294.194,231.494z"/>
				<g>
					<path d="M231.645,68.674c-1.962,0-3.683-1.434-3.985-3.433c-0.332-2.204,1.184-4.261,3.387-4.594l24.871-3.76
						c2.211-0.336,4.26,1.183,4.594,3.387c0.333,2.204-1.184,4.261-3.387,4.594l-24.871,3.76
						C232.048,68.66,231.845,68.674,231.645,68.674z"/>
				</g>
				<g>
					<path d="M234.459,87.295c-1.963,0-3.683-1.434-3.984-3.434c-0.334-2.204,1.183-4.26,3.386-4.593l38.838-5.871
						c2.209-0.338,4.26,1.184,4.593,3.387c0.334,2.204-1.183,4.261-3.387,4.594l-38.837,5.87
						C234.863,87.28,234.659,87.295,234.459,87.295z"/>
				</g>
			</g>
			<path d="M334.483,300.609c0,4.95-4.05,9-9,9H9c-4.95,0-9-4.05-9-9v-7.891c0-4.95,4.05-9,9-9h316.483c4.95,0,9,4.05,9,9V300.609z"
				/>
		</g>
	</g>
</g>
<g>
</g>
<g>
</g>
<g>
</g>
<g>
</g>
<g>
</g>
<g>
</g>
<g>
</g>
<g>
</g>
<g>
</g>
<g>
</g>
<g>
</g>
<g>
</g>
<g>
</g>
<g>
</g>
<g>
</g>
</svg>
