<?xml version="1.0" encoding="iso-8859-1"?>
<!-- Generator: Adobe Illustrator 18.1.1, SVG Export Plug-In . SVG Version: 6.00 Build 0)  -->
<svg version="1.1" id="Capa_1" xmlns="http://www.w3.org/2000/svg" xmlns:xlink="http://www.w3.org/1999/xlink" x="0px" y="0px"
	 viewBox="0 0 408.963 408.963" style="enable-background:new 0 0 408.963 408.963;" xml:space="preserve">
<g>
	<g id="Layer_5_70_">
		<g>
			<path d="M38.745,251.212l36.629-27.12c2.601-1.926,3.148-5.595,1.223-8.196c-1.926-2.601-5.597-3.148-8.196-1.223l-36.629,27.12
				c-2.601,1.926-3.148,5.595-1.223,8.196c1.149,1.553,2.92,2.374,4.714,2.374C36.474,252.363,37.696,251.988,38.745,251.212z"/>
			<path d="M113.974,220.988l-78.485,55.588c-2.641,1.871-3.266,5.528-1.395,8.169c1.143,1.613,2.951,2.473,4.787,2.473
				c1.171,0,2.354-0.35,3.382-1.078l78.485-55.588c2.641-1.871,3.266-5.528,1.395-8.169
				C120.272,219.743,116.615,219.119,113.974,220.988z"/>
			<path d="M260.754,251.212l36.629-27.12c2.601-1.926,3.148-5.595,1.223-8.196c-1.926-2.601-5.597-3.148-8.196-1.223l-36.629,27.12
				c-2.601,1.926-3.148,5.595-1.223,8.196c1.149,1.553,2.92,2.374,4.714,2.374C258.484,252.363,259.706,251.988,260.754,251.212z"/>
			<path d="M335.983,220.988l-78.484,55.588c-2.641,1.871-3.266,5.528-1.395,8.169c1.143,1.613,2.951,2.473,4.787,2.473
				c1.171,0,2.354-0.35,3.382-1.078l78.484-55.588c2.641-1.871,3.266-5.528,1.395-8.169
				C342.282,219.743,338.624,219.119,335.983,220.988z"/>
			<path d="M398.596,185.888c-27.344-28.013-107.543-106.06-107.543-106.06c-13.226-13.226-34.596-13.377-47.637-0.336
				c-11.411,11.411-12.721,29.198-4.01,42.327c1.245,1.876,4.234,4.966,7.714,1.942l7.509-7.509c2.116-2.38,0.062-5.359-0.663-7.011
				c-2.365-5.39-1.382-11.873,2.972-16.227c5.689-5.689,15.012-5.623,20.782,0.146l92.56,91.284H242.562
				c-9.479,0-17.233,7.755-17.233,17.233v36.696c0,6.17-1.854,4.828-2.851,4.509c-4.805-1.534-10.714-2.391-17.995-2.391
				c-6.821,0-12.44,0.753-17.072,2.108c-1.338,0.392-3.774,1.943-3.774-3.796v-37.127c0-9.479-7.755-17.233-17.233-17.233H38.93
				l92.746-91.431c5.689-5.689,15.012-5.622,20.782,0.148c4.712,4.711,5.62,11.792,2.697,17.329
				c-0.657,1.243-2.107,3.477-0.164,5.838l7.868,7.868c3.127,3.282,7.639-1.837,9.148-4.713c6.658-12.681,4.564-28.874-6.217-39.655
				c-13.227-13.227-34.596-13.378-47.637-0.337c0,0-75.498,73.792-108.065,106.532C5.482,190.653,0,194.746,0,201.676v120.246
				c0,9.478,7.755,17.234,17.233,17.234h149.169c9.479,0,17.233-7.755,17.233-17.234v-49.397c0.269-4.27,0.957-7.594,2.557-9.727
				c2.524-3.365,8.677-5.071,18.29-5.071c9.612,0,15.766,1.706,18.29,5.071c1.6,2.133,2.288,5.457,2.557,9.727v49.397
				c0,9.478,7.755,17.234,17.233,17.234H391.73c9.479,0,17.233-7.755,17.233-17.234V201.678
				C408.963,194.638,403.237,190.643,398.596,185.888z M166.402,304.688c0,9.479-7.755,17.233-17.233,17.233H34.467
				c-9.479,0-17.233-7.755-17.233-17.233v-85.777c0-9.478,7.755-17.233,17.233-17.233h114.702c9.479,0,17.233,7.755,17.233,17.233
				L166.402,304.688L166.402,304.688z M391.73,304.688c0,9.479-7.755,17.233-17.233,17.233H259.795
				c-9.478,0-17.233-7.755-17.233-17.233v-85.777c0-9.478,7.755-17.233,17.233-17.233h114.702c9.479,0,17.233,7.755,17.233,17.233
				V304.688z"/>
		</g>
	</g>
</g>
<g>
</g>
<g>
</g>
<g>
</g>
<g>
</g>
<g>
</g>
<g>
</g>
<g>
</g>
<g>
</g>
<g>
</g>
<g>
</g>
<g>
</g>
<g>
</g>
<g>
</g>
<g>
</g>
<g>
</g>
</svg>
