<?xml version="1.0" encoding="iso-8859-1"?>
<!-- Generator: Adobe Illustrator 18.1.1, SVG Export Plug-In . SVG Version: 6.00 Build 0)  -->
<svg version="1.1" id="Capa_1" xmlns="http://www.w3.org/2000/svg" xmlns:xlink="http://www.w3.org/1999/xlink" x="0px" y="0px"
	 viewBox="0 0 413.454 413.454" style="enable-background:new 0 0 413.454 413.454;" xml:space="preserve">
<g>
	<g id="Layer_5_92_">
		<g>
			<g>
				<path d="M198.752,223.28c2.456,7.096-1.678,12.9-9.186,12.9H82.396c-7.508,0-11.642-5.805-9.187-12.9l11.459-33.107
					c2.456-7.096,10.608-12.9,18.116-12.9h66.392c7.508,0,15.661,5.805,18.116,12.9L198.752,223.28z"/>
				<path d="M340.245,223.28c2.456,7.096-1.678,12.9-9.186,12.9h-107.17c-7.508,0-11.642-5.805-9.186-12.9l11.459-33.107
					c2.456-7.096,10.608-12.9,18.116-12.9h66.392c7.508,0,15.661,5.805,18.116,12.9L340.245,223.28z"/>
			</g>
			<path d="M269.498,130.073c2.456,7.096-1.678,12.9-9.186,12.9h-107.17c-7.508,0-11.642-5.805-9.186-12.9l11.459-33.108
				c2.456-7.095,10.608-12.9,18.116-12.9h66.392c7.508,0,15.661,5.806,18.116,12.9L269.498,130.073z"/>
			<g>
				<path d="M412.745,316.488c2.455,7.095-1.678,12.9-9.186,12.9h-107.17c-7.508,0-11.642-5.806-9.186-12.9l11.459-33.108
					c2.455-7.096,10.608-12.9,18.116-12.9h66.393c7.508,0,15.66,5.805,18.116,12.9L412.745,316.488z"/>
				<path d="M126.251,316.488c2.456,7.095-1.678,12.9-9.187,12.9H9.895c-7.508,0-11.642-5.806-9.187-12.9l11.459-33.108
					c2.456-7.096,10.608-12.9,18.116-12.9h66.392c7.508,0,15.661,5.805,18.116,12.9L126.251,316.488z"/>
				<path d="M269.498,316.488c2.456,7.095-1.678,12.9-9.186,12.9h-107.17c-7.508,0-11.642-5.806-9.186-12.9l11.459-33.108
					c2.456-7.096,10.608-12.9,18.116-12.9h66.392c7.508,0,15.661,5.805,18.116,12.9L269.498,316.488z"/>
			</g>
		</g>
	</g>
</g>
<g>
</g>
<g>
</g>
<g>
</g>
<g>
</g>
<g>
</g>
<g>
</g>
<g>
</g>
<g>
</g>
<g>
</g>
<g>
</g>
<g>
</g>
<g>
</g>
<g>
</g>
<g>
</g>
<g>
</g>
</svg>
