<?xml version="1.0" encoding="iso-8859-1"?>
<!-- Generator: Adobe Illustrator 18.1.1, SVG Export Plug-In . SVG Version: 6.00 Build 0)  -->
<svg version="1.1" id="Capa_1" xmlns="http://www.w3.org/2000/svg" xmlns:xlink="http://www.w3.org/1999/xlink" x="0px" y="0px"
	 viewBox="0 0 346.891 346.891" style="enable-background:new 0 0 346.891 346.891;" xml:space="preserve">
<g>
	<g id="Layer_5_6_">
		<g>
			<path d="M286.306,70.889c-0.328-2.439-1.582-4.603-3.533-6.091c-1.617-1.236-3.545-1.889-5.58-1.889
				c-2.895,0-5.563,1.318-7.32,3.618c0,0-35.738,46.342-47.355,62.012c-0.262,0.352-0.66,0.026-0.66,0.026L166.12,98.914
				c-2.041-1.086-4.359-1.66-6.705-1.66c-4.846,0-9.34,2.339-12.023,6.257l-37.938,55.442c-0.018,0.007-0.355,0.672-0.955,0.672
				H69.706c-5.074,0-9.203,4.128-9.203,9.203c0,5.074,4.129,9.202,9.203,9.202h39.4c5.539,0,11.83-3.316,14.957-7.883
				c0.275-0.398,27.41-39.714,36.271-52.959c0.289-0.432,0.674-0.145,0.674-0.145l55.402,29.472
				c2.045,1.088,4.391,1.664,6.785,1.664c4.686,0,9.121-2.144,11.863-5.733l49.443-64.749
				C285.991,75.745,286.63,73.327,286.306,70.889z"/>
			<path d="M343.952,18.226v-7.318c0-6-4.908-10.908-10.908-10.908H13.845C7.847,0,2.937,4.909,2.937,10.908v7.318
				c0,4.307,2.531,8.044,6.178,9.811c1.217,0.589,3.967,1.051,3.967,3.357v184.13c0,1.373-1.75,1.826-2.568,2.09
				c-4.383,1.415-7.576,5.535-7.576,10.372v7.318c0,6,4.91,10.909,10.908,10.909h319.199c6,0,10.908-4.909,10.908-10.909v-7.318
				c0-5.25-3.762-9.656-8.723-10.675c-0.465-0.095-1.42-0.052-1.42-1.597V31.816c0-2.364,1.99-3.003,2.91-3.334
				C340.926,26.967,343.952,22.937,343.952,18.226z M315.266,214.951c0,1.582-1.766,1.402-1.766,1.402H33.968
				c0,0-2.342,0.452-2.342-1.593c0-45.68,0-136.64,0-182.718c0-1.955,2.707-2.298,2.707-2.298h277.621c0,0,3.311-0.156,3.311,2.72
				C315.266,78.437,315.266,169.329,315.266,214.951z"/>
			<path d="M247.451,329.032l-62.592-43.871c0,0-1.596-0.904-1.596-2.177c0-3.931,0-15.726,0-15.726
				c0-5.422-4.395-5.182-9.816-5.182c-5.424,0-9.818-0.24-9.818,5.182c0,0,0,11.794,0,15.726c0,1.353-2.092,2.526-2.092,2.526
				L99.44,329.031c-4.441,3.112-5.518,9.235-2.404,13.675c1.91,2.726,4.955,4.184,8.047,4.184c1.947,0,3.912-0.578,5.627-1.779
				l51.982-36.433c0,0,0.936-0.718,0.936,0.782c0,6.903,0,27.612,0,27.612c0,5.422,4.395,9.817,9.818,9.817
				c5.422,0,9.816-4.395,9.816-9.817c0,0,0-20.862,0-27.816c0-1.091,0.67-0.764,0.67-0.764l52.246,36.62
				c1.715,1.202,3.682,1.779,5.627,1.779c3.094,0,6.139-1.459,8.049-4.184C252.966,338.266,251.891,332.144,247.451,329.032z"/>
		</g>
	</g>
</g>
<g>
</g>
<g>
</g>
<g>
</g>
<g>
</g>
<g>
</g>
<g>
</g>
<g>
</g>
<g>
</g>
<g>
</g>
<g>
</g>
<g>
</g>
<g>
</g>
<g>
</g>
<g>
</g>
<g>
</g>
</svg>
