<?xml version="1.0" encoding="iso-8859-1"?>
<!-- Generator: Adobe Illustrator 18.1.1, SVG Export Plug-In . SVG Version: 6.00 Build 0)  -->
<svg version="1.1" id="Capa_1" xmlns="http://www.w3.org/2000/svg" xmlns:xlink="http://www.w3.org/1999/xlink" x="0px" y="0px"
	 viewBox="0 0 346.708 346.708" style="enable-background:new 0 0 346.708 346.708;" xml:space="preserve">
<g>
	<g id="Layer_5_67_">
		<g>
			<path d="M273.103,36.649C246.994,13.015,211.569,0,173.353,0S99.712,13.016,73.604,36.649
				c-27.071,24.505-41.98,58.686-41.98,96.247c0,58.822,24.424,82.62,44.049,101.742c13.873,13.517,24.953,22.834,27.391,44.886
				c0.346,1.768-0.757,2.503-1.206,2.943c-3.139,3.082-5.091,7.366-5.091,12.112c0,12.251,7.43,24.573,29.89,31.805
				c1.587,0.49,1.78,1.323,1.975,1.753c3.796,8.386,14.61,18.571,44.721,18.571c29.762,0,40.605-10.292,44.523-18.476
				c0.214-0.448,0.534-1.357,1.801-1.723c22.565-7.224,30.262-19.652,30.262-31.93c0-4.925-2.102-9.351-5.449-12.454
				c-0.342-0.317-1.038-1.084-0.843-2.741c2.424-22.355,13.541-31.549,27.48-45.082c19.583-19.012,43.956-42.672,43.956-101.406
				C315.083,95.334,300.175,61.153,273.103,36.649z M253.017,215.646c-16.651,16.165-36.065,36.477-36.065,70.835
				c0,2.017-0.664,2.803-1.135,3.137c-4.341,3.072-16.726,8.021-42.463,8.021c-24.483,0-36.845-4.383-41.723-7.413
				c-0.837-0.52-2.137-1.104-1.939-3.986c0-34.951-19.266-54.045-35.874-70.227c-18.613-18.136-36.193-35.266-36.193-83.12
				c0-61.94,48.671-106.896,115.729-106.896s115.729,44.956,115.729,106.896C289.083,180.633,271.565,197.64,253.017,215.646z"/>
			<path d="M165.219,43.405c-50.399,0-88.405,35.723-88.405,83.094c0,6.075,4.925,11,11,11s11-4.925,11-11
				c0-35.4,27.927-61.094,66.405-61.094c6.075,0,11-4.924,11-11C176.219,48.33,171.295,43.405,165.219,43.405z"/>
		</g>
	</g>
</g>
<g>
</g>
<g>
</g>
<g>
</g>
<g>
</g>
<g>
</g>
<g>
</g>
<g>
</g>
<g>
</g>
<g>
</g>
<g>
</g>
<g>
</g>
<g>
</g>
<g>
</g>
<g>
</g>
<g>
</g>
</svg>
