<?xml version="1.0" encoding="iso-8859-1"?>
<!-- Generator: Adobe Illustrator 18.1.1, SVG Export Plug-In . SVG Version: 6.00 Build 0)  -->
<svg version="1.1" id="Capa_1" xmlns="http://www.w3.org/2000/svg" xmlns:xlink="http://www.w3.org/1999/xlink" x="0px" y="0px"
	 viewBox="0 0 431.006 431.006" style="enable-background:new 0 0 431.006 431.006;" xml:space="preserve">
<g>
	<g id="Layer_5_86_">
		<g>
			<path d="M132.01,303.056c0,8.25-6.582,16.496-14.627,18.326L14.626,344.747C6.582,346.577,0,341.323,0,333.073v-217
				c0-8.25,6.582-16.496,14.626-18.326l102.757-23.365c8.045-1.83,14.627,3.424,14.627,11.674V303.056z"/>
			<path d="M431.006,333.073c0,8.25-6.73,15.51-14.957,16.134l-102.096,7.738c-8.226,0.624-14.957-5.616-14.957-13.866v-217
				c0-8.25,6.731-15.51,14.957-16.134l102.096-7.738c8.227-0.624,14.957,5.616,14.957,13.866V333.073z"/>
			<path d="M234.758,232.568c-23.617,0-42.761,19.145-42.761,42.76c0,23.616,38.351,78.804,42.761,78.804
				c4.575,0,42.758-55.188,42.758-78.804C277.516,251.713,258.372,232.568,234.758,232.568z M234.757,305.341
				c-17.326,0-31.372-13.974-31.372-31.212s14.046-31.212,31.372-31.212c17.325,0,31.371,13.974,31.371,31.212
				S252.082,305.341,234.757,305.341z"/>
			<path d="M173.997,275.327c0-33.503,27.257-60.76,60.761-60.76c16.434,0.001,31.361,6.561,42.31,17.197
				c1.563,1.52,4.44,4.741,4.44-5.134V126.079c0-8.25-6.46-16.958-14.354-19.352l-103.301-31.32
				c-7.896-2.394-14.355,2.398-14.355,10.648v217c0,8.25,6.459,16.958,14.355,19.352l23.313,7.068
				c7.503,2.821,4.282-3.302,2.897-5.955C179.404,303.098,173.997,286.912,173.997,275.327z"/>
			<path d="M273.496,334.542c-2.843,4.994-5.805,9.896-8.714,14.447c-0.73,1.143-2.446,3.392,0.569,4.192l1.802,0.546
				c7.895,2.394,14.354-2.398,14.354-10.648v-18.011c0-5.25-1.17-3.159-1.779-1.98C277.822,326.768,275.749,330.583,273.496,334.542
				z"/>
		</g>
	</g>
</g>
<g>
</g>
<g>
</g>
<g>
</g>
<g>
</g>
<g>
</g>
<g>
</g>
<g>
</g>
<g>
</g>
<g>
</g>
<g>
</g>
<g>
</g>
<g>
</g>
<g>
</g>
<g>
</g>
<g>
</g>
</svg>
