<?xml version="1.0" encoding="iso-8859-1"?>
<!-- Generator: Adobe Illustrator 18.1.1, SVG Export Plug-In . SVG Version: 6.00 Build 0)  -->
<svg version="1.1" id="Capa_1" xmlns="http://www.w3.org/2000/svg" xmlns:xlink="http://www.w3.org/1999/xlink" x="0px" y="0px"
	 viewBox="0 0 382.553 382.553" style="enable-background:new 0 0 382.553 382.553;" xml:space="preserve">
<g>
	<g id="Layer_5_63_">
		<g>
			<path d="M191.276,155.77c-35.999,0-65.18,29.182-65.18,65.179c0,35.996,29.181,65.18,65.18,65.18
				c35.997,0,65.177-29.184,65.177-65.18C256.453,184.952,227.274,155.77,191.276,155.77z M196.704,254.577
				c-0.101,0.023-0.592,0.082-0.592,0.748v7.118c0,1.946-1.625,3.53-3.622,3.53h-3.23c-1.996,0-3.62-1.584-3.62-3.53v-6.765
				c0-0.5-0.548-0.693-0.656-0.709c-0.4-0.062-9.402-1.482-14.054-3.904c-1.165-0.606-2.076-1.973-1.484-3.655l1.664-4.505
				c0.501-1.35,1.758-2.222,3.198-2.222c0.529,0,1.042,0.117,1.526,0.346c0.075,0.036,7.65,3.584,13.247,3.584
				c6.555,0,11.129-3.515,11.129-8.546c0-4.623-3.23-7.776-11.149-10.885c-9.906-3.765-19.08-8.78-19.08-19.879
				c0-8.904,6.022-15.963,15.658-18.257c0.205-0.049,0.77-0.275,0.77-0.796l-0.008-6.794c0-1.947,1.625-3.531,3.618-3.531h3.125
				c1.995,0,3.621,1.584,3.621,3.53l0.024,6.462c0,0.5,0.428,0.592,0.551,0.613c0.078,0.013,7.711,1.329,11.617,3.029
				c1.174,0.507,2.095,1.922,1.487,3.545l-1.742,4.455c-0.509,1.301-1.737,2.141-3.125,2.141c-0.568,0-1.143-0.146-1.654-0.419
				c-0.044-0.023-4.909-2.524-11.253-2.524c-7.172,0-9.715,3.924-9.715,7.283c0,4.196,2.771,6.521,12.357,10.364
				c12.602,4.977,17.98,11.237,17.98,20.924C213.293,244.759,206.969,252.27,196.704,254.577z"/>
			<path d="M235.429,68.125c-1.438-0.755-4.581-2.549-1.451-5.586l36.666-43.456C279.499,8.587,275.509,0,261.778,0H120.775
				c-13.732,0-17.723,8.587-8.867,19.083l37.522,44.471c2.911,2.599-1.741,4.255-3.604,5.264
				C83.245,102.719,37.781,199.943,37.781,268.89c0,84.772,68.723,113.663,153.495,113.663c84.773,0,153.496-28.891,153.496-113.663
				C344.772,199.466,298.678,101.376,235.429,68.125z M191.276,305.792c-46.858,0-84.842-37.986-84.842-84.843
				c0-46.855,37.983-84.842,84.842-84.842c46.856,0,84.841,37.986,84.841,84.842S238.133,305.792,191.276,305.792z"/>
		</g>
	</g>
</g>
<g>
</g>
<g>
</g>
<g>
</g>
<g>
</g>
<g>
</g>
<g>
</g>
<g>
</g>
<g>
</g>
<g>
</g>
<g>
</g>
<g>
</g>
<g>
</g>
<g>
</g>
<g>
</g>
<g>
</g>
</svg>
