<?xml version="1.0" encoding="iso-8859-1"?>
<!-- Generator: Adobe Illustrator 18.1.1, SVG Export Plug-In . SVG Version: 6.00 Build 0)  -->
<svg version="1.1" id="Capa_1" xmlns="http://www.w3.org/2000/svg" xmlns:xlink="http://www.w3.org/1999/xlink" x="0px" y="0px"
	 viewBox="0 0 377.8 377.8" style="enable-background:new 0 0 377.8 377.8;" xml:space="preserve">
<g>
	<g id="Layer_5_82_">
		<g>
			<g>
				<g>
					<path d="M185.901,121.845c33.994,0,61.555-27.274,61.555-60.924C247.456,27.278,219.895,0,185.901,0
						c-33.999,0-61.557,27.278-61.557,60.921C124.344,94.57,151.902,121.845,185.901,121.845z"/>
				</g>
				<path d="M291.169,238.43l-28.289-75.651c-1.041-2.752-7.91-20.791-26.261-20.791c-2.918,0-3.398,0-3.398,0
					c-1.453,0-24.122-0.033-47.321-0.066c-23.2,0.033-45.868,0.066-47.322,0.066c0,0-0.48,0-3.398,0
					c-18.35,0-25.219,18.039-26.26,20.791L80.63,238.43c-1.043,2.752-0.525,7.829,3.83,11.623
					c6.949,6.054,15.879,13.081,24.013,13.081c5.519,0,7.237-4.831,7.237-4.831l14.597-38.206c0,0,2.46-6.723,2.46,0.57
					c0,10.023,0.13,26.672,0.196,39.539c0.022,4.339,0.885,9.657,5.247,12.347c16.227,10.006,30.218,9.392,47.69,9.414
					c17.473-0.022,31.464,0.592,47.69-9.414c4.362-2.69,5.225-8.008,5.247-12.347c0.065-12.867,0.195-29.516,0.195-39.539
					c0-7.293,2.461-0.57,2.461-0.57l14.597,38.206c0,0,1.718,4.831,7.237,4.831c8.134,0,17.064-7.027,24.013-13.081
					C291.695,246.259,292.212,241.182,291.169,238.43z M210.068,240.149l-20.655,18.994c-0.965,0.889-2.239,1.333-3.513,1.333
					c-1.273,0-2.547-0.444-3.513-1.333l-20.655-18.994c-1.934-1.775-3.073-5.331-2.536-7.899l10.771-51.431
					c0.161-0.768,0.647-3.096,0.606-3.624c-0.211-2.712-0.846-10.846-0.846-10.846c-0.206-2.617,1.775-4.76,4.4-4.76H185.9h11.773
					c2.624,0,4.604,2.143,4.4,4.76c0,0-0.635,8.134-0.847,10.846c-0.041,0.528,0.445,2.856,0.606,3.624l10.77,51.431
					C213.14,234.818,212.002,238.373,210.068,240.149z"/>
			</g>
			<path d="M348.875,271.561c-0.822,0-1.629,0.066-2.418,0.189c-0.646,0.101-1.793,0.399-2.95-0.638l-20.195-20.194
				c-1.798-1.966-6.038-7.645-12.458-4.98c-3.746,1.555-5.277,6.452-5.836,7.85c-11.072,27.669-67.078,49.255-120.978,49.255
				c-52.03,0-103.762-19.969-115.581-47.247c-0.596-1.376-2.035-3.626-3.202-4.73c-2.616-2.476-8.254-2.712-11.75,0.782
				l-18.846,18.846c-1.899,1.391-2.968,1.098-3.75,0.996c-0.65-0.083-1.313-0.128-1.986-0.128c-8.917,0-16.146,7.229-16.146,16.146
				s7.229,16.146,16.146,16.146c8.393,0,15.29-6.403,16.072-14.592c0.049-0.511,0.074-1.029,0.074-1.554c0-0.67-0.265-2,1.328-3.435
				l9.378-9.378c2.784-2.744,4.234-0.532,5.111,0.464c23.129,26.313,65.374,43.366,113.511,45.384c1.352,0.057,4.07,0.24,4.07,3.135
				c0,6.086,0,17.342,0,23.122c0,1.163-1.061,1.975-1.554,2.397c-3.452,2.961-5.641,7.353-5.641,12.257
				c0,8.917,7.229,16.146,16.146,16.146s16.145-7.228,16.145-16.146c0-4.883-2.169-9.257-5.595-12.217
				c-0.507-0.439-1.6-1.209-1.6-2.438c0-5.846,0-17.233,0-23.385c0-3.027,2.532-3.145,3.793-3.231
				c48.812-3.376,91.966-21.87,113.811-48.396c0.774-0.94,2.305-2.47,4.766-0.324l12.987,12.986
				c1.355,1.014,1.004,2.404,1.004,3.058c0,0.316,0.01,0.631,0.027,0.943c0.488,8.478,7.519,15.202,16.118,15.202
				c8.918,0,16.146-7.229,16.146-16.146S357.793,271.561,348.875,271.561z"/>
		</g>
	</g>
</g>
<g>
</g>
<g>
</g>
<g>
</g>
<g>
</g>
<g>
</g>
<g>
</g>
<g>
</g>
<g>
</g>
<g>
</g>
<g>
</g>
<g>
</g>
<g>
</g>
<g>
</g>
<g>
</g>
<g>
</g>
</svg>
