<?xml version="1.0" encoding="iso-8859-1"?>
<!-- Generator: Adobe Illustrator 18.1.1, SVG Export Plug-In . SVG Version: 6.00 Build 0)  -->
<svg version="1.1" id="Capa_1" xmlns="http://www.w3.org/2000/svg" xmlns:xlink="http://www.w3.org/1999/xlink" x="0px" y="0px"
	 viewBox="0 0 332.843 332.843" style="enable-background:new 0 0 332.843 332.843;" xml:space="preserve">
<g>
	<g id="Layer_5_40_">
		<g>
			<path d="M246.431,122.241c-10.047-4.027-12.951-6.464-12.951-10.861c0-3.52,2.666-7.632,10.182-7.632
				c6.648,0,11.746,2.621,11.791,2.645c0.538,0.287,1.139,0.438,1.734,0.438c1.456,0,2.742-0.88,3.275-2.242l1.826-4.67
				c0.636-1.7-0.329-3.184-1.559-3.715c-4.094-1.781-12.093-3.16-12.175-3.174c-0.129-0.023-0.575-0.119-0.575-0.643l-0.027-6.772
				c0-2.039-1.703-3.699-3.795-3.699h-3.274c-2.09,0-3.792,1.66-3.792,3.701l0.009,7.12c0,0.545-0.592,0.781-0.808,0.833
				c-10.098,2.404-16.409,9.801-16.409,19.132c0,11.631,9.615,16.887,19.995,20.832c8.299,3.258,11.685,6.563,11.685,11.407
				c0,5.272-4.795,8.956-11.663,8.956c-5.864,0-13.802-3.719-13.882-3.756c-0.508-0.24-1.047-0.362-1.6-0.362
				c-1.511,0-2.828,0.914-3.353,2.328l-1.744,4.721c-0.62,1.763,0.335,3.194,1.556,3.831c4.875,2.538,14.309,4.026,14.728,4.092
				c0.112,0.016,0.688,0.219,0.688,0.742v7.09c0,2.039,1.702,3.699,3.794,3.699h3.387c2.092,0,3.795-1.66,3.795-3.699v-7.46
				c0-0.698,0.515-0.759,0.62-0.784c10.757-2.417,17.384-10.287,17.384-20.17C265.273,134.017,259.636,127.458,246.431,122.241z"/>
			<path d="M155.556,72.697v110.816c0,8.54,6.947,15.489,15.49,15.489h20.674l2.953,20.288c0.957,6.571,5.868,11.161,11.943,11.161
				c2.98,0,5.917-1.108,8.491-3.206l31.925-26.013c1.279-1.042,4.615-2.23,6.267-2.23h17.163v-0.067h44.795
				c7.564-0.526,13.828-7.224,13.828-15.422c0,0,0.006-36.771,0-51.686c0-0.424,0-19.961,0-20.814c0-7.587,0-38.315,0-38.315
				c0-8.543-6.948-15.492-15.489-15.492h-142.55C162.503,57.205,155.556,64.154,155.556,72.697z M170.555,84.73
				c0-4.824,3.948-8.77,8.771-8.77h125.988c4.824,0,8.771,3.946,8.771,8.77v88.51c0,4.825-3.947,8.772-8.771,8.772
				c0,0-39.725,0-57.402,0c-4.504,0-8.929,3.019-12.023,5.542l-25.035,20.397l-1.81-12.443c-0.936-6.418-5.557-13.496-11.889-13.496
				c-6.519,0-17.828,0-17.828,0c-4.822,0-8.771-3.947-8.771-8.772L170.555,84.73L170.555,84.73z"/>
			<path d="M48.155,44.234h86.753c4.61,0,6.24-2.775,7.367-3.969c3.628-3.846,8.766-6.251,14.459-6.251c0,0,63.358,0,84.479,0
				c2.305,0,2.305-2.788,2.305-2.788V15.369C243.518,6.916,236.602,0,228.149,0H19.124C10.671,0,3.755,6.916,3.755,15.369v302.104
				c0,8.454,6.916,15.37,15.369,15.37h209.023c8.453,0,15.369-6.916,15.369-15.37c0,0,0-60.485,0-81.647
				c0-5.251-2.861-2.558-2.861-2.558l-23.605,19.233c0,0-2.564,1.896-2.564,4.842c0,4.725,0,15.896,0,15.896
				c0,8.453-6.916,15.369-15.369,15.369H48.155c-8.453,0-15.369-6.916-15.369-15.369V59.604
				C32.785,51.15,39.701,44.234,48.155,44.234z M123.636,298.849c6.978,0,12.637,5.657,12.637,12.638
				c0,6.978-5.658,12.637-12.637,12.637c-6.98,0-12.638-5.658-12.638-12.637C110.998,304.506,116.656,298.849,123.636,298.849z"/>
		</g>
	</g>
</g>
<g>
</g>
<g>
</g>
<g>
</g>
<g>
</g>
<g>
</g>
<g>
</g>
<g>
</g>
<g>
</g>
<g>
</g>
<g>
</g>
<g>
</g>
<g>
</g>
<g>
</g>
<g>
</g>
<g>
</g>
</svg>
