<?xml version="1.0" encoding="iso-8859-1"?>
<!-- Generator: Adobe Illustrator 18.1.1, SVG Export Plug-In . SVG Version: 6.00 Build 0)  -->
<svg version="1.1" id="Capa_1" xmlns="http://www.w3.org/2000/svg" xmlns:xlink="http://www.w3.org/1999/xlink" x="0px" y="0px"
	 viewBox="0 0 311.521 311.521" style="enable-background:new 0 0 311.521 311.521;" xml:space="preserve">
<g>
	<g id="Layer_5_7_">
		<g>
			<path d="M198.762,182.405c21.318-21.318,83.947-83.948,83.947-83.948c22.553-22.553,26.057-55.615,3.504-78.168
				C263.66-2.265,230.598,1.24,208.045,23.793l-84.916,84.916c0,0-1.805,1.805-0.316,3.292
				c15.635,15.635,57.998,57.998,69.979,69.979C194.831,184.019,195.989,185.178,198.762,182.405z"/>
			<path d="M112.496,133.711c-0.986-0.986-1.855-0.872-2.725,0.088c-9.383,10.378-65.672,72.538-86.594,93.46
				C10.013,240.422,6.22,267.194,8.57,282.905c0.078,0.523,0.543,1.244-0.389,2.175c-2.572,2.571-4.094,4.407-5.58,5.893
				c-4.018,4.017-2.635,11.912-0.809,13.738c1.813,1.811,9.721,3.208,13.738-0.808c1.49-1.489,3.334-3.02,5.914-5.599
				c0.729-0.729,1.484-0.497,1.918-0.43c15.67,2.404,42.66-1.325,55.883-14.548c21.107-21.107,83.748-77.771,93.289-86.395
				c0.791-0.715,1.592-1.59,0.229-2.952C157.697,178.913,127.918,149.133,112.496,133.711z"/>
			<path d="M249.737,192.51c-4.111,4.113-10.781,4.113-14.893,0l0,0c-4.113-4.113-4.113-10.781,0-14.894l58.699-58.699
				c4.111-4.113,10.779-4.113,14.893,0l0,0c4.113,4.113,4.113,10.781,0,14.894L249.737,192.51z"/>
		</g>
	</g>
</g>
<g>
</g>
<g>
</g>
<g>
</g>
<g>
</g>
<g>
</g>
<g>
</g>
<g>
</g>
<g>
</g>
<g>
</g>
<g>
</g>
<g>
</g>
<g>
</g>
<g>
</g>
<g>
</g>
<g>
</g>
</svg>
