<?xml version="1.0" encoding="iso-8859-1"?>
<!-- Generator: Adobe Illustrator 18.1.1, SVG Export Plug-In . SVG Version: 6.00 Build 0)  -->
<svg version="1.1" id="Capa_1" xmlns="http://www.w3.org/2000/svg" xmlns:xlink="http://www.w3.org/1999/xlink" x="0px" y="0px"
	 viewBox="0 0 342.64 342.64" style="enable-background:new 0 0 342.64 342.64;" xml:space="preserve">
<g>
	<g id="Layer_5_1_">
		<g>
			<path d="M171.316,0c-50.73,0-96.31,22.05-127.67,57.1C16.505,87.41,0.005,127.44,0.005,171.32
				c0,94.62,76.699,171.32,171.31,171.32c90.01,0,163.809-69.41,170.779-157.64c0.359-4.51,0.541-9.07,0.541-13.68
				C342.637,76.699,265.936,0,171.316,0z M171.316,310.2c-76.701,0-138.881-62.18-138.881-138.88c0-35.58,13.381-68.03,35.381-92.6
				c25.43-28.4,62.379-46.28,103.5-46.28c76.709,0,138.879,62.18,138.879,138.88c0,4.57-0.219,9.1-0.66,13.56
				C302.727,255.22,243.445,310.2,171.316,310.2z"/>
			<g>
				<path d="M288.502,182.737c0.369-3.756,0.555-7.57,0.555-11.418c0-64.582-52.348-116.938-116.938-116.938
					c-34.623,0-65.736,15.055-87.148,38.968c-8.047,8.987-14.371,17.617-19.102,28.888c-1.715,4.083-0.654,7.958,3.662,9.558
					l97.236,37.462c0,0,5.352,2.062,5.352,8.812c0,27.972,0,102.917,0,102.917c-0.049,5.208,3.711,7.425,6.451,7.183
					C240.57,282.695,282.83,241.308,288.502,182.737z"/>
			</g>
		</g>
	</g>
</g>
<g>
</g>
<g>
</g>
<g>
</g>
<g>
</g>
<g>
</g>
<g>
</g>
<g>
</g>
<g>
</g>
<g>
</g>
<g>
</g>
<g>
</g>
<g>
</g>
<g>
</g>
<g>
</g>
<g>
</g>
</svg>
