<?xml version="1.0" encoding="iso-8859-1"?>
<!-- Generator: Adobe Illustrator 18.1.1, SVG Export Plug-In . SVG Version: 6.00 Build 0)  -->
<svg version="1.1" id="Capa_1" xmlns="http://www.w3.org/2000/svg" xmlns:xlink="http://www.w3.org/1999/xlink" x="0px" y="0px"
	 viewBox="0 0 367.81 367.81" style="enable-background:new 0 0 367.81 367.81;" xml:space="preserve">
<g>
	<g id="Layer_5_32_">
		<g>
			<path d="M183.906,0C102.858,0,37.16,65.701,37.16,146.746c0,81.046,131.613,221.064,146.746,221.064
				c15.702,0,146.743-140.018,146.743-221.064C330.65,65.701,264.949,0,183.906,0z M173.033,174.017
				c-0.151-1.913,1.299-3.479,3.218-3.479h17.22c1.919,0,3.367,1.566,3.218,3.479c0,0-0.579,6.813-0.206,8.372
				c2.235,9.344,7.879,37.611,7.879,37.611c0.394,1.879-0.442,4.479-1.856,5.779l-15.104,13.889c-1.414,1.3-3.727,1.3-5.14,0
				l-15.104-13.889c-1.414-1.301-2.248-3.9-1.855-5.779c0,0,5.688-28.258,7.878-37.611
				C173.525,180.913,173.033,174.017,173.033,174.017z M78.789,142.478c0-58.345,47.298-105.643,105.642-105.643
				c58.346,0,105.643,47.298,105.643,105.643c0,30.455-12.889,57.897-33.506,77.175c-0.169,0.158-2.537,1.34-3.078-0.367
				l-17.788-54.89c-2.58-6.947-9.548-10.869-16.64-10.869c-3.541,0-3.87,0.094-5.977,0.094H149.79
				c-8.093,0-14.048,3.828-16.629,10.775l-17.948,54.574c-0.807,2.231-2.683,0.889-2.741,0.834
				C91.658,200.511,78.789,173.097,78.789,142.478z"/>
			<ellipse cx="184.832" cy="100.263" rx="43.478" ry="43.031"/>
		</g>
	</g>
</g>
<g>
</g>
<g>
</g>
<g>
</g>
<g>
</g>
<g>
</g>
<g>
</g>
<g>
</g>
<g>
</g>
<g>
</g>
<g>
</g>
<g>
</g>
<g>
</g>
<g>
</g>
<g>
</g>
<g>
</g>
</svg>
