<?xml version="1.0" encoding="iso-8859-1"?>
<!-- Generator: Adobe Illustrator 18.1.1, SVG Export Plug-In . SVG Version: 6.00 Build 0)  -->
<svg version="1.1" id="Capa_1" xmlns="http://www.w3.org/2000/svg" xmlns:xlink="http://www.w3.org/1999/xlink" x="0px" y="0px"
	 viewBox="0 0 374.745 374.745" style="enable-background:new 0 0 374.745 374.745;" xml:space="preserve">
<g>
	<g id="Layer_5_53_">
		<g>
			<path d="M195.791,204.436c-19.996-8.017-25.775-12.865-25.775-21.618c0-7.007,5.306-15.189,20.264-15.189
				c13.232,0,23.378,5.217,23.468,5.264c1.069,0.57,2.267,0.873,3.452,0.873c2.895,0,5.457-1.752,6.519-4.465l3.634-9.292
				c1.266-3.385-0.655-6.336-3.103-7.395c-8.147-3.546-24.066-6.291-24.23-6.317c-0.257-0.046-1.146-0.236-1.146-1.28l-0.053-13.478
				c0-4.059-3.391-7.363-7.551-7.363h-6.518c-4.158,0-7.547,3.304-7.547,7.366l0.017,14.171c0,1.085-1.178,1.558-1.605,1.658
				c-20.098,4.787-32.659,19.508-32.659,38.079c0,23.15,19.134,33.611,39.795,41.463c16.518,6.484,23.253,13.061,23.253,22.704
				c0,10.494-9.54,17.824-23.211,17.824c-11.673,0-27.472-7.4-27.631-7.475c-1.009-0.478-2.081-0.722-3.183-0.722
				c-3.006,0-5.625,1.818-6.672,4.634l-3.47,9.396c-1.234,3.509,0.667,6.357,3.096,7.623c9.702,5.053,28.478,8.015,29.313,8.144
				c0.226,0.033,1.37,0.436,1.37,1.479v14.109c0,4.06,3.387,7.363,7.55,7.363h6.739c4.165,0,7.554-3.304,7.554-7.363v-14.848
				c0-1.389,1.024-1.512,1.234-1.561c21.409-4.81,34.6-20.475,34.6-40.144C233.293,227.873,222.076,214.818,195.791,204.436z"/>
			<g>
				<path d="M319.94,373.506H54.804c-13.233,0-24-10.767-24-24V188.503c0-1.847-0.264-3.709-1.674-4.221l-18.084-10.161
					c-6.385-3.588-10.384-9.534-10.972-16.314c-0.587-6.78,2.329-13.325,8.002-17.958L170.772,7.004
					c4.552-3.717,10.448-5.765,16.6-5.765s12.048,2.047,16.601,5.765l162.695,132.843c5.673,4.633,8.59,11.178,8.003,17.958
					c-0.587,6.78-4.586,12.727-10.972,16.314l-18.084,10.161c-1.262,0.7-1.674,1.721-1.674,3.721v161.503
					C343.94,362.74,333.174,373.506,319.94,373.506z M58.804,335.669c0,9.5,7.736,9.837,7.736,9.837h235.709
					c0,0,13.692,1.83,13.692-13.503c0-36.243,0-144.973,0-144.973c0-16.527,6.67-21.939,15.86-27.103c0,0,2.476-1.239,3.204-1.8
					c5.577-4.29-0.402-8.267-0.402-8.267S235.349,69.607,199.51,39.595c-8.591-7.194-13.259-9.153-24.313-0.024
					C139.134,69.353,39.88,150.049,39.88,150.049s-5.631,4.121-0.581,7.829c0.843,0.619,3.646,2.048,3.646,2.048
					c9.19,5.164,15.86,10.243,15.86,27.103C58.804,187.03,58.804,298.509,58.804,335.669z"/>
			</g>
		</g>
	</g>
</g>
<g>
</g>
<g>
</g>
<g>
</g>
<g>
</g>
<g>
</g>
<g>
</g>
<g>
</g>
<g>
</g>
<g>
</g>
<g>
</g>
<g>
</g>
<g>
</g>
<g>
</g>
<g>
</g>
<g>
</g>
</svg>
