<?xml version="1.0" encoding="iso-8859-1"?>
<!-- Generator: Adobe Illustrator 18.1.1, SVG Export Plug-In . SVG Version: 6.00 Build 0)  -->
<svg version="1.1" id="Capa_1" xmlns="http://www.w3.org/2000/svg" xmlns:xlink="http://www.w3.org/1999/xlink" x="0px" y="0px"
	 viewBox="0 0 326.983 326.983" style="enable-background:new 0 0 326.983 326.983;" xml:space="preserve">
<g>
	<g id="Layer_5_4_">
		<path d="M245.758,137.029c-15.409,15.409-38.478,13.495-53.887-1.915c-15.409-15.409-17.324-38.478-1.914-53.887
			c18.039-18.04,30.199-8.048,42.918-13.674c1.167-0.516,1.826-2.574,0.176-4.224L174.098,4.376c-5.833-5.833-15.379-5.833-21.213,0
			L90.023,67.239c-1.326,1.326-1.98,0.201-2.243-0.371c-5.902-12.83,4.854-24.38-13.316-42.55
			C59.055,8.909,35.986,10.823,20.577,26.233C5.168,41.642,3.253,64.711,18.662,80.12c17.985,17.985,29.577,7.721,42.204,13.185
			c0.683,0.295,2.198,0.892,0.43,2.66l-56.92,56.92c-5.834,5.833-5.834,15.379,0,21.213l59.542,59.542
			c1.65,1.65,0.538,2.468-0.089,2.741c-12.676,5.516-24.176-4.852-42.163,13.136c-15.409,15.409-13.495,38.478,1.914,53.887
			s38.478,17.324,53.887,1.914c18.033-18.034,7.657-29.639,13.221-42.306c0.253-0.577,0.66-1.943,1.809-0.794l60.389,60.389
			c5.834,5.833,15.379,5.833,21.213,0l148.509-148.51c5.834-5.834,5.834-15.379,0-21.213l-59.976-59.977
			c-1.65-1.65-2.957,0.343-3.428,1.345C253.169,107.105,264.013,118.774,245.758,137.029z"/>
	</g>
</g>
<g>
</g>
<g>
</g>
<g>
</g>
<g>
</g>
<g>
</g>
<g>
</g>
<g>
</g>
<g>
</g>
<g>
</g>
<g>
</g>
<g>
</g>
<g>
</g>
<g>
</g>
<g>
</g>
<g>
</g>
</svg>
