<?xml version="1.0" encoding="iso-8859-1"?>
<!-- Generator: Adobe Illustrator 18.1.1, SVG Export Plug-In . SVG Version: 6.00 Build 0)  -->
<svg version="1.1" id="Capa_1" xmlns="http://www.w3.org/2000/svg" xmlns:xlink="http://www.w3.org/1999/xlink" x="0px" y="0px"
	 viewBox="0 0 324.843 324.843" style="enable-background:new 0 0 324.843 324.843;" xml:space="preserve">
<g>
	<g id="Layer_5">
		<g>
			<g>
				<path d="M264.421,0h-204c-8.25,0-15,6.75-15,15v294.843c0,8.25,6.75,15,15,15h204c8.25,0,15-6.75,15-15V15
					C279.421,6.75,272.671,0,264.421,0z M119.755,15.334h85.333c3.498,0,6.333,2.835,6.333,6.333s-2.835,6.334-6.333,6.334h-85.333
					c-3.498,0-6.333-2.836-6.333-6.334S116.257,15.334,119.755,15.334z M162.421,316.334c-6.811,0-12.333-5.522-12.333-12.333
					c0-6.812,5.522-12.333,12.333-12.333c6.812,0,12.334,5.521,12.334,12.333C174.755,310.812,169.232,316.334,162.421,316.334z
					 M251.088,266.672c0,8.25-6.75,15-15,15H88.755c-8.25,0-15-6.75-15-15v-208.5c0-8.25,6.75-15,15-15h147.333
					c8.25,0,15,6.75,15,15V266.672z"/>
			</g>
			<g>
				<path d="M95.415,135.001c-1.33,0-2.672-0.407-3.828-1.252c-2.899-2.117-3.533-6.184-1.416-9.082l43.334-59.334
					c2.117-2.899,6.184-3.534,9.082-1.416c2.899,2.117,3.533,6.184,1.416,9.083l-43.334,59.333
					C99.397,134.076,97.42,135.001,95.415,135.001z"/>
			</g>
			<g>
				<path d="M101.248,196.834c-1.285,0-2.583-0.38-3.717-1.172c-2.942-2.056-3.661-6.108-1.605-9.051L172.76,76.655
					c2.056-2.942,6.108-3.661,9.051-1.605c2.942,2.056,3.661,6.108,1.605,9.052l-76.833,109.956
					C105.318,195.866,103.3,196.834,101.248,196.834z"/>
			</g>
		</g>
	</g>
</g>
<g>
</g>
<g>
</g>
<g>
</g>
<g>
</g>
<g>
</g>
<g>
</g>
<g>
</g>
<g>
</g>
<g>
</g>
<g>
</g>
<g>
</g>
<g>
</g>
<g>
</g>
<g>
</g>
<g>
</g>
</svg>
