<?xml version="1.0" encoding="iso-8859-1"?>
<!-- Generator: Adobe Illustrator 18.1.1, SVG Export Plug-In . SVG Version: 6.00 Build 0)  -->
<svg version="1.1" id="Capa_1" xmlns="http://www.w3.org/2000/svg" xmlns:xlink="http://www.w3.org/1999/xlink" x="0px" y="0px"
	 viewBox="0 0 396.802 396.802" style="enable-background:new 0 0 396.802 396.802;" xml:space="preserve">
<g>
	<g id="Layer_5_69_">
		<g>
			<g>
				<path d="M200.361,312.663c0,9.324-6.564,13.065-14.587,8.316L93.292,275.01c-8.023-4.75-14.587-16.263-14.587-25.586V147.38
					c0-9.322,6.564-20.836,14.587-25.585l92.482-45.969c8.023-4.75,14.587-1.007,14.587,8.316V312.663z"/>
				<path d="M57.308,249.69c0,9.324-7.628,16.952-16.951,16.952H16.951C7.628,266.642,0,259.014,0,249.69V147.116
					c0-9.323,7.628-16.951,16.951-16.951h23.406c9.323,0,16.951,7.628,16.951,16.951V249.69z"/>
			</g>
			<path d="M274.516,291.944c22.353-25.472,34.887-58.256,35.295-92.315c0.408-33.999-11.284-67.023-32.92-92.989
				c-0.582-0.695-1.188-1.362-1.802-1.977c-5.365-5.365-10.735-6.15-14.732-2.155l-12.356,12.357
				c-6.536,6.536-1.745,11.866,0.557,14.428c0.296,0.329,0.574,0.639,0.811,0.926c32.753,39.693,32.411,97.033-0.815,136.34
				l-0.319,0.373c-1.968,2.294-6.579,7.663-0.575,13.668l12.979,12.977c2.235,2.236,4.478,3.324,6.666,3.233
				c3.198-0.134,5.335-2.658,6.75-4.329C274.217,292.29,274.37,292.11,274.516,291.944z"/>
			<path d="M396.789,200.786c0.602-56.983-19.721-111.779-57.222-154.288c-0.246-0.281-0.511-0.586-0.789-0.91
				c-0.851-0.987-1.815-2.107-2.9-3.193c-4.965-4.964-9.33-5.637-12.97-1.996l-13.697,13.698
				c-5.943,5.942,0.546,13.363,4.034,17.349l0.667,0.767c63.563,73.822,62.121,183.904-3.356,256.059
				c-2.038,2.245-7.452,8.212-1.873,13.791l14.475,14.474c1.477,1.478,3.148,2.208,4.968,2.172c3.342-0.066,6.143-2.69,7.957-4.658
				C374.629,312.289,396.188,257.859,396.789,200.786z"/>
		</g>
	</g>
</g>
<g>
</g>
<g>
</g>
<g>
</g>
<g>
</g>
<g>
</g>
<g>
</g>
<g>
</g>
<g>
</g>
<g>
</g>
<g>
</g>
<g>
</g>
<g>
</g>
<g>
</g>
<g>
</g>
<g>
</g>
</svg>
