<?xml version="1.0" encoding="iso-8859-1"?>
<!-- Generator: Adobe Illustrator 18.1.1, SVG Export Plug-In . SVG Version: 6.00 Build 0)  -->
<svg version="1.1" id="Capa_1" xmlns="http://www.w3.org/2000/svg" xmlns:xlink="http://www.w3.org/1999/xlink" x="0px" y="0px"
	 viewBox="0 0 364.869 364.869" style="enable-background:new 0 0 364.869 364.869;" xml:space="preserve">
<g>
	<g id="Layer_5_20_">
		<g>
			<g>
				<path d="M364.869,311.454V53.416c0-8.25-6.75-15-15-15H15c-8.25,0-15,6.75-15,15v258.037c0,8.25,6.75,15,15,15h334.869
					C358.119,326.454,364.869,319.704,364.869,311.454z M349.535,159.781v45.31c0,3.498-2.835,6.333-6.333,6.333
					c-3.498,0-6.333-2.835-6.333-6.333v-45.31c0-3.498,2.835-6.334,6.333-6.334C346.7,153.447,349.535,156.283,349.535,159.781z
					 M8.51,182.435c0-6.811,5.521-12.333,12.334-12.333c6.812,0,12.333,5.522,12.333,12.333c0,6.813-5.521,12.334-12.333,12.334
					C14.031,194.769,8.51,189.248,8.51,182.435z M58.172,291.114c-8.25,0-15-6.75-15-15V88.757c0-8.25,6.75-15,15-15h248.525
					c8.25,0,15,6.75,15,15v187.356c0,8.25-6.75,15-15,15L58.172,291.114L58.172,291.114z"/>
			</g>
			<g>
				<g>
					<path d="M71.475,155.263c-2.004,0-3.981-0.924-5.254-2.666c-2.117-2.899-1.483-6.966,1.415-9.083l59.333-43.334
						c2.899-2.118,6.965-1.483,9.082,1.415c2.117,2.899,1.483,6.966-1.416,9.083l-59.333,43.334
						C74.147,154.857,72.805,155.263,71.475,155.263z"/>
				</g>
				<g>
					<path d="M82.686,194.597c-2.052,0-4.07-0.969-5.334-2.778c-2.056-2.942-1.338-6.994,1.605-9.051l109.957-76.833
						c2.944-2.057,6.995-1.337,9.051,1.605s1.337,6.994-1.605,9.051L86.403,193.424C85.27,194.216,83.972,194.597,82.686,194.597z"
						/>
				</g>
			</g>
		</g>
	</g>
</g>
<g>
</g>
<g>
</g>
<g>
</g>
<g>
</g>
<g>
</g>
<g>
</g>
<g>
</g>
<g>
</g>
<g>
</g>
<g>
</g>
<g>
</g>
<g>
</g>
<g>
</g>
<g>
</g>
<g>
</g>
</svg>
