<?xml version="1.0" encoding="iso-8859-1"?>
<!-- Generator: Adobe Illustrator 18.1.1, SVG Export Plug-In . SVG Version: 6.00 Build 0)  -->
<svg version="1.1" id="Capa_1" xmlns="http://www.w3.org/2000/svg" xmlns:xlink="http://www.w3.org/1999/xlink" x="0px" y="0px"
	 viewBox="0 0 339.359 339.359" style="enable-background:new 0 0 339.359 339.359;" xml:space="preserve">
<g>
	<g id="Layer_5_89_">
		<g>
			<path d="M95.22,298.833c0.27,8.796-6.711,15.993-15.512,15.993H15.519c-8.799,0-15.779-7.197-15.512-15.993
				c0,0,2.857-93.718,2.857-130.288c0-36.003-2.85-128.018-2.85-128.018c-0.273-8.796,6.705-15.993,15.504-15.993h64.189
				c8.801,0,15.777,7.197,15.506,15.993c0,0-2.852,92.015-2.852,128.018C92.363,205.115,95.22,298.833,95.22,298.833z"/>
			<path d="M326.359,24.535h-200.41c-7.15,0-13,5.85-13,13v264.291c0,7.15,5.85,13,13,13h200.41c7.15,0,13-5.85,13-13V37.535
				C339.359,30.385,333.509,24.535,326.359,24.535z M188.226,276.673c0,4.4-3.6,8-8,8H152.04c-4.398,0-8-3.6-8-8v-23.88
				c0-4.4,3.602-8,8-8h28.186c4.4,0,8,3.6,8,8V276.673z M188.226,224.668c0,4.4-3.6,8-8,8H152.04c-4.398,0-8-3.6-8-8v-23.88
				c0-4.4,3.602-8,8-8h28.186c4.4,0,8,3.6,8,8V224.668z M188.226,172.664c0,4.4-3.6,8-8,8H152.04c-4.398,0-8-3.6-8-8v-23.88
				c0-4.4,3.602-8,8-8h28.186c4.4,0,8,3.6,8,8V172.664z M248.245,276.673c0,4.4-3.6,8-8,8h-28.184c-4.4,0-8-3.6-8-8v-23.88
				c0-4.4,3.6-8,8-8h28.184c4.4,0,8,3.6,8,8V276.673z M248.245,224.668c0,4.4-3.6,8-8,8h-28.184c-4.4,0-8-3.6-8-8v-23.88
				c0-4.4,3.6-8,8-8h28.184c4.4,0,8,3.6,8,8V224.668z M248.245,172.664c0,4.4-3.6,8-8,8h-28.184c-4.4,0-8-3.6-8-8v-23.88
				c0-4.4,3.6-8,8-8h28.184c4.4,0,8,3.6,8,8V172.664z M308.267,276.673c0,4.4-3.6,8-8,8h-28.184c-4.4,0-8-3.6-8-8v-23.88
				c0-4.4,3.6-8,8-8h28.184c4.4,0,8,3.6,8,8V276.673z M308.267,224.668c0,4.4-3.6,8-8,8h-28.184c-4.4,0-8-3.6-8-8v-23.88
				c0-4.4,3.6-8,8-8h28.184c4.4,0,8,3.6,8,8V224.668z M308.267,172.664c0,4.4-3.6,8-8,8h-28.184c-4.4,0-8-3.6-8-8v-23.88
				c0-4.4,3.6-8,8-8h28.184c4.4,0,8,3.6,8,8V172.664z M308.267,94.464c0,4.4-3.6,8-8,8H152.04c-4.398,0-8-3.6-8-8v-23.88
				c0-4.4,3.602-8,8-8h148.227c4.4,0,8,3.6,8,8V94.464z"/>
		</g>
	</g>
</g>
<g>
</g>
<g>
</g>
<g>
</g>
<g>
</g>
<g>
</g>
<g>
</g>
<g>
</g>
<g>
</g>
<g>
</g>
<g>
</g>
<g>
</g>
<g>
</g>
<g>
</g>
<g>
</g>
<g>
</g>
</svg>
