<?xml version="1.0" encoding="iso-8859-1"?>
<!-- Generator: Adobe Illustrator 18.1.1, SVG Export Plug-In . SVG Version: 6.00 Build 0)  -->
<svg version="1.1" id="Capa_1" xmlns="http://www.w3.org/2000/svg" xmlns:xlink="http://www.w3.org/1999/xlink" x="0px" y="0px"
	 viewBox="0 0 346.311 346.311" style="enable-background:new 0 0 346.311 346.311;" xml:space="preserve">
<g>
	<g id="Layer_5_2_">
		<g>
			<circle cx="48.394" cy="297.865" r="48.394"/>
			<g>
				<path d="M182.852,289.008c-2.083-31.938-15.606-62.201-38.077-85.219c-22.433-22.977-52.293-37.223-84.081-40.113
					c-0.854-0.076-1.704-0.117-2.523-0.117c-7.166,0-11.276,3.063-11.276,8.398v16.504c0,8.73,6.758,9.09,10.006,9.264
					c0.419,0.023,0.811,0.043,1.16,0.076c48.38,4.635,86.442,43.156,90.504,91.592l0.036,0.463c0.217,2.846,0.724,9.51,8.743,9.51
					h17.334c2.985,0,5.21-0.771,6.61-2.293c2.047-2.225,1.788-5.338,1.616-7.399C182.884,289.437,182.866,289.215,182.852,289.008z"
					/>
				<path d="M203.337,146.185c-37.652-38.457-87.815-61.477-141.246-64.822c-0.352-0.021-0.732-0.049-1.135-0.08
					c-1.227-0.09-2.619-0.193-4.068-0.193c-6.631,0-9.994,2.465-9.994,7.328v18.293c0,7.938,9.289,8.559,14.279,8.893l0.958,0.066
					c91.745,6.85,164.294,81.326,168.754,173.236c0.139,2.859,0.509,10.459,7.958,10.459h19.333c1.973,0,3.577-0.629,4.768-1.867
					c2.188-2.277,2.306-5.898,2.204-8.424C262.999,235.443,241.048,184.699,203.337,146.185z"/>
				<path d="M346.283,286.422c-2.803-73.885-32.938-143.805-84.852-196.883C209.599,36.547,140.521,4.863,66.923,0.33l-0.77-0.049
					c-1.588-0.102-3.564-0.229-5.589-0.229c-9.071,0-13.671,2.828-13.671,8.408v17.25c0,8.715,9.939,8.785,16.518,8.832
					c1.332,0.008,2.591,0.018,3.623,0.09c134.23,9.412,239.567,117.92,245.024,252.397c0.013,0.311,0.019,0.65,0.025,1.008
					c0.067,3.678,0.206,11.328,9.425,11.328h16c2.501,0,4.523-0.783,6.012-2.33C346.25,294.201,346.404,289.619,346.283,286.422z"/>
			</g>
		</g>
	</g>
</g>
<g>
</g>
<g>
</g>
<g>
</g>
<g>
</g>
<g>
</g>
<g>
</g>
<g>
</g>
<g>
</g>
<g>
</g>
<g>
</g>
<g>
</g>
<g>
</g>
<g>
</g>
<g>
</g>
<g>
</g>
</svg>
