<?xml version="1.0" encoding="iso-8859-1"?>
<!-- Generator: Adobe Illustrator 18.1.1, SVG Export Plug-In . SVG Version: 6.00 Build 0)  -->
<svg version="1.1" id="Capa_1" xmlns="http://www.w3.org/2000/svg" xmlns:xlink="http://www.w3.org/1999/xlink" x="0px" y="0px"
	 viewBox="0 0 357.157 357.157" style="enable-background:new 0 0 357.157 357.157;" xml:space="preserve">
<g>
	<g id="Layer_5_57_">
		<g>
			<g>
				<g>
					<g>
						<ellipse cx="62.58" cy="137.477" rx="32.521" ry="32.187"/>
					</g>
					<path d="M124.946,248.606l-21.684-57.315c-0.552-1.454-5.216-11.056-13.877-11.056c-2.739,0-50.253,0.072-51.808,0.072
						c0,0-0.254,0-1.796,0c-9.695,0-13.324,9.53-13.874,10.984L0.221,248.606c-0.551,1.454-0.231,3.26,2.82,3.26
						c0,0,11.705,0,16.002,0c2.916,0,3.824-2.552,3.824-2.552l10.338-27.74c0,0,1.301-3.552,1.301,0.301
						c0,5.296,0.068,19.443,0.103,26.242c0.012,2.292,0.367,3.749,3.075,3.749c14.023,0,39.598,0,52.796,0
						c3.749,0,3.292-1.952,3.284-4.895c-0.02-7.176-0.056-20.247-0.056-25.306c0-2.603,0.923-0.826,0.923-0.826l9.71,28.041
						c0,0,0.926,2.985,4.363,2.985c3.651,0,13.26,0,13.26,0C125.119,251.867,125.497,250.06,124.946,248.606z M75.348,232.168
						l-10.912,10.035c-1.02,0.939-2.691,0.939-3.712,0l-10.913-10.035c-1.021-0.938-1.623-2.817-1.339-4.174l5.689-27.172
						c0.086-0.406,0.343-1.636,0.32-1.915c-0.111-1.433-0.446-5.73-0.446-5.73c-0.108-1.383,0.938-2.515,2.324-2.515h12.44
						c1.387,0,2.433,1.132,2.324,2.515c0,0-0.336,4.298-0.447,5.73c-0.021,0.278,0.236,1.509,0.32,1.915l5.69,27.172
						C76.972,229.351,76.369,231.23,75.348,232.168z"/>
				</g>
				<g>
					<g>
						<ellipse cx="294.58" cy="137.477" rx="32.521" ry="32.187"/>
					</g>
					<path d="M356.946,248.606l-21.684-57.315c-0.551-1.454-5.216-11.056-13.877-11.056c-2.739,0-50.253,0.072-51.808,0.072
						c0,0-0.254,0-1.796,0c-9.695,0-13.324,9.53-13.874,10.984l-21.686,57.315c-0.551,1.454-0.231,3.26,2.82,3.26
						c0,0,11.705,0,16.003,0c2.915,0,3.823-2.552,3.823-2.552l10.339-27.74c0,0,1.299-3.552,1.299,0.301
						c0,5.296,0.069,19.443,0.104,26.242c0.012,2.292,0.367,3.749,3.075,3.749c14.023,0,39.597,0,52.796,0
						c3.749,0,3.292-1.952,3.284-4.895c-0.021-7.176-0.056-20.247-0.056-25.306c0-2.603,0.922-0.826,0.922-0.826l9.711,28.041
						c0,0,0.926,2.985,4.363,2.985c3.652,0,13.26,0,13.26,0C357.119,251.867,357.497,250.06,356.946,248.606z M307.348,232.168
						l-10.912,10.035c-1.021,0.939-2.691,0.939-3.712,0l-10.913-10.035c-1.021-0.938-1.623-2.817-1.339-4.174l5.689-27.172
						c0.086-0.406,0.343-1.636,0.32-1.915c-0.111-1.433-0.446-5.73-0.446-5.73c-0.108-1.383,0.938-2.515,2.324-2.515h12.44
						c1.387,0,2.433,1.132,2.324,2.515c0,0-0.336,4.298-0.447,5.73c-0.021,0.278,0.236,1.509,0.32,1.915l5.69,27.172
						C308.972,229.351,308.369,231.23,307.348,232.168z"/>
				</g>
			</g>
			<path d="M65.838,82.559c1.576,1.065,3.413,1.629,5.31,1.629c3.165,0,6.111-1.564,7.88-4.183
				c21.904-32.424,58.309-51.781,97.381-51.781c30.858,0,61.144,12.57,83.09,34.487c0.639,0.637,0.616,0.947,0.611,0.98
				c-0.015,0.109-0.172,0.305-0.484,0.483l-6.205,2.742c-2.568,1.135-3.996,2.769-4.02,4.602c-0.024,1.833,1.36,3.505,3.898,4.707
				l25.027,11.855c1.26,0.597,2.551,0.899,3.836,0.9c3.771,0,6.777-2.558,7.659-6.518l5.432-24.37
				c0.517-2.326,0.242-4.241-0.797-5.538c-1.388-1.729-3.944-2.029-6.858-0.741l-6.662,2.944c-0.312,0.153-0.658,0.231-1.03,0.231
				c-1.098,0-2.154-0.661-2.477-1.014c-25.881-28.441-62.701-44.752-101.02-44.752c-45.393,0-87.683,22.484-113.125,60.145
				c-1.42,2.103-1.937,4.633-1.454,7.124C62.31,78.984,63.734,81.139,65.838,82.559z"/>
			<path d="M295.33,280.663c-0.482-2.491-1.905-4.645-4.009-6.066c-1.576-1.065-3.413-1.629-5.31-1.629
				c-3.165,0-6.111,1.564-7.88,4.183c-21.904,32.424-58.309,51.781-97.381,51.781c-30.858,0-61.144-12.57-83.091-34.488
				c-0.638-0.636-0.615-0.946-0.61-0.979c0.015-0.109,0.172-0.304,0.483-0.483l6.206-2.742c2.568-1.135,3.996-2.77,4.02-4.603
				c0.024-1.832-1.36-3.504-3.898-4.706l-25.027-11.856c-1.26-0.597-2.551-0.899-3.836-0.899c-3.77,0-6.777,2.558-7.659,6.518
				l-5.432,24.37c-0.518,2.326-0.242,4.241,0.797,5.537c0.811,1.012,2.013,1.546,3.475,1.547c1.037,0,2.175-0.271,3.384-0.805
				l6.662-2.944c0.312-0.153,0.658-0.231,1.03-0.231c1.098,0,2.154,0.661,2.477,1.014c25.881,28.441,62.701,44.752,101.02,44.752
				c45.393,0,87.683-22.484,113.125-60.145C295.296,285.684,295.812,283.154,295.33,280.663z"/>
		</g>
	</g>
</g>
<g>
</g>
<g>
</g>
<g>
</g>
<g>
</g>
<g>
</g>
<g>
</g>
<g>
</g>
<g>
</g>
<g>
</g>
<g>
</g>
<g>
</g>
<g>
</g>
<g>
</g>
<g>
</g>
<g>
</g>
</svg>
