<?xml version="1.0" encoding="iso-8859-1"?>
<!-- Generator: Adobe Illustrator 18.1.1, SVG Export Plug-In . SVG Version: 6.00 Build 0)  -->
<svg version="1.1" id="Capa_1" xmlns="http://www.w3.org/2000/svg" xmlns:xlink="http://www.w3.org/1999/xlink" x="0px" y="0px"
	 viewBox="0 0 397.941 397.941" style="enable-background:new 0 0 397.941 397.941;" xml:space="preserve">
<g>
	<g id="Layer_5_25_">
		<g>
			<path d="M298.078,195.921c0-10.598,0.601-19.82-5.907-19.82c-3.425,0-3.889-0.586-4.072-1.317
				c-5.811-23.144-20.08-42.96-39.306-55.981c-0.398-0.27-1.199-0.756-1.199-1.943V11.5c0-5.575-4.671-11.5-13.327-11.5h-78
				c-8.705,0-13.402,5.925-13.402,11.5c0,0,0,99.505,0,105.215c0,0.957-0.925,1.953-1.383,2.266
				c-25.274,17.243-41.902,46.265-41.902,79.101c0,32.822,16.985,61.299,41.869,79.077c1.505,1.075,1.417,2.44,1.417,2.514v106.768
				c0,5.575,4.671,11.5,13.327,11.5h78c8.705,0,13.402-5.925,13.402-11.5V280.422c0-1.667,1.006-2.348,1.504-2.679
				c20.925-13.907,35.83-35.876,40.229-61.982c-0.067-1.661,3.353-1.416,4.224-1.416
				C300.058,214.345,298.078,206.52,298.078,195.921z M162.745,17c16.125,0,47.655,0,64.5,0c3.666,0,3.349,3.262,3.349,3.262v86.826
				c0,1.916-1.446,1.492-2.175,1.222c-10.331-3.829-21.497-5.925-33.143-5.925c-12.044,0-23.573,2.241-34.198,6.319
				c-0.406,0.155-1.213,0.259-1.213-0.865c0-17.667,0-87.745,0-87.745S159.412,17,162.745,17z M228.203,380.941
				c-16.376,0-48.708,0-65.504,0c-3.288,0-2.835-3.692-2.835-3.692v-87.618c0-1.292,1.042-0.97,1.565-0.806
				c10.895,3.407,22.217,5.13,33.799,5.13c11.698,0,23.138-1.759,34.153-5.244c0.405-0.128,1.212-0.622,1.212,0.795v88.348
				C230.595,377.853,231.078,380.941,228.203,380.941z M195.276,275.446c-42.659,0-77.366-34.706-77.366-77.365
				c0-38.023,27.581-69.705,63.782-76.146c4.456-0.626,8.973-0.948,13.539-0.948c4.713,0,9.375,0.342,13.971,1.009
				c36.034,6.58,63.44,38.182,63.44,76.086C272.641,240.74,237.936,275.446,195.276,275.446z"/>
			<path d="M241.549,158.32l-40.569,36.805c-0.743,0.634-1.066,0.364-1.292,0.272c-1.309-0.526-2.733-0.823-4.23-0.823
				c-2.556,0-4.908,0.848-6.808,2.269c-0.271,0.203-0.907,0.732-1.628,0.305l-28.625-11.517c-3.796-1.634-8.197,0.117-9.832,3.913
				s0.117,8.197,3.913,9.832l33.524,13.488c0.583,0.152,0.917,0.679,1.123,0.899c1.194,1.279,2.583,2.202,4.351,2.898
				c2.245,0.884,5.807,0.759,7.468,0.17c4.546-1.612,7.921-5.768,7.921-10.85c0-0.384,0.037-1.241,0.582-1.718l41.57-37.712
				c2.272-2.063,2.444-5.577,0.382-7.851C247.337,156.43,243.822,156.258,241.549,158.32z"/>
		</g>
	</g>
</g>
<g>
</g>
<g>
</g>
<g>
</g>
<g>
</g>
<g>
</g>
<g>
</g>
<g>
</g>
<g>
</g>
<g>
</g>
<g>
</g>
<g>
</g>
<g>
</g>
<g>
</g>
<g>
</g>
<g>
</g>
</svg>
