<?xml version="1.0" encoding="utf-8"?>
<!-- Generator: Adobe Illustrator 16.0.0, SVG Export Plug-In . SVG Version: 6.00 Build 0)  -->
<!DOCTYPE svg PUBLIC "-//W3C//DTD SVG 1.1//EN" "http://www.w3.org/Graphics/SVG/1.1/DTD/svg11.dtd">
<svg version="1.1" id="Layer_1" xmlns="http://www.w3.org/2000/svg" xmlns:xlink="http://www.w3.org/1999/xlink" x="0px" y="0px"
	 width="841.89px" height="595.28px" viewBox="0 0 841.89 595.28" enable-background="new 0 0 841.89 595.28" xml:space="preserve">
<g>
	<path fill-rule="evenodd" clip-rule="evenodd" fill="#FDFBFB" d="M178.465,284.862c25.585-12.35,44.865-28.988,50.435-57.421
		c1.766-9.05,1.644-18.386-4.021-26.489c-6.394-9.158-16.229-11.4-26.434-11.811c-18.97-0.807-34.796,6.776-48.465,19.443
		c-13.99,12.99-23.911,28.381-27.716,47.371c-0.149,0.85-0.34,1.708-0.414,2.564c-1.036,11.041-8.873,15.672-19.303,11.41
		c-11.823-4.861-18.908-18.603-16.216-31.587c3.073-14.753,10.811-26.953,21.525-37.094c37.597-35.607,81.595-43.544,130.318-28.874
		c13.404,4.033,24.995,11.61,34.108,22.567c11.854,14.279,12.68,30.583,7.57,47.391c-5.82,19.292-19.119,32.872-35.617,43.716
		c-11.404,7.469-23.85,12.594-36.738,16.802c-2.334,0.78-3.76,1.656-3.553,4.486c1.112,14.814,2.438,29.575,6.917,43.813
		c5.432,17.287,13.379,32.988,28.91,43.425c15.699,10.549,32.319,9.695,49.161,2.904c2.805-1.147,5.503-2.66,8.274-3.918
		c4.475-1.999,9.24-0.74,11.528,2.961c2.221,3.604,1.232,8.641-2.449,11.721c-12.843,10.69-26.676,19.742-42.577,25.18
		c-31.789,10.866-61.496,2.061-81.234-27.242c-11.899-17.639-17.225-37.587-20.029-58.374c-0.427-2.991-0.736-5.994-1.87-9.182
		c-1.545,5.277-3.224,10.541-4.623,15.854c-2.18,8.154-4.214,16.332-6.278,24.514c-1.709,6.847-5.541,10.178-12.581,10.485
		c-10.974,0.509-19.884-3.875-26.757-12.203c-4.956-5.994-5.389-13.301-3.57-20.359c4.855-18.839,9.606-37.754,15.58-56.254
		c9.233-28.641,20.613-56.497,33.593-83.673c3.522-7.374,9.071-10.86,16.943-10.608c7.964,0.224,16.022,0.338,23.881,1.495
		c8.357,1.227,10.481,7.016,7.116,14.901c-8.29,19.335-16.233,38.843-24.302,58.304C179.208,281.955,179.02,282.917,178.465,284.862
		"/>
	<path fill-rule="evenodd" clip-rule="evenodd" fill="#FDFBFB" d="M738.333,231.955c-16.501-0.226-30.383-14.486-30.205-31.042
		c0.162-16.6,14.773-30.951,31.205-30.652c17.165,0.32,30.973,14.235,30.729,30.99C769.803,218.891,756.061,232.173,738.333,231.955
		"/>
	<path fill-rule="evenodd" clip-rule="evenodd" fill="#FDFBFB" d="M361.451,248.702c10.056-12.162,22.597-15.321,34.482-8.819
		c9.503,5.196,11.337,11.478,7.035,21.366c-8.343,19.175-16.65,38.379-24.366,57.807c-2.582,6.52-3.485,13.766-4.765,20.756
		c-0.342,1.761,0.729,3.789,1.173,5.719c1.988-0.564,4.354-0.623,5.904-1.777c10.597-7.677,17.055-18.2,21.721-30.355
		c7.935-20.6,16.267-41.074,25.186-61.277c6.907-15.587,25.697-19.101,38.453-7.635c3.232,2.899,5.089,2.755,8.281,0.082
		c8.539-7.158,18.158-11.809,29.707-11.958c14.349-0.18,25.834,8.295,29.468,22.303c4.763,18.357,1.457,36.071-4.303,53.567
		c-5.51,16.787-12.901,32.685-23.461,46.975c-0.692,0.944-1.315,1.916-1.904,2.919c-0.116,0.169,0.018,0.508,0.033,1.021
		c13.641-7.262,23.745-17.49,29.419-31.93c8.234-20.963,16.521-41.916,24.857-62.825c1.226-3.107,3.118-5.975,4.178-9.111
		c6.077-18.503,28.466-17.835,38.907-8.36c1.16,1.081,2.311,2.175,3.548,3.351c4.329-3.056,8.382-6.331,12.833-8.971
		c11.216-6.689,23.19-8.78,35.454-3.495c9.741,4.208,14.196,12.924,16.397,22.808c3.199,14.306,1.016,28.32-2.68,42.229
		c-4.179,15.843-10.97,30.614-18.635,44.972c-2.654,4.938-6.576,9.164-9.655,14.033c7.66-3.887,14.521-8.834,20.384-15.174
		c7.285-7.891,11.123-17.517,14.322-27.608c7.098-22.35,16.4-43.777,27.801-64.345c7.982-14.376,27.884-13.975,37.731-5.978
		c5.718,4.684,6.981,9.781,4.091,16.622c-8.137,19.12-16.63,38.118-24.278,57.426c-2.863,7.2-4,15.12-5.455,22.802
		c-0.426,2.131,0.802,4.572,1.264,6.889c2.181-1.004,4.945-1.451,6.447-3.049c8.041-8.563,15.696-17.504,23.693-26.081
		c1.985-2.122,4.694-4.604,7.233-4.782c2.698-0.209,6.023,1.566,8.304,3.444c2.479,2.034,2.125,5.356,0.403,8.008
		c-14.705,22.54-30.568,44.01-53.471,59.109c-7.089,4.685-14.821,7.292-23.376,7.324c-8.706,0.03-17.163-4.852-19.487-15.255
		c-0.947-4.244-1.404-8.583-2.191-13.502c-1.304,0.906-2.544,1.738-3.76,2.599c-22.31,15.643-46.396,25.702-74.355,24.377
		c-9.893-0.48-18.301-3.083-23.961-13.171c-3.416,11.274-6.66,21.418-9.557,31.697c-3.471,12.273-6.594,24.665-9.916,36.999
		c-1.56,5.882-5.188,8.971-11.592,9.393c-11.684,0.767-28.386-8.896-28.005-25.11c0.124-5.269,1.794-10.611,3.26-15.743
		c4.133-14.382,8.526-28.687,12.799-43.034c0.364-1.183,0.572-2.431,0.801-3.365c-9.298,4.378-18.32,9.024-27.661,12.955
		c-14.626,6.172-30.068,7.683-45.787,6.322c-8.031-0.691-14.639-4.292-19.41-12.311c-2.235,6.901-4.344,12.76-5.992,18.719
		c-4.58,16.348-8.993,32.779-13.384,49.178c-1.675,6.344-6.662,10.226-13.644,9.816c-15.206-0.927-30.411-14.123-25.064-32.198
		c4.938-16.718,9.675-33.511,14.507-50.259c0.174-0.653,0.354-1.31,0.67-2.445c-6.259,4.382-11.676,9.146-17.904,12.305
		c-5.435,2.74-11.706,4.542-17.772,5.174c-9.845,1.069-16.341-3.556-20.553-12.832c-2.548-5.649-2.849-5.729-7.48-1.722
		c-7.97,6.88-16.87,11.721-27.516,13.128c-14.616,1.916-25.98-3.984-32.655-17.076c-4.729-9.27-5.95-19.258-5.204-29.311
		c2.343-31.83,12.952-60.776,32.67-85.92c10.472-13.366,23.985-23.04,41.07-26.137c11.475-2.083,22.564-1.112,30.085,9.647
		C358.705,242.307,359.822,245.49,361.451,248.702 M487.231,261.013c-4.188,4.191-8.454,7.707-11.783,11.94
		c-14.995,19.132-24.793,40.886-30.862,64.29c-1.773,6.8-2.266,13.962-3.088,21.01c-0.163,1.223,0.594,3.209,1.519,3.705
		c0.871,0.449,2.863-0.285,3.789-1.125c3.011-2.726,6.169-5.433,8.551-8.656c17.253-23.178,28.854-48.916,34.111-77.376
		C490.241,270.69,491.119,266.105,487.231,261.013 M576.766,356.042c-0.031,1.6-0.185,3.203-0.076,4.784
		c0.348,4.494,1.932,5.356,5.38,2.607c2.703-2.155,5.287-4.605,7.415-7.333c15.48-19.865,26.018-42.218,32.521-66.443
		c1.739-6.538,2.27-13.413,3.05-20.186c0.167-1.325-0.753-3.556-1.773-4.063c-0.963-0.452-3.124,0.494-4.15,1.454
		c-3.449,3.287-6.952,6.555-9.86,10.302c-9.299,12.051-16.223,25.476-21.887,39.51C582.262,329.356,577.938,342.284,576.766,356.042
		 M301.028,358.853c0.545,0.251,1.109,0.498,1.66,0.768c2.879-2.733,6.216-5.13,8.569-8.24
		c14.971-19.951,24.348-42.512,29.599-66.755c1.425-6.625,1.657-13.517,2.054-20.312c0.075-1.603-0.951-4.125-2.181-4.715
		c-1.149-0.516-3.599,0.608-4.838,1.721c-2.437,2.234-4.673,4.763-6.637,7.47c-9.502,13.179-16.176,27.826-21.656,43.029
		c-4.866,13.473-8.502,27.209-7.708,41.715C300.003,355.32,300.637,357.088,301.028,358.853"/>
</g>
</svg>
