<?xml version="1.0" encoding="utf-8"?>
<!-- Generator: Adobe Illustrator 16.0.0, SVG Export Plug-In . SVG Version: 6.00 Build 0)  -->
<!DOCTYPE svg PUBLIC "-//W3C//DTD SVG 1.1//EN" "http://www.w3.org/Graphics/SVG/1.1/DTD/svg11.dtd">
<svg version="1.1" id="Layer_1" xmlns="http://www.w3.org/2000/svg" xmlns:xlink="http://www.w3.org/1999/xlink" x="0px" y="0px"
	 width="841.89px" height="595.28px" viewBox="0 0 841.89 595.28" enable-background="new 0 0 841.89 595.28" xml:space="preserve">
<path fill-rule="evenodd" clip-rule="evenodd" fill="#FEFEFE" d="M426.188,453.694c-34.999,55.102-84.949,71.027-145.007,56.488
	c-39.484-9.523-72.042-47.973-78.784-87.512c0.625,0.016,1.467-0.25,1.842,0.049c27.687,21.582,44.641,22.086,72.814,1.18
	c13.767-10.207,26.555-21.783,40.341-31.984c28.212-20.877,53.746-20.719,82.253-0.568c8.783,6.199,17.943,16.42,26.938,16.445
	c8.488,0.012,17.057-10.889,25.435-17.209c26.496-19.984,52.463-20.779,80.52-1.238c14.938,10.408,28.768,22.377,43.458,33.137
	c25.283,18.574,43.516,18.059,68.638-1.242c1.345-1.031,2.749-2.008,6.021-4.438c-12.477,45.256-35.43,79.604-80.438,91.256
	C511.218,523.347,461.6,507.819,426.188,453.694"/>
<g>
	<path fill-rule="evenodd" clip-rule="evenodd" fill="#FEFEFE" d="M242.935,170.665c19.416-9.372,34.047-21.998,38.274-43.575
		c1.34-6.868,1.247-13.953-3.052-20.102c-4.852-6.95-12.316-8.651-20.06-8.963c-14.396-0.613-26.406,5.142-36.779,14.755
		c-10.617,9.858-18.146,21.538-21.033,35.949c-0.113,0.645-0.258,1.296-0.314,1.946c-0.786,8.379-6.734,11.893-14.649,8.659
		c-8.972-3.689-14.349-14.117-12.306-23.971c2.332-11.196,8.204-20.454,16.335-28.15c28.531-27.022,61.921-33.045,98.896-21.912
		c10.172,3.061,18.968,8.811,25.884,17.126c8.996,10.836,9.622,23.209,5.745,35.964c-4.417,14.64-14.509,24.946-27.029,33.176
		c-8.655,5.667-18.099,9.557-27.88,12.75c-1.771,0.592-2.853,1.257-2.696,3.405c0.844,11.242,1.85,22.444,5.249,33.249
		c4.122,13.119,10.153,25.034,21.939,32.954c11.914,8.005,24.526,7.358,37.307,2.204c2.129-0.871,4.176-2.019,6.279-2.973
		c3.396-1.517,7.012-0.562,8.748,2.247c1.686,2.734,0.936,6.557-1.858,8.895c-9.746,8.112-20.244,14.981-32.311,19.108
		c-24.124,8.246-46.668,1.563-61.647-20.674c-9.03-13.385-13.072-28.524-15.2-44.299c-0.324-2.27-0.558-4.548-1.419-6.968
		c-1.172,4.006-2.446,8-3.508,12.032c-1.655,6.188-3.198,12.394-4.765,18.603c-1.297,5.196-4.205,7.724-9.547,7.957
		c-8.328,0.386-15.09-2.94-20.306-9.26c-3.761-4.549-4.089-10.094-2.709-15.451c3.685-14.296,7.29-28.65,11.823-42.69
		c7.007-21.735,15.643-42.874,25.493-63.497c2.673-5.596,6.884-8.242,12.858-8.051c6.044,0.17,12.159,0.257,18.123,1.135
		c6.342,0.931,7.954,5.324,5.4,11.308c-6.291,14.673-12.319,29.477-18.442,44.246C243.499,168.458,243.355,169.188,242.935,170.665"
		/>
	<path fill-rule="evenodd" clip-rule="evenodd" fill="#FEFEFE" d="M667.807,130.514c-12.522-0.171-23.057-10.993-22.922-23.557
		c0.123-12.597,11.211-23.488,23.681-23.261c13.026,0.243,23.505,10.803,23.32,23.518C691.688,120.6,681.26,130.68,667.807,130.514"
		/>
	<path fill-rule="evenodd" clip-rule="evenodd" fill="#FEFEFE" d="M381.799,143.224c7.631-9.229,17.148-11.627,26.168-6.693
		c7.212,3.943,8.604,8.71,5.339,16.214c-6.331,14.552-12.636,29.125-18.491,43.869c-1.959,4.947-2.645,10.446-3.616,15.751
		c-0.259,1.336,0.553,2.875,0.89,4.339c1.509-0.428,3.305-0.472,4.481-1.348c8.041-5.826,12.942-13.812,16.483-23.036
		c6.021-15.633,12.345-31.171,19.113-46.502c5.241-11.829,19.501-14.495,29.181-5.794c2.453,2.2,3.862,2.091,6.285,0.062
		c6.479-5.432,13.779-8.962,22.544-9.075c10.889-0.137,19.604,6.295,22.362,16.925c3.614,13.931,1.105,27.374-3.266,40.651
		c-4.181,12.74-9.79,24.804-17.804,35.648c-0.525,0.717-0.998,1.454-1.445,2.216c-0.088,0.128,0.014,0.385,0.025,0.774
		c10.352-5.511,18.02-13.273,22.325-24.231c6.249-15.908,12.537-31.809,18.864-47.676c0.93-2.358,2.366-4.534,3.17-6.914
		c4.612-14.042,21.603-13.535,29.526-6.345c0.88,0.821,1.753,1.651,2.692,2.543c3.285-2.319,6.36-4.804,9.738-6.808
		c8.512-5.076,17.599-6.663,26.905-2.652c7.393,3.193,10.773,9.808,12.444,17.309c2.428,10.856,0.771,21.491-2.034,32.046
		c-3.171,12.023-8.324,23.233-14.142,34.128c-2.014,3.747-4.99,6.955-7.327,10.65c5.813-2.949,11.02-6.704,15.469-11.515
		c5.529-5.988,8.441-13.293,10.869-20.952c5.387-16.96,12.446-33.221,21.098-48.83c6.058-10.91,21.16-10.605,28.634-4.536
		c4.339,3.554,5.298,7.423,3.104,12.614c-6.175,14.509-12.62,28.927-18.425,43.579c-2.173,5.464-3.035,11.474-4.14,17.304
		c-0.323,1.617,0.608,3.47,0.959,5.227c1.655-0.761,3.753-1.101,4.893-2.313c6.103-6.499,11.912-13.284,17.98-19.793
		c1.507-1.61,3.563-3.494,5.489-3.629c2.048-0.159,4.571,1.189,6.302,2.614c1.882,1.544,1.612,4.065,0.306,6.077
		c-11.159,17.105-23.197,33.398-40.577,44.857c-5.38,3.555-11.248,5.534-17.74,5.558c-6.606,0.023-13.024-3.682-14.788-11.577
		c-0.719-3.22-1.065-6.513-1.663-10.246c-0.989,0.688-1.931,1.319-2.854,1.972c-16.93,11.871-35.209,19.505-56.427,18.499
		c-7.507-0.364-13.888-2.339-18.184-9.995c-2.592,8.556-5.054,16.253-7.252,24.054c-2.634,9.314-5.004,18.718-7.525,28.078
		c-1.184,4.464-3.938,6.808-8.797,7.128c-8.866,0.582-21.541-6.751-21.252-19.056c0.094-3.998,1.361-8.053,2.474-11.947
		c3.137-10.914,6.471-21.77,9.713-32.658c0.276-0.897,0.435-1.844,0.607-2.553c-7.056,3.322-13.902,6.848-20.991,9.831
		c-11.1,4.684-22.818,5.83-34.747,4.798c-6.095-0.525-11.108-3.257-14.729-9.342c-1.696,5.237-3.297,9.683-4.548,14.205
		c-3.476,12.406-6.824,24.875-10.156,37.32c-1.271,4.814-5.056,7.76-10.354,7.449c-11.54-0.703-23.079-10.718-19.021-24.435
		c3.748-12.687,7.342-25.431,11.009-38.14c0.132-0.496,0.269-0.994,0.508-1.856c-4.749,3.325-8.86,6.941-13.587,9.338
		c-4.124,2.079-8.884,3.446-13.487,3.926c-7.471,0.811-12.401-2.698-15.597-9.738c-1.934-4.287-2.162-4.347-5.677-1.307
		c-6.048,5.221-12.802,8.895-20.881,9.963c-11.092,1.454-19.716-3.024-24.781-12.959c-3.589-7.034-4.515-14.614-3.949-22.243
		c1.778-24.155,9.829-46.122,24.793-65.203c7.947-10.143,18.202-17.485,31.167-19.835c8.708-1.581,17.124-0.844,22.831,7.321
		C379.715,138.37,380.563,140.786,381.799,143.224 M477.251,152.566c-3.178,3.18-6.416,5.848-8.942,9.061
		c-11.379,14.519-18.814,31.028-23.421,48.788c-1.346,5.161-1.719,10.596-2.343,15.945c-0.124,0.927,0.45,2.435,1.152,2.811
		c0.661,0.341,2.173-0.216,2.875-0.853c2.285-2.069,4.682-4.123,6.489-6.57c13.093-17.589,21.896-37.121,25.887-58.719
		C479.535,159.91,480.201,156.431,477.251,152.566 M545.196,224.682c-0.023,1.214-0.14,2.43-0.058,3.63
		c0.264,3.411,1.466,4.065,4.083,1.979c2.051-1.636,4.012-3.495,5.627-5.565c11.748-15.075,19.744-32.038,24.68-50.422
		c1.32-4.962,1.723-10.179,2.314-15.319c0.127-1.006-0.571-2.699-1.346-3.083c-0.73-0.343-2.371,0.375-3.149,1.103
		c-2.618,2.494-5.276,4.974-7.483,7.818c-7.057,9.145-12.311,19.333-16.609,29.983C549.367,204.431,546.087,214.241,545.196,224.682
		 M335.945,226.815c0.414,0.19,0.842,0.378,1.26,0.582c2.185-2.074,4.717-3.893,6.503-6.254
		c11.361-15.14,18.477-32.26,22.461-50.658c1.082-5.028,1.258-10.258,1.559-15.414c0.057-1.217-0.722-3.131-1.655-3.578
		c-0.872-0.392-2.731,0.461-3.671,1.306c-1.849,1.695-3.546,3.614-5.037,5.669c-7.211,10.001-12.276,21.117-16.434,32.654
		c-3.693,10.224-6.452,20.648-5.849,31.657C335.167,224.134,335.648,225.475,335.945,226.815"/>
</g>
</svg>
