<?xml version="1.0" encoding="UTF-8" ?>
<!DOCTYPE svg PUBLIC "-//W3C//DTD SVG 1.1//EN" "http://www.w3.org/Graphics/SVG/1.1/DTD/svg11.dtd">
<svg width="197pt" height="94pt" viewBox="0 0 197 94" version="1.1" xmlns="http://www.w3.org/2000/svg">
<path fill="#ffffff" d=" M 0.00 0.00 L 197.00 0.00 L 197.00 94.00 L 0.00 94.00 L 0.00 0.00 Z" />
<path fill="#fd6250" d=" M 183.41 6.65 C 189.01 4.66 195.29 10.28 194.00 16.08 C 193.47 22.49 184.62 25.44 180.16 20.90 C 175.27 16.83 177.51 8.41 183.41 6.65 Z" />
<path fill="#fd6250" d=" M 5.85 26.78 C 12.89 9.59 36.21 3.28 51.95 12.04 C 55.60 14.18 58.78 17.69 59.35 22.02 C 60.12 27.51 57.70 33.00 53.92 36.90 C 49.64 41.43 43.81 43.99 38.05 46.05 C 38.56 53.52 39.87 61.41 44.63 67.45 C 47.84 71.65 53.51 74.15 58.75 72.71 C 61.44 72.12 63.82 70.46 66.59 70.21 C 67.30 71.03 67.96 71.87 68.59 72.75 C 63.14 77.73 56.54 82.22 48.93 82.60 C 42.76 82.99 36.78 79.66 33.30 74.66 C 29.07 68.98 27.63 61.89 26.67 55.02 C 24.90 59.46 24.56 64.36 22.70 68.74 C 18.41 71.99 10.63 67.57 11.72 62.04 C 13.69 49.58 18.38 37.72 23.03 26.05 C 24.13 23.89 24.74 21.00 27.14 19.90 C 30.31 19.20 33.78 19.10 36.87 20.20 C 38.75 20.91 37.95 22.99 37.36 24.32 C 34.92 29.96 32.67 35.67 30.63 41.46 C 36.57 38.59 42.19 34.08 44.33 27.61 C 45.50 23.95 45.75 19.14 42.60 16.37 C 38.87 13.52 33.59 13.93 29.42 15.52 C 22.06 18.78 16.42 25.87 15.17 33.86 C 14.83 35.21 14.75 37.22 12.91 37.33 C 7.49 38.20 3.57 31.45 5.85 26.78 Z" />
<path fill="#fd6250" d=" M 58.21 36.26 C 61.61 30.24 67.73 24.75 75.02 24.94 C 78.21 24.93 80.27 27.55 81.58 30.14 C 84.09 25.57 92.41 25.48 93.65 30.91 C 90.79 39.69 85.34 47.86 85.15 57.36 C 88.65 56.01 91.29 53.08 92.67 49.64 C 95.42 42.74 97.40 35.47 101.04 28.96 C 103.67 25.26 108.75 26.86 111.76 29.19 C 115.13 26.56 119.34 23.89 123.80 25.25 C 127.95 26.39 129.79 30.98 129.80 34.93 C 130.01 44.36 125.72 53.20 120.59 60.86 C 123.96 58.61 127.48 56.09 129.13 52.24 C 132.38 44.40 134.43 35.98 138.71 28.61 C 141.51 25.34 146.29 26.90 149.16 29.24 C 152.46 26.61 156.55 23.99 160.97 25.17 C 165.26 26.20 167.23 30.94 167.27 34.97 C 167.36 44.35 163.22 53.20 157.99 60.77 C 161.94 58.30 165.98 55.25 167.50 50.64 C 169.94 43.36 172.18 35.86 176.28 29.30 C 178.76 25.24 186.77 26.07 187.54 30.97 C 184.70 39.73 179.24 47.88 179.09 57.37 C 183.88 55.57 186.08 50.70 189.54 47.32 C 190.89 47.31 192.05 48.16 193.27 48.65 C 189.32 55.31 184.75 61.84 178.41 66.42 C 175.71 68.37 171.95 69.71 168.76 68.18 C 166.07 66.80 166.14 63.41 165.52 60.87 C 158.96 66.14 150.58 69.81 142.02 68.71 C 139.95 68.51 138.54 66.81 136.96 65.66 C 135.10 72.29 133.52 79.01 131.60 85.60 C 128.24 89.60 120.73 84.95 121.41 80.13 C 122.35 74.15 124.36 68.41 126.04 62.61 C 119.80 66.60 112.56 69.70 104.99 68.75 C 102.71 68.75 101.19 66.87 99.59 65.55 C 97.58 72.34 96.11 79.31 93.99 86.05 C 89.77 89.31 82.64 84.30 84.11 79.16 C 85.12 73.78 86.86 68.58 88.43 63.35 C 85.09 65.88 81.58 69.28 77.03 68.80 C 74.20 68.82 72.95 66.02 71.59 64.04 C 68.29 66.66 64.44 69.43 59.96 68.76 C 55.64 68.32 52.88 64.04 52.45 60.01 C 51.50 51.72 54.30 43.47 58.21 36.26 Z" />
<path fill="#ffffff" d=" M 67.29 46.34 C 69.31 41.03 71.68 35.56 76.24 31.92 C 77.50 37.63 75.75 43.37 73.71 48.67 C 71.77 53.46 69.55 58.49 65.18 61.57 C 64.26 56.39 65.47 51.17 67.29 46.34 Z" />
<path fill="#ffffff" d=" M 109.53 41.59 C 111.37 37.94 113.82 34.51 117.24 32.16 C 117.82 38.39 115.58 44.41 113.04 49.98 C 110.83 54.33 108.61 59.16 104.10 61.58 C 103.83 54.54 106.40 47.78 109.53 41.59 Z" />
<path fill="#ffffff" d=" M 147.51 40.56 C 149.26 37.31 151.46 34.17 154.79 32.37 C 155.05 38.40 153.13 44.24 150.62 49.64 C 148.46 54.21 145.95 58.85 141.71 61.82 C 140.99 54.30 144.14 47.09 147.51 40.56 Z" />
</svg>
